{"glyphs":{"0":{"ha":557,"x_min":39,"x_max":543,"o":"m 228 -17 q 124 10 168 -17 q 59 92 79 36 q 51 238 39 149 l 101 592 q 188 774 118 715 q 350 832 258 832 q 491 773 439 832 q 526 592 543 714 l 476 238 q 428 91 464 147 q 340 9 392 35 q 228 -17 288 -17 m 235 38 q 332 81 290 38 q 385 203 374 124 l 442 611 q 423 733 453 690 q 339 776 393 776 q 244 733 288 776 q 190 611 201 690 l 133 203 q 153 81 122 124 q 235 38 183 38 z "},"1":{"ha":343,"x_min":86,"x_max":324,"o":"m 119 0 l 217 697 l 86 697 l 93 747 l 163 749 q 215 765 196 750 q 250 821 233 781 l 324 821 l 207 0 l 119 0 z "},"2":{"ha":524,"x_min":10,"x_max":524,"o":"m 10 0 q 21 78 15 39 q 32 157 26 117 q 67 267 42 226 q 135 335 93 308 q 238 389 178 361 q 320 435 282 408 q 385 502 358 463 q 419 594 411 542 l 422 614 q 408 720 431 681 q 324 760 386 760 q 229 724 265 760 q 182 613 193 688 l 172 544 l 85 544 l 97 631 q 173 777 113 729 q 333 825 233 825 q 453 801 411 825 q 510 730 496 778 q 513 608 524 682 q 480 498 504 547 q 417 411 456 449 q 324 347 378 374 q 240 307 279 328 q 174 256 201 286 q 133 179 146 226 q 120 129 126 156 q 110 74 114 103 l 444 74 l 433 0 l 10 0 z "},"3":{"ha":540,"x_min":24,"x_max":532,"o":"m 218 -10 q 97 16 140 -10 q 38 88 53 42 q 31 193 24 135 l 43 276 l 132 276 l 122 206 q 138 95 113 135 q 226 54 164 56 q 322 92 283 54 q 369 193 361 129 l 381 269 q 355 364 390 332 q 251 399 319 396 l 171 399 l 179 454 l 261 454 q 323 466 293 454 q 375 500 353 478 q 406 540 394 518 q 419 586 417 561 l 426 635 q 411 724 433 688 q 326 761 389 761 q 228 722 263 761 q 186 622 194 683 l 181 574 l 90 574 l 97 635 q 169 775 111 725 q 335 825 226 825 q 489 777 446 825 q 519 640 532 729 l 514 599 q 461 483 504 526 q 358 424 418 439 q 452 366 424 413 q 469 249 481 319 l 461 193 q 427 86 454 132 q 349 15 400 40 q 218 -10 299 -10 z "},"4":{"ha":501,"x_min":-4,"x_max":463,"o":"m 260 0 l 283 165 l -4 165 l 6 235 l 385 821 l 463 821 l 379 226 l 461 226 l 451 165 l 371 165 l 346 0 l 260 0 m 79 226 l 292 226 l 351 649 l 79 226 z "},"5":{"ha":547,"x_min":29,"x_max":533,"o":"m 228 -11 q 108 7 154 -11 q 46 73 63 25 q 42 210 29 121 l 47 257 l 136 257 l 131 218 q 142 92 118 129 q 238 56 167 56 q 337 98 303 56 q 383 224 371 140 l 399 342 q 400 418 406 383 q 371 474 394 453 q 296 494 347 494 q 210 468 247 494 q 157 399 172 442 l 71 399 l 131 821 l 533 821 l 524 754 l 208 754 l 169 483 q 236 536 196 517 q 332 556 276 556 q 465 513 424 556 q 492 360 507 471 l 472 218 q 424 74 458 124 q 340 7 390 25 q 228 -11 289 -11 z "},"6":{"ha":553,"x_min":36,"x_max":539,"o":"m 226 -12 q 108 14 151 -12 q 51 89 65 40 q 46 201 36 138 l 104 625 q 185 774 119 722 q 347 825 250 825 q 492 778 444 825 q 525 631 539 731 l 517 578 l 429 578 l 439 642 q 422 737 447 707 q 340 767 396 767 q 242 730 281 767 q 194 638 203 693 l 165 433 q 239 490 194 469 q 332 510 283 510 q 456 463 410 510 q 492 335 503 417 l 472 193 q 434 88 463 135 q 354 14 406 40 q 226 -12 303 -12 m 236 43 q 332 77 292 43 q 383 182 372 111 l 403 324 q 379 418 411 388 q 293 450 347 449 q 201 419 240 450 q 153 335 161 389 l 131 182 q 149 79 121 114 q 236 43 178 44 z "},"7":{"ha":415,"x_min":19,"x_max":449,"o":"m 19 0 l 353 756 l 75 756 l 83 821 l 449 821 l 439 753 l 107 0 l 19 0 z "},"8":{"ha":544,"x_min":31,"x_max":532,"o":"m 225 -11 q 103 15 147 -11 q 45 88 60 42 q 38 194 31 135 l 44 244 q 66 322 51 286 q 107 383 81 358 q 152 413 125 400 q 215 431 179 426 q 163 448 183 436 q 128 478 143 460 q 103 537 108 501 q 104 614 99 572 l 108 642 q 143 742 117 701 q 218 804 169 783 q 342 825 267 825 q 459 804 417 825 q 517 742 501 783 q 524 642 532 701 l 519 614 q 492 528 513 565 q 440 467 472 490 q 363 431 408 443 q 426 406 403 424 q 462 364 450 389 q 476 308 474 339 q 472 243 478 278 l 465 193 q 431 92 458 138 q 354 17 404 46 q 225 -11 304 -11 m 231 43 q 326 78 288 43 q 374 172 365 113 l 386 265 q 366 356 394 324 q 279 392 338 389 q 183 356 222 392 q 136 265 144 321 l 124 172 q 143 80 117 114 q 231 43 169 46 m 289 463 q 380 499 340 463 q 428 594 419 536 l 435 647 q 419 737 442 700 q 333 774 396 774 q 237 736 269 774 q 197 649 204 699 l 189 596 q 211 499 181 535 q 289 463 242 463 z "},"9":{"ha":551,"x_min":31,"x_max":533,"o":"m 222 -12 q 77 35 124 -12 q 44 182 31 82 l 53 243 l 140 243 l 131 171 q 147 76 121 106 q 229 46 174 46 q 327 83 288 46 q 375 175 367 119 l 404 385 q 331 327 375 347 q 238 307 288 307 q 147 329 186 307 q 91 394 108 351 q 81 501 74 438 l 97 619 q 135 726 106 679 q 216 799 164 772 q 342 825 268 825 q 461 799 418 825 q 519 724 504 772 q 524 611 533 676 l 464 188 q 385 39 450 90 q 222 -12 319 -12 m 276 365 q 369 397 329 365 q 418 482 410 429 l 438 631 q 419 733 447 699 q 333 769 392 768 q 238 735 278 769 q 186 631 197 701 l 167 493 q 191 399 158 431 q 276 365 224 368 z "},"\r":{"ha":833,"x_min":0,"x_max":0,"o":""}," ":{"ha":257,"x_min":0,"x_max":0,"o":""}," ":{"ha":257,"x_min":0,"x_max":0,"o":""},"A":{"ha":514,"x_min":-32,"x_max":442,"o":"m -32 0 l 265 821 l 379 821 l 442 0 l 347 0 l 331 190 l 129 190 l 60 0 l -32 0 m 139 239 l 333 239 l 304 714 l 139 239 z "},"А":{"ha":514,"x_min":-32,"x_max":442,"o":"m -32 0 l 265 821 l 379 821 l 442 0 l 347 0 l 331 190 l 129 190 l 60 0 l -32 0 m 139 239 l 333 239 l 304 714 l 139 239 z "},"Æ":{"ha":753,"x_min":-42,"x_max":749,"o":"m -42 0 l 356 821 l 749 821 l 739 758 l 464 758 l 425 464 l 665 464 l 656 394 l 417 394 l 375 63 l 657 63 l 646 0 l 272 0 l 297 190 l 142 190 l 50 0 l -42 0 m 157 239 l 308 239 l 378 694 l 382 714 l 375 697 l 157 239 z "},"Á":{"ha":514,"x_min":-32,"x_max":465,"o":"m -32 0 l 265 821 l 379 821 l 442 0 l 347 0 l 331 190 l 129 190 l 60 0 l -32 0 m 139 239 l 333 239 l 304 714 l 139 239 m 250 881 l 376 996 l 465 996 l 306 881 l 250 881 z "},"Ă":{"ha":514,"x_min":-32,"x_max":486,"o":"m -32 0 l 265 821 l 379 821 l 442 0 l 347 0 l 331 190 l 129 190 l 60 0 l -32 0 m 139 239 l 333 239 l 304 714 l 139 239 m 328 872 q 264 885 289 872 q 227 917 239 897 q 212 957 215 936 q 210 996 208 978 l 263 996 q 282 938 261 957 q 336 918 303 918 q 398 937 372 918 q 433 996 424 956 l 485 996 q 461 940 479 968 q 410 892 443 911 q 328 872 378 872 z "},"Ắ":{"ha":514,"x_min":-32,"x_max":450,"o":"m -32 0 l 265 821 l 379 821 l 442 0 l 347 0 l 331 190 l 129 190 l 60 0 l -32 0 m 139 239 l 333 239 l 304 714 l 139 239 m 328 871 q 267 886 286 871 q 242 923 247 901 q 239 963 238 944 l 290 963 q 301 926 289 938 q 335 915 314 915 q 374 926 357 915 q 396 963 390 938 l 446 963 q 412 899 440 928 q 328 871 383 871 m 303 982 l 364 1076 l 450 1076 l 356 982 l 303 982 z "},"Ặ":{"ha":514,"x_min":-32,"x_max":486,"o":"m -32 0 l 265 821 l 379 821 l 442 0 l 347 0 l 331 190 l 129 190 l 60 0 l -32 0 m 139 239 l 333 239 l 304 714 l 139 239 m 200 -150 q 167 -137 181 -150 q 154 -104 154 -124 q 167 -74 154 -86 q 200 -61 181 -61 q 232 -74 219 -61 q 244 -104 244 -86 q 232 -137 244 -124 q 200 -150 219 -150 m 328 872 q 264 885 289 872 q 227 917 239 897 q 212 957 215 936 q 210 996 208 978 l 263 996 q 282 938 261 957 q 336 918 303 918 q 398 937 372 918 q 433 996 424 956 l 485 996 q 461 940 479 968 q 410 892 443 911 q 328 872 378 872 z "},"Ằ":{"ha":514,"x_min":-32,"x_max":447,"o":"m -32 0 l 265 821 l 379 821 l 442 0 l 347 0 l 331 190 l 129 190 l 60 0 l -32 0 m 139 239 l 333 239 l 304 714 l 139 239 m 329 871 q 268 886 288 871 q 244 923 249 901 q 240 963 239 944 l 292 963 q 303 926 290 938 q 336 915 315 915 q 376 926 360 915 q 397 963 392 938 l 447 963 q 413 899 442 928 q 329 871 385 871 m 335 982 l 261 1076 l 346 1076 l 388 982 l 335 982 z "},"Ẳ":{"ha":514,"x_min":-32,"x_max":447,"o":"m -32 0 l 265 821 l 379 821 l 442 0 l 347 0 l 331 190 l 129 190 l 60 0 l -32 0 m 139 239 l 333 239 l 304 714 l 139 239 m 328 871 q 267 886 286 871 q 242 923 247 901 q 239 963 238 944 l 290 963 q 301 926 289 938 q 335 915 314 915 q 374 926 357 915 q 396 963 390 938 l 446 963 q 412 899 440 928 q 328 871 383 871 m 322 975 l 325 994 q 337 1014 326 1008 q 358 1025 347 1019 q 369 1043 368 1031 l 369 1050 q 368 1067 371 1060 q 351 1075 365 1075 q 329 1054 335 1075 l 289 1060 q 361 1108 301 1108 q 409 1092 396 1108 q 422 1047 422 1075 l 422 1044 q 413 1017 421 1025 q 395 1006 404 1008 q 379 1001 386 1004 q 372 989 372 997 l 371 975 l 322 975 z "},"Ẵ":{"ha":514,"x_min":-32,"x_max":465,"o":"m -32 0 l 265 821 l 379 821 l 442 0 l 347 0 l 331 190 l 129 190 l 60 0 l -32 0 m 139 239 l 333 239 l 304 714 l 139 239 m 329 871 q 268 886 288 871 q 244 923 249 901 q 240 963 239 944 l 292 963 q 303 926 290 938 q 336 915 315 915 q 376 926 360 915 q 397 963 392 938 l 447 963 q 413 899 442 928 q 329 871 385 871 m 393 986 q 368 992 378 986 q 346 1006 358 997 q 329 1017 339 1011 q 307 1022 319 1022 q 285 1013 294 1022 q 272 988 276 1003 l 244 988 q 269 1042 250 1021 q 314 1064 288 1064 q 340 1058 328 1064 q 363 1046 351 1053 q 381 1035 372 1039 q 400 1031 390 1031 q 422 1039 413 1031 q 435 1063 431 1047 l 465 1063 q 438 1006 460 1026 q 393 986 415 986 z "},"Ǎ":{"ha":514,"x_min":-32,"x_max":501,"o":"m -32 0 l 265 821 l 379 821 l 442 0 l 347 0 l 331 190 l 129 190 l 60 0 l -32 0 m 139 239 l 333 239 l 304 714 l 139 239 m 301 874 l 194 999 l 256 999 l 338 917 l 443 999 l 501 999 l 358 874 l 301 874 z "},"Â":{"ha":514,"x_min":-32,"x_max":485,"o":"m -32 0 l 265 821 l 379 821 l 442 0 l 347 0 l 331 190 l 129 190 l 60 0 l -32 0 m 139 239 l 333 239 l 304 714 l 139 239 m 178 874 l 321 999 l 379 999 l 485 874 l 426 874 l 343 956 l 239 874 l 178 874 z "},"Ấ":{"ha":514,"x_min":-32,"x_max":592,"o":"m -32 0 l 265 821 l 379 821 l 442 0 l 347 0 l 331 190 l 129 190 l 60 0 l -32 0 m 139 239 l 333 239 l 304 714 l 139 239 m 215 869 l 318 965 l 371 965 l 446 869 l 392 869 l 339 925 l 272 869 l 215 869 m 443 926 l 507 1021 l 590 1021 l 497 926 l 443 926 z "},"Ậ":{"ha":514,"x_min":-32,"x_max":485,"o":"m -32 0 l 265 821 l 379 821 l 442 0 l 347 0 l 331 190 l 129 190 l 60 0 l -32 0 m 139 239 l 333 239 l 304 714 l 139 239 m 200 -150 q 167 -137 181 -150 q 154 -104 154 -124 q 167 -74 154 -86 q 200 -61 181 -61 q 232 -74 219 -61 q 244 -104 244 -86 q 232 -137 244 -124 q 200 -150 219 -150 m 178 874 l 321 999 l 379 999 l 485 874 l 426 874 l 343 956 l 239 874 l 178 874 z "},"Ầ":{"ha":514,"x_min":-32,"x_max":529,"o":"m -32 0 l 265 821 l 379 821 l 442 0 l 347 0 l 331 190 l 129 190 l 60 0 l -32 0 m 139 239 l 333 239 l 304 714 l 139 239 m 215 869 l 318 965 l 371 965 l 446 869 l 392 869 l 339 925 l 272 869 l 215 869 m 475 926 l 401 1021 l 488 1021 l 529 926 l 475 926 z "},"Ẩ":{"ha":514,"x_min":-32,"x_max":565,"o":"m -32 0 l 265 821 l 379 821 l 442 0 l 347 0 l 331 190 l 129 190 l 60 0 l -32 0 m 139 239 l 333 239 l 304 714 l 139 239 m 215 869 l 318 965 l 371 965 l 446 869 l 392 869 l 339 925 l 272 869 l 215 869 m 464 919 l 467 939 q 480 959 469 954 q 501 969 490 964 q 511 988 511 975 l 513 996 q 510 1012 513 1003 q 494 1021 508 1021 q 471 1000 476 1021 l 431 1006 q 455 1042 438 1029 q 503 1054 472 1054 q 551 1038 538 1054 q 563 993 564 1021 l 561 989 q 553 961 560 969 q 537 951 546 953 q 521 945 528 949 q 513 933 514 942 l 513 919 l 464 919 z "},"Ẫ":{"ha":514,"x_min":-32,"x_max":461,"o":"m -32 0 l 265 821 l 379 821 l 442 0 l 347 0 l 331 190 l 129 190 l 60 0 l -32 0 m 139 239 l 333 239 l 304 714 l 139 239 m 215 869 l 318 965 l 371 965 l 446 869 l 392 869 l 339 925 l 272 869 l 215 869 m 388 988 q 363 992 374 988 q 342 1006 353 997 q 324 1017 333 1011 q 301 1022 314 1022 q 281 1014 290 1022 q 268 989 272 1006 l 239 989 q 265 1044 246 1024 q 308 1065 283 1065 q 334 1059 322 1065 q 357 1046 346 1053 q 376 1035 368 1040 q 394 1031 385 1031 q 416 1039 407 1031 q 431 1063 425 1047 l 461 1063 q 444 1022 456 1039 q 417 997 432 1006 q 388 988 403 988 z "},"Ä":{"ha":514,"x_min":-32,"x_max":451,"o":"m -32 0 l 265 821 l 379 821 l 442 0 l 347 0 l 331 190 l 129 190 l 60 0 l -32 0 m 139 239 l 333 239 l 304 714 l 139 239 m 272 889 q 240 902 253 889 q 226 933 226 915 q 240 965 226 953 q 272 976 253 976 q 304 965 292 976 q 317 933 317 953 q 304 902 317 915 q 272 889 292 889 m 407 889 q 374 902 388 889 q 361 933 361 915 q 374 965 361 953 q 407 976 388 976 q 439 965 426 976 q 451 933 451 953 q 439 902 451 915 q 407 889 426 889 z "},"Ạ":{"ha":514,"x_min":-32,"x_max":442,"o":"m -32 0 l 265 821 l 379 821 l 442 0 l 347 0 l 331 190 l 129 190 l 60 0 l -32 0 m 139 239 l 333 239 l 304 714 l 139 239 m 200 -150 q 167 -137 181 -150 q 154 -104 154 -124 q 167 -74 154 -86 q 200 -61 181 -61 q 232 -74 219 -61 q 244 -104 244 -86 q 232 -137 244 -124 q 200 -150 219 -150 z "},"À":{"ha":514,"x_min":-32,"x_max":442,"o":"m -32 0 l 265 821 l 379 821 l 442 0 l 347 0 l 331 190 l 129 190 l 60 0 l -32 0 m 139 239 l 333 239 l 304 714 l 139 239 m 331 881 l 192 993 l 282 993 l 390 881 l 331 881 z "},"Ả":{"ha":514,"x_min":-32,"x_max":442,"o":"m -32 0 l 265 821 l 379 821 l 442 0 l 347 0 l 331 190 l 129 190 l 60 0 l -32 0 m 139 239 l 333 239 l 304 714 l 139 239 m 304 858 l 308 888 q 326 914 311 907 q 357 928 342 921 q 374 957 372 936 l 374 965 q 369 994 375 981 q 342 1007 364 1007 q 303 974 313 1007 l 260 982 q 292 1027 269 1011 q 351 1043 314 1043 q 413 1022 396 1043 q 426 963 429 1000 l 426 958 q 413 920 424 932 q 390 903 403 908 q 366 894 376 899 q 356 878 356 890 l 353 858 l 304 858 z "},"Ā":{"ha":514,"x_min":-32,"x_max":471,"o":"m -32 0 l 265 821 l 379 821 l 442 0 l 347 0 l 331 190 l 129 190 l 60 0 l -32 0 m 139 239 l 333 239 l 304 714 l 139 239 m 207 904 l 213 951 l 471 951 l 465 904 l 207 904 z "},"Ą":{"ha":514,"x_min":-32,"x_max":442,"o":"m -32 0 l 265 821 l 379 821 l 442 0 l 347 0 l 331 190 l 129 190 l 60 0 l -32 0 m 139 239 l 333 239 l 304 714 l 139 239 m 369 -187 q 304 -165 329 -187 q 285 -107 279 -142 q 322 -39 290 -68 q 390 1 354 -10 l 435 0 q 373 -43 396 -17 q 346 -96 350 -69 q 358 -136 343 -122 q 392 -150 374 -150 q 414 -147 404 -150 q 429 -142 424 -144 l 438 -171 q 411 -182 428 -176 q 369 -187 394 -187 z "},"Å":{"ha":514,"x_min":-32,"x_max":458,"o":"m -32 0 l 265 821 l 379 821 l 442 0 l 347 0 l 331 190 l 129 190 l 60 0 l -32 0 m 139 239 l 333 239 l 304 714 l 139 239 m 326 853 q 253 883 279 853 q 232 956 226 914 q 274 1031 239 1000 q 357 1061 308 1061 q 432 1031 406 1061 q 453 956 458 1000 q 409 883 446 914 q 326 853 372 853 m 333 894 q 383 912 363 894 q 407 956 404 929 q 396 1003 411 986 q 350 1019 381 1019 q 301 1003 321 1019 q 276 956 281 986 q 288 912 274 929 q 333 894 303 894 z "},"Ã":{"ha":514,"x_min":-32,"x_max":486,"o":"m -32 0 l 265 821 l 379 821 l 442 0 l 347 0 l 331 190 l 129 190 l 60 0 l -32 0 m 139 239 l 333 239 l 304 714 l 139 239 m 392 889 q 361 895 374 889 q 331 914 349 901 q 306 930 319 921 q 276 939 293 939 q 247 927 260 939 q 226 890 233 915 l 193 890 q 226 958 201 932 q 283 985 250 985 q 319 976 303 985 q 349 957 335 968 q 374 942 363 949 q 400 936 385 936 q 431 947 418 936 q 450 981 443 957 l 486 981 q 451 914 478 939 q 392 889 424 889 z "},"B":{"ha":572,"x_min":39,"x_max":553,"o":"m 39 0 l 154 821 l 408 821 q 515 788 476 821 q 543 685 553 756 l 529 585 q 508 516 524 546 q 471 468 492 486 q 421 442 449 449 q 375 435 393 436 l 375 438 q 428 431 403 438 q 468 407 453 425 q 494 358 486 388 q 496 288 501 328 l 481 168 q 443 63 471 99 q 374 13 415 26 q 278 0 332 0 l 39 0 m 132 50 l 268 50 q 326 59 300 50 q 368 95 351 68 q 392 175 385 122 l 408 288 q 387 376 418 354 q 306 397 356 397 l 182 397 l 132 50 m 190 456 l 313 456 q 401 486 368 456 q 443 575 435 517 l 457 669 q 440 745 464 721 q 378 769 417 769 l 233 769 l 190 456 z "},"Б":{"ha":535,"x_min":39,"x_max":524,"o":"m 39 0 l 156 821 l 524 821 l 514 757 l 232 757 l 211 604 l 349 604 q 441 586 407 604 q 487 530 475 568 q 490 431 499 492 l 458 204 q 435 107 450 146 q 395 44 419 68 q 336 10 371 21 q 256 0 301 0 l 39 0 m 246 50 q 315 67 290 50 q 353 115 340 85 q 369 183 365 146 l 403 418 q 405 483 408 453 q 381 531 401 513 q 313 549 361 549 l 203 549 l 133 50 l 246 50 z "},"C":{"ha":556,"x_min":40,"x_max":544,"o":"m 232 -17 q 126 -3 171 -17 q 61 55 82 11 q 53 188 40 99 l 118 650 q 162 767 129 728 q 244 819 194 806 q 353 832 293 832 q 458 818 414 832 q 524 765 503 804 q 533 650 544 726 l 513 506 l 425 506 l 444 651 q 442 733 454 706 q 405 768 431 760 q 344 776 379 776 q 281 768 308 776 q 234 733 253 760 q 207 651 215 706 l 139 164 q 142 81 132 108 q 179 46 153 54 q 240 38 206 38 q 303 46 275 38 q 351 81 332 54 q 378 164 369 108 l 394 288 l 482 288 l 467 189 q 424 55 456 99 q 343 -3 392 11 q 232 -17 294 -17 z "},"Ć":{"ha":556,"x_min":40,"x_max":544,"o":"m 232 -17 q 126 -3 171 -17 q 61 55 82 11 q 53 188 40 99 l 118 650 q 162 767 129 728 q 244 819 194 806 q 353 832 293 832 q 458 818 414 832 q 524 765 503 804 q 533 650 544 726 l 513 506 l 425 506 l 444 651 q 442 733 454 706 q 405 768 431 760 q 344 776 379 776 q 281 768 308 776 q 234 733 253 760 q 207 651 215 706 l 139 164 q 142 81 132 108 q 179 46 153 54 q 240 38 206 38 q 303 46 275 38 q 351 81 332 54 q 378 164 369 108 l 394 288 l 482 288 l 467 189 q 424 55 456 99 q 343 -3 392 11 q 232 -17 294 -17 m 271 881 l 397 996 l 486 996 l 326 881 l 271 881 z "},"Č":{"ha":556,"x_min":40,"x_max":544,"o":"m 232 -17 q 126 -3 171 -17 q 61 55 82 11 q 53 188 40 99 l 118 650 q 162 767 129 728 q 244 819 194 806 q 353 832 293 832 q 458 818 414 832 q 524 765 503 804 q 533 650 544 726 l 513 506 l 425 506 l 444 651 q 442 733 454 706 q 405 768 431 760 q 344 776 379 776 q 281 768 308 776 q 234 733 253 760 q 207 651 215 706 l 139 164 q 142 81 132 108 q 179 46 153 54 q 240 38 206 38 q 303 46 275 38 q 351 81 332 54 q 378 164 369 108 l 394 288 l 482 288 l 467 189 q 424 55 456 99 q 343 -3 392 11 q 232 -17 294 -17 m 322 874 l 215 999 l 276 999 l 358 917 l 464 999 l 522 999 l 379 874 l 322 874 z "},"Ç":{"ha":556,"x_min":40,"x_max":544,"o":"m 232 -17 q 126 -3 171 -17 q 61 55 82 11 q 53 188 40 99 l 118 650 q 162 767 129 728 q 244 819 194 806 q 353 832 293 832 q 458 818 414 832 q 524 765 503 804 q 533 650 544 726 l 513 506 l 425 506 l 444 651 q 442 733 454 706 q 405 768 431 760 q 344 776 379 776 q 281 768 308 776 q 234 733 253 760 q 207 651 215 706 l 139 164 q 142 81 132 108 q 179 46 153 54 q 240 38 206 38 q 303 46 275 38 q 351 81 332 54 q 378 164 369 108 l 394 288 l 482 288 l 467 189 q 424 55 456 99 q 343 -3 392 11 q 232 -17 294 -17 m 194 -199 q 156 -192 172 -199 q 129 -179 139 -185 l 147 -146 q 169 -158 154 -153 q 196 -162 185 -162 q 239 -150 224 -162 q 256 -121 254 -137 q 218 -82 261 -82 q 199 -86 210 -82 q 181 -96 189 -90 l 154 -81 l 210 0 l 250 0 l 201 -68 l 194 -65 q 218 -56 206 -58 q 243 -53 231 -53 q 295 -74 279 -53 q 307 -119 311 -94 q 273 -176 303 -154 q 194 -199 243 -199 z "},"Ċ":{"ha":556,"x_min":40,"x_max":544,"o":"m 232 -17 q 126 -3 171 -17 q 61 55 82 11 q 53 188 40 99 l 118 650 q 162 767 129 728 q 244 819 194 806 q 353 832 293 832 q 458 818 414 832 q 524 765 503 804 q 533 650 544 726 l 513 506 l 425 506 l 444 651 q 442 733 454 706 q 405 768 431 760 q 344 776 379 776 q 281 768 308 776 q 234 733 253 760 q 207 651 215 706 l 139 164 q 142 81 132 108 q 179 46 153 54 q 240 38 206 38 q 303 46 275 38 q 351 81 332 54 q 378 164 369 108 l 394 288 l 482 288 l 467 189 q 424 55 456 99 q 343 -3 392 11 q 232 -17 294 -17 m 368 886 q 332 901 347 886 q 315 938 317 917 q 331 973 315 958 q 368 988 347 988 q 406 973 390 988 q 421 938 421 958 q 406 901 421 917 q 368 886 390 886 z "},"Ч":{"ha":531,"x_min":49,"x_max":510,"o":"m 306 0 l 339 232 q 279 202 319 217 q 194 188 239 188 q 90 211 122 188 q 53 277 58 235 q 56 374 49 319 l 119 821 l 206 821 l 142 371 q 150 281 133 311 q 231 250 167 250 q 309 265 282 250 q 346 288 336 279 l 422 821 l 510 821 l 393 0 l 306 0 z "},"D":{"ha":578,"x_min":39,"x_max":556,"o":"m 39 0 l 156 821 l 401 821 q 490 806 454 821 q 540 753 525 790 q 546 653 556 717 l 481 179 q 442 69 471 108 q 371 15 414 31 q 274 0 328 0 l 39 0 m 136 50 l 271 50 q 350 76 318 50 q 392 175 382 101 l 458 642 q 443 742 468 715 q 371 768 418 768 l 236 768 l 136 50 z "},"Ď":{"ha":578,"x_min":39,"x_max":556,"o":"m 39 0 l 156 821 l 401 821 q 490 806 454 821 q 540 753 525 790 q 546 653 556 717 l 481 179 q 442 69 471 108 q 371 15 414 31 q 274 0 328 0 l 39 0 m 136 50 l 271 50 q 350 76 318 50 q 392 175 382 101 l 458 642 q 443 742 468 715 q 371 768 418 768 l 236 768 l 136 50 m 333 874 l 226 999 l 288 999 l 369 917 l 475 999 l 533 999 l 390 874 l 333 874 z "},"Đ":{"ha":604,"x_min":19,"x_max":569,"o":"m 43 0 l 160 821 l 415 821 q 503 806 468 821 q 554 753 539 790 q 560 653 569 717 l 494 179 q 456 69 485 108 q 385 15 428 31 q 288 0 343 0 l 43 0 m 19 374 l 26 429 l 276 429 l 269 374 l 19 374 m 142 50 l 279 50 q 363 76 331 50 q 406 175 396 101 l 472 642 q 457 742 483 715 q 381 768 431 768 l 242 768 l 142 50 z "},"Д":{"ha":761,"x_min":-29,"x_max":679,"o":"m -29 -149 l 1 58 l 68 58 q 124 89 100 61 q 163 179 149 117 q 192 307 176 240 q 222 441 207 374 q 251 576 236 508 q 278 705 265 643 q 301 821 290 767 l 664 821 l 557 58 l 679 58 l 650 -149 l 574 -149 l 594 -14 l 65 -14 l 46 -149 l -29 -149 m 196 58 l 469 58 l 567 757 l 374 757 l 256 192 q 233 118 246 158 q 196 58 221 78 z "},"Δ":{"ha":732,"x_min":39,"x_max":658,"o":"m 39 0 l 340 813 l 433 813 l 658 0 l 39 0 m 154 72 l 550 72 l 372 701 l 154 72 z "},"Ђ":{"ha":617,"x_min":72,"x_max":578,"o":"m 111 0 l 218 757 l 72 757 l 82 821 l 463 821 l 454 757 l 307 757 l 272 519 q 331 567 290 544 q 429 590 371 590 q 526 569 493 590 q 569 509 560 549 q 568 413 578 469 l 544 239 q 513 112 533 160 q 465 40 493 64 q 401 8 436 15 q 324 0 365 0 q 304 2 315 0 q 286 6 293 4 l 293 50 q 306 50 299 50 q 318 50 313 50 q 411 92 379 50 q 456 219 443 135 l 481 407 q 472 501 489 469 q 389 533 456 533 q 306 508 336 533 q 265 458 276 483 l 200 0 l 111 0 z "},"Ѕ":{"ha":519,"x_min":24,"x_max":513,"o":"m 221 -10 q 103 13 149 -10 q 40 87 57 35 q 36 232 24 139 l 43 278 l 132 278 l 125 226 q 124 119 114 157 q 158 65 133 81 q 221 50 183 50 q 307 84 268 50 q 358 206 346 118 q 352 299 367 268 q 303 349 338 331 q 218 390 269 368 q 145 434 176 408 q 100 501 114 460 q 94 607 86 543 q 131 727 104 679 q 206 799 158 775 q 326 822 253 822 q 467 774 422 822 q 500 639 513 726 l 488 549 q 445 549 467 549 q 403 549 424 549 l 413 618 q 398 719 421 685 q 318 753 375 753 q 225 717 257 753 q 182 610 193 682 q 191 526 175 557 q 237 478 207 496 q 306 444 267 460 q 401 395 365 421 q 448 329 436 369 q 450 217 460 289 q 404 83 438 132 q 323 12 371 33 q 221 -10 275 -10 z "},"Џ":{"ha":568,"x_min":39,"x_max":547,"o":"m 186 -137 l 204 0 l 39 0 l 154 821 l 244 821 l 139 63 l 351 63 l 457 821 l 547 821 l 432 0 l 265 0 l 247 -137 l 186 -137 z "},"E":{"ha":476,"x_min":39,"x_max":510,"o":"m 39 0 l 156 821 l 510 821 l 500 758 l 236 758 l 194 464 l 406 464 l 396 394 l 185 394 l 139 63 l 403 63 l 393 0 l 39 0 z "},"É":{"ha":476,"x_min":39,"x_max":510,"o":"m 39 0 l 156 821 l 510 821 l 500 758 l 236 758 l 194 464 l 406 464 l 396 394 l 185 394 l 139 63 l 403 63 l 393 0 l 39 0 m 256 881 l 382 996 l 471 996 l 311 881 l 256 881 z "},"Ě":{"ha":476,"x_min":39,"x_max":510,"o":"m 39 0 l 156 821 l 510 821 l 500 758 l 236 758 l 194 464 l 406 464 l 396 394 l 185 394 l 139 63 l 403 63 l 393 0 l 39 0 m 307 874 l 200 999 l 261 999 l 343 917 l 449 999 l 507 999 l 364 874 l 307 874 z "},"Ê":{"ha":476,"x_min":39,"x_max":510,"o":"m 39 0 l 156 821 l 510 821 l 500 758 l 236 758 l 194 464 l 406 464 l 396 394 l 185 394 l 139 63 l 403 63 l 393 0 l 39 0 m 183 874 l 326 999 l 385 999 l 490 874 l 432 874 l 349 956 l 244 874 l 183 874 z "},"Ế":{"ha":476,"x_min":39,"x_max":597,"o":"m 39 0 l 156 821 l 510 821 l 500 758 l 236 758 l 194 464 l 406 464 l 396 394 l 185 394 l 139 63 l 403 63 l 393 0 l 39 0 m 221 869 l 324 965 l 376 965 l 451 869 l 397 869 l 344 925 l 278 869 l 221 869 m 449 926 l 513 1021 l 596 1021 l 503 926 l 449 926 z "},"Ệ":{"ha":476,"x_min":39,"x_max":510,"o":"m 39 0 l 156 821 l 510 821 l 500 758 l 236 758 l 194 464 l 406 464 l 396 394 l 185 394 l 139 63 l 403 63 l 393 0 l 39 0 m 175 -150 q 142 -137 156 -150 q 129 -104 129 -124 q 142 -74 129 -86 q 175 -61 156 -61 q 207 -74 194 -61 q 219 -104 219 -86 q 207 -137 219 -124 q 175 -150 194 -150 m 183 874 l 326 999 l 385 999 l 490 874 l 432 874 l 349 956 l 244 874 l 183 874 z "},"Ề":{"ha":476,"x_min":39,"x_max":535,"o":"m 39 0 l 156 821 l 510 821 l 500 758 l 236 758 l 194 464 l 406 464 l 396 394 l 185 394 l 139 63 l 403 63 l 393 0 l 39 0 m 221 869 l 324 965 l 376 965 l 451 869 l 397 869 l 344 925 l 278 869 l 221 869 m 481 926 l 407 1021 l 493 1021 l 535 926 l 481 926 z "},"Ể":{"ha":476,"x_min":39,"x_max":569,"o":"m 39 0 l 156 821 l 510 821 l 500 758 l 236 758 l 194 464 l 406 464 l 396 394 l 185 394 l 139 63 l 403 63 l 393 0 l 39 0 m 221 869 l 324 965 l 376 965 l 451 869 l 397 869 l 344 925 l 278 869 l 221 869 m 469 919 l 472 939 q 485 959 475 954 q 506 969 496 964 q 517 988 517 975 l 518 996 q 516 1012 518 1003 q 500 1021 514 1021 q 476 1000 482 1021 l 436 1006 q 460 1042 443 1029 q 508 1054 478 1054 q 556 1038 543 1054 q 568 993 569 1021 l 567 989 q 558 961 565 969 q 542 951 551 953 q 526 945 533 949 q 518 933 519 942 l 518 919 l 469 919 z "},"Ễ":{"ha":476,"x_min":39,"x_max":510,"o":"m 39 0 l 156 821 l 510 821 l 500 758 l 236 758 l 194 464 l 406 464 l 396 394 l 185 394 l 139 63 l 403 63 l 393 0 l 39 0 m 221 869 l 324 965 l 376 965 l 451 869 l 397 869 l 344 925 l 278 869 l 221 869 m 393 988 q 369 992 379 988 q 347 1006 358 997 q 329 1017 339 1011 q 307 1022 319 1022 q 287 1014 296 1022 q 274 989 278 1006 l 244 989 q 270 1044 251 1024 q 314 1065 289 1065 q 340 1059 328 1065 q 363 1046 351 1053 q 382 1035 374 1040 q 400 1031 390 1031 q 422 1039 413 1031 q 436 1063 431 1047 l 467 1063 q 449 1022 461 1039 q 423 997 438 1006 q 393 988 408 988 z "},"Ë":{"ha":476,"x_min":39,"x_max":510,"o":"m 39 0 l 156 821 l 510 821 l 500 758 l 236 758 l 194 464 l 406 464 l 396 394 l 185 394 l 139 63 l 403 63 l 393 0 l 39 0 m 278 889 q 245 902 258 889 q 232 933 232 915 q 245 965 232 953 q 278 976 258 976 q 310 965 297 976 q 322 933 322 953 q 310 902 322 915 q 278 889 297 889 m 413 889 q 380 902 393 889 q 367 933 367 915 q 380 965 367 953 q 413 976 393 976 q 444 965 432 976 q 457 933 457 953 q 444 902 457 915 q 413 889 432 889 z "},"Ė":{"ha":476,"x_min":39,"x_max":510,"o":"m 39 0 l 156 821 l 510 821 l 500 758 l 236 758 l 194 464 l 406 464 l 396 394 l 185 394 l 139 63 l 403 63 l 393 0 l 39 0 m 353 886 q 317 901 332 886 q 300 938 301 917 q 316 973 300 958 q 353 988 332 988 q 390 973 375 988 q 406 938 406 958 q 390 901 406 917 q 353 886 375 886 z "},"Ẹ":{"ha":476,"x_min":39,"x_max":510,"o":"m 39 0 l 156 821 l 510 821 l 500 758 l 236 758 l 194 464 l 406 464 l 396 394 l 185 394 l 139 63 l 403 63 l 393 0 l 39 0 m 175 -150 q 142 -137 156 -150 q 129 -104 129 -124 q 142 -74 129 -86 q 175 -61 156 -61 q 207 -74 194 -61 q 219 -104 219 -86 q 207 -137 219 -124 q 175 -150 194 -150 z "},"Ф":{"ha":664,"x_min":33,"x_max":650,"o":"m 239 -17 l 254 90 l 221 90 q 77 133 121 90 q 47 278 33 176 l 86 550 q 151 683 99 639 q 300 728 203 728 l 343 728 l 357 821 l 444 821 l 431 728 l 469 728 q 608 685 567 728 q 636 546 650 643 l 599 281 q 528 131 585 171 q 369 90 471 90 l 340 90 l 325 -17 l 239 -17 m 239 139 l 260 139 l 336 674 l 314 674 q 219 642 254 674 q 172 540 183 611 l 135 274 q 151 171 125 203 q 239 139 178 139 m 365 139 q 463 168 426 139 q 511 275 500 197 l 549 538 q 531 644 560 615 q 440 674 501 674 l 424 674 l 347 139 l 365 139 z "},"È":{"ha":476,"x_min":39,"x_max":510,"o":"m 39 0 l 156 821 l 510 821 l 500 758 l 236 758 l 194 464 l 406 464 l 396 394 l 185 394 l 139 63 l 403 63 l 393 0 l 39 0 m 336 881 l 197 993 l 288 993 l 396 881 l 336 881 z "},"Ẻ":{"ha":476,"x_min":39,"x_max":510,"o":"m 39 0 l 156 821 l 510 821 l 500 758 l 236 758 l 194 464 l 406 464 l 396 394 l 185 394 l 139 63 l 403 63 l 393 0 l 39 0 m 310 858 l 314 888 q 332 914 317 907 q 363 928 347 921 q 379 957 378 936 l 379 965 q 375 994 381 981 q 347 1007 369 1007 q 308 974 318 1007 l 265 982 q 297 1027 275 1011 q 357 1043 319 1043 q 418 1022 401 1043 q 432 963 435 1000 l 432 958 q 419 920 429 932 q 395 903 408 908 q 372 894 382 899 q 361 878 361 890 l 358 858 l 310 858 z "},"Л":{"ha":607,"x_min":-36,"x_max":586,"o":"m -36 0 l -29 50 q 21 76 -1 50 q 54 153 43 101 l 194 821 l 586 821 l 469 0 l 382 0 l 488 757 l 271 757 l 138 129 q 126 88 133 110 q 107 48 119 67 q 72 15 94 29 q 15 0 50 1 l -36 0 z "},"М":{"ha":738,"x_min":39,"x_max":717,"o":"m 39 0 l 156 821 l 258 821 l 342 153 l 618 821 l 717 821 l 600 0 l 522 0 l 615 664 l 351 0 l 289 0 l 211 664 l 118 0 l 39 0 z "},"Ē":{"ha":476,"x_min":39,"x_max":510,"o":"m 39 0 l 156 821 l 510 821 l 500 758 l 236 758 l 194 464 l 406 464 l 396 394 l 185 394 l 139 63 l 403 63 l 393 0 l 39 0 m 213 904 l 218 951 l 476 951 l 471 904 l 213 904 z "},"Н":{"ha":590,"x_min":39,"x_max":569,"o":"m 39 0 l 156 821 l 243 821 l 192 463 l 432 463 l 483 821 l 569 821 l 453 0 l 367 0 l 422 396 l 182 396 l 126 0 l 39 0 z "},"Ŋ":{"ha":588,"x_min":39,"x_max":568,"o":"m 268 -240 q 242 -240 257 -240 q 214 -239 226 -240 l 222 -176 l 268 -178 q 331 -161 311 -178 q 358 -96 351 -144 l 372 1 l 206 618 l 118 0 l 39 0 l 156 821 l 232 821 l 399 179 l 489 821 l 568 821 l 443 -58 q 417 -167 435 -128 q 364 -224 399 -207 q 268 -240 329 -240 z "},"Ę":{"ha":476,"x_min":39,"x_max":510,"o":"m 39 0 l 156 821 l 510 821 l 500 758 l 236 758 l 194 464 l 406 464 l 396 394 l 185 394 l 139 63 l 403 63 l 393 0 l 39 0 m 321 -174 q 256 -151 281 -174 q 236 -93 231 -128 q 274 -25 242 -54 q 342 15 306 4 l 386 14 q 324 -29 347 -3 q 297 -82 301 -56 q 310 -122 294 -108 q 343 -136 325 -136 q 365 -133 356 -136 q 381 -128 375 -131 l 389 -157 q 363 -168 379 -162 q 321 -174 346 -174 z "},"Р":{"ha":535,"x_min":39,"x_max":557,"o":"m 39 0 l 156 821 l 410 821 q 519 788 481 821 q 546 685 557 756 l 525 533 q 500 445 519 486 q 440 379 481 404 q 326 354 399 354 l 181 354 l 129 0 l 39 0 m 186 406 l 307 406 q 397 440 363 406 q 440 544 431 474 l 454 651 q 441 741 463 713 q 381 769 419 769 l 238 769 l 186 406 z "},"Э":{"ha":560,"x_min":33,"x_max":540,"o":"m 226 -17 q 119 -3 165 -17 q 53 55 74 11 q 46 189 33 99 l 57 268 l 146 268 l 131 161 q 134 82 122 108 q 173 47 146 56 q 233 38 200 38 q 297 47 269 38 q 343 82 324 56 q 369 161 363 108 l 401 378 l 188 378 l 196 439 l 408 439 l 439 650 q 435 729 446 703 q 399 765 424 756 q 338 774 374 774 q 274 765 303 774 q 227 732 246 757 q 200 653 208 707 l 182 522 l 93 522 l 110 647 q 154 764 122 724 q 235 818 186 804 q 344 832 283 832 q 451 818 406 832 q 519 765 497 804 q 529 647 540 725 l 464 189 q 419 56 451 100 q 337 -3 386 11 q 226 -17 288 -17 z "},"С":{"ha":556,"x_min":40,"x_max":544,"o":"m 232 -17 q 126 -3 171 -17 q 61 55 82 11 q 53 188 40 99 l 118 650 q 162 767 129 728 q 244 819 194 806 q 353 832 293 832 q 458 818 414 832 q 524 765 503 804 q 533 650 544 726 l 513 506 l 425 506 l 444 651 q 442 733 454 706 q 405 768 431 760 q 344 776 379 776 q 281 768 308 776 q 234 733 253 760 q 207 651 215 706 l 139 164 q 142 81 132 108 q 179 46 153 54 q 240 38 206 38 q 303 46 275 38 q 351 81 332 54 q 378 164 369 108 l 394 288 l 482 288 l 467 189 q 424 55 456 99 q 343 -3 392 11 q 232 -17 294 -17 z "},"Ð":{"ha":604,"x_min":19,"x_max":569,"o":"m 43 0 l 160 821 l 415 821 q 503 806 468 821 q 554 753 539 790 q 560 653 569 717 l 494 179 q 456 69 485 108 q 385 15 428 31 q 288 0 343 0 l 43 0 m 19 374 l 26 429 l 276 429 l 269 374 l 19 374 m 142 50 l 279 50 q 363 76 331 50 q 406 175 396 101 l 472 642 q 457 742 483 715 q 381 768 431 768 l 242 768 l 142 50 z "},"Ẽ":{"ha":476,"x_min":39,"x_max":510,"o":"m 39 0 l 156 821 l 510 821 l 500 758 l 236 758 l 194 464 l 406 464 l 396 394 l 185 394 l 139 63 l 403 63 l 393 0 l 39 0 m 396 889 q 365 895 378 889 q 335 914 353 901 q 310 930 324 921 q 281 939 297 939 q 251 927 264 939 q 231 890 238 915 l 197 890 q 230 958 206 932 q 288 985 254 985 q 323 976 307 985 q 353 957 339 968 q 378 942 367 949 q 404 936 389 936 q 435 947 422 936 q 454 981 447 957 l 490 981 q 455 914 482 939 q 396 889 428 889 z "},"F":{"ha":465,"x_min":39,"x_max":510,"o":"m 39 0 l 156 821 l 510 821 l 500 758 l 236 758 l 194 464 l 406 464 l 396 394 l 185 394 l 129 0 l 39 0 z "},"G":{"ha":560,"x_min":39,"x_max":543,"o":"m 208 -15 q 118 -2 158 -15 q 58 53 78 11 q 51 178 39 94 l 118 649 q 160 765 129 726 q 241 818 192 804 q 351 832 290 832 q 457 817 413 832 q 522 764 501 803 q 533 649 543 725 l 518 544 l 432 544 l 447 650 q 444 732 456 706 q 406 767 432 758 q 343 776 381 776 q 278 767 307 776 q 231 732 250 758 q 204 650 211 706 l 136 164 q 139 81 128 108 q 177 46 150 54 q 239 38 204 38 q 331 70 292 38 q 379 164 371 103 l 403 335 l 297 335 l 304 389 l 496 389 l 442 0 l 376 0 l 383 79 q 369 60 376 69 q 357 44 363 51 q 297 1 333 17 q 208 -15 261 -15 z "},"Ğ":{"ha":560,"x_min":39,"x_max":543,"o":"m 208 -15 q 118 -2 158 -15 q 58 53 78 11 q 51 178 39 94 l 118 649 q 160 765 129 726 q 241 818 192 804 q 351 832 290 832 q 457 817 413 832 q 522 764 501 803 q 533 649 543 725 l 518 544 l 432 544 l 447 650 q 444 732 456 706 q 406 767 432 758 q 343 776 381 776 q 278 767 307 776 q 231 732 250 758 q 204 650 211 706 l 136 164 q 139 81 128 108 q 177 46 150 54 q 239 38 204 38 q 331 70 292 38 q 379 164 371 103 l 403 335 l 297 335 l 304 389 l 496 389 l 442 0 l 376 0 l 383 79 q 369 60 376 69 q 357 44 363 51 q 297 1 333 17 q 208 -15 261 -15 m 351 872 q 288 885 313 872 q 251 917 263 897 q 235 957 239 936 q 233 996 232 978 l 286 996 q 306 938 285 957 q 360 918 326 918 q 422 937 396 918 q 457 996 447 956 l 508 996 q 485 940 503 968 q 434 892 467 911 q 351 872 401 872 z "},"Ģ":{"ha":560,"x_min":39,"x_max":543,"o":"m 208 -15 q 118 -2 158 -15 q 58 53 78 11 q 51 178 39 94 l 118 649 q 160 765 129 726 q 241 818 192 804 q 351 832 290 832 q 457 817 413 832 q 522 764 501 803 q 533 649 543 725 l 518 544 l 432 544 l 447 650 q 444 732 456 706 q 406 767 432 758 q 343 776 381 776 q 278 767 307 776 q 231 732 250 758 q 204 650 211 706 l 136 164 q 139 81 128 108 q 177 46 150 54 q 239 38 204 38 q 331 70 292 38 q 379 164 371 103 l 403 335 l 297 335 l 304 389 l 496 389 l 442 0 l 376 0 l 383 79 q 369 60 376 69 q 357 44 363 51 q 297 1 333 17 q 208 -15 261 -15 m 147 -217 q 184 -163 171 -186 q 197 -128 197 -140 q 192 -115 197 -119 q 181 -102 186 -110 q 176 -82 175 -94 q 190 -56 176 -68 q 222 -44 203 -44 q 253 -56 242 -44 q 264 -85 265 -67 q 250 -124 263 -100 q 220 -172 238 -147 q 185 -217 203 -197 l 147 -217 z "},"Ġ":{"ha":560,"x_min":39,"x_max":543,"o":"m 208 -15 q 118 -2 158 -15 q 58 53 78 11 q 51 178 39 94 l 118 649 q 160 765 129 726 q 241 818 192 804 q 351 832 290 832 q 457 817 413 832 q 522 764 501 803 q 533 649 543 725 l 518 544 l 432 544 l 447 650 q 444 732 456 706 q 406 767 432 758 q 343 776 381 776 q 278 767 307 776 q 231 732 250 758 q 204 650 211 706 l 136 164 q 139 81 128 108 q 177 46 150 54 q 239 38 204 38 q 331 70 292 38 q 379 164 371 103 l 403 335 l 297 335 l 304 389 l 496 389 l 442 0 l 376 0 l 383 79 q 369 60 376 69 q 357 44 363 51 q 297 1 333 17 q 208 -15 261 -15 m 371 886 q 335 901 350 886 q 318 938 319 917 q 334 973 318 958 q 371 988 350 988 q 408 973 393 988 q 424 938 424 958 q 408 901 424 917 q 371 886 393 886 z "},"Г":{"ha":478,"x_min":39,"x_max":513,"o":"m 39 0 l 156 821 l 513 821 l 503 757 l 236 757 l 129 0 l 39 0 z "},"ẞ":{"ha":1076,"x_min":43,"x_max":1031,"o":"m 722 -10 q 618 13 660 -10 q 560 87 576 35 q 556 232 543 139 q 559 255 557 236 q 563 278 561 274 l 651 278 q 647 252 650 271 q 643 226 644 233 q 642 119 633 157 q 675 65 651 81 q 732 50 699 50 q 825 84 786 50 q 876 206 864 118 q 871 299 886 268 q 822 349 856 331 q 736 390 789 368 q 663 434 694 408 q 618 501 632 460 q 613 607 604 543 q 650 727 624 679 q 724 799 676 775 q 846 822 772 822 q 985 774 940 822 q 1019 639 1031 726 l 1007 549 q 964 549 986 549 q 921 549 942 549 l 931 618 q 917 719 940 685 q 836 753 893 753 q 744 717 775 753 q 701 610 713 682 q 710 524 693 556 q 758 476 726 493 q 824 444 789 458 q 919 395 883 421 q 967 329 954 369 q 968 217 979 289 q 884 40 951 90 q 722 -10 817 -10 m 222 -10 q 118 13 160 -10 q 60 87 76 35 q 56 232 43 139 q 59 255 57 236 q 63 278 61 274 l 151 278 q 148 252 150 271 q 144 226 146 233 q 143 119 135 157 q 176 65 151 81 q 233 50 200 50 q 326 84 286 50 q 376 206 365 118 q 372 299 386 268 q 323 349 357 331 q 238 390 289 368 q 163 434 194 408 q 118 501 132 460 q 113 607 104 543 q 150 727 124 679 q 224 799 176 775 q 346 822 272 822 q 486 774 440 822 q 519 639 532 726 l 507 549 q 465 549 486 549 q 421 549 443 549 l 431 618 q 417 719 442 685 q 338 753 393 753 q 244 717 276 753 q 203 610 213 682 q 210 524 194 556 q 258 476 226 493 q 324 444 289 458 q 419 395 383 421 q 467 329 454 369 q 469 217 481 289 q 384 40 451 90 q 222 -10 317 -10 z "},"Ѓ":{"ha":478,"x_min":39,"x_max":513,"o":"m 39 0 l 156 821 l 513 821 l 503 757 l 236 757 l 129 0 l 39 0 m 265 881 l 392 996 l 481 996 l 321 881 l 265 881 z "},"H":{"ha":590,"x_min":39,"x_max":569,"o":"m 39 0 l 156 821 l 243 821 l 192 463 l 432 463 l 483 821 l 569 821 l 453 0 l 367 0 l 422 396 l 182 396 l 126 0 l 39 0 z "},"Х":{"ha":444,"x_min":-26,"x_max":489,"o":"m -26 0 l 165 418 l 103 821 l 189 821 l 240 475 l 399 821 l 489 821 l 301 417 l 369 0 l 282 0 l 224 346 l 67 0 l -26 0 z "},"Ъ":{"ha":550,"x_min":43,"x_max":503,"o":"m 43 0 l 150 757 l 60 757 l 71 821 l 246 821 l 215 604 l 353 604 q 445 586 411 604 q 491 530 479 568 q 494 431 503 492 l 463 204 q 439 107 454 146 q 399 44 424 68 q 340 10 375 21 q 258 0 306 0 l 43 0 m 138 50 l 250 50 q 321 68 296 50 q 358 122 346 86 q 376 208 371 157 q 391 308 383 256 q 404 410 399 361 q 409 479 411 447 q 387 530 407 511 q 318 549 367 549 l 207 549 q 173 299 192 425 q 138 50 154 172 z "},"Ħ":{"ha":589,"x_min":39,"x_max":593,"o":"m 43 656 l 54 700 l 593 700 l 582 656 l 43 656 m 39 0 l 156 821 l 243 821 l 192 463 l 432 463 l 483 821 l 569 821 l 453 0 l 367 0 l 422 396 l 182 396 l 126 0 l 39 0 z "},"I":{"ha":263,"x_min":39,"x_max":243,"o":"m 39 0 l 156 821 l 243 821 l 126 0 l 39 0 z "},"І":{"ha":263,"x_min":39,"x_max":243,"o":"m 39 0 l 156 821 l 243 821 l 126 0 l 39 0 z "},"Я":{"ha":575,"x_min":-8,"x_max":554,"o":"m 440 0 l 350 0 l 403 379 l 301 379 q 256 364 275 379 q 224 326 238 349 q 199 276 211 303 l 88 0 l -8 0 l 115 282 q 167 370 142 342 q 238 401 192 399 l 239 400 q 129 442 167 403 q 101 551 92 481 l 121 685 q 179 788 132 756 q 296 821 226 821 l 554 821 l 440 0 m 411 439 l 458 769 l 313 769 q 243 746 274 769 q 206 669 213 722 l 190 558 q 206 466 181 493 q 288 439 232 439 l 411 439 z "},"Í":{"ha":263,"x_min":39,"x_max":340,"o":"m 39 0 l 156 821 l 243 821 l 126 0 l 39 0 m 125 881 l 251 996 l 340 996 l 181 881 l 125 881 z "},"Ǐ":{"ha":263,"x_min":39,"x_max":376,"o":"m 39 0 l 156 821 l 243 821 l 126 0 l 39 0 m 176 874 l 69 999 l 131 999 l 213 917 l 318 999 l 376 999 l 233 874 l 176 874 z "},"Î":{"ha":263,"x_min":39,"x_max":360,"o":"m 39 0 l 156 821 l 243 821 l 126 0 l 39 0 m 53 874 l 196 999 l 254 999 l 360 874 l 301 874 l 218 956 l 114 874 l 53 874 z "},"Ï":{"ha":263,"x_min":39,"x_max":326,"o":"m 39 0 l 156 821 l 243 821 l 126 0 l 39 0 m 147 889 q 115 902 128 889 q 101 933 101 915 q 115 965 101 953 q 147 976 128 976 q 179 965 167 976 q 192 933 192 953 q 179 902 192 915 q 147 889 167 889 m 282 889 q 249 902 263 889 q 236 933 236 915 q 249 965 236 953 q 282 976 263 976 q 314 965 301 976 q 326 933 326 953 q 314 902 326 915 q 282 889 301 889 z "},"İ":{"ha":263,"x_min":39,"x_max":276,"o":"m 39 0 l 156 821 l 243 821 l 126 0 l 39 0 m 222 886 q 186 901 201 886 q 169 938 171 917 q 185 973 169 958 q 222 988 201 988 q 260 973 244 988 q 275 938 275 958 q 260 901 275 917 q 222 886 244 886 z "},"Ị":{"ha":263,"x_min":24,"x_max":243,"o":"m 39 0 l 156 821 l 243 821 l 126 0 l 39 0 m 68 -150 q 35 -137 49 -150 q 22 -104 22 -124 q 35 -74 22 -86 q 68 -61 49 -61 q 100 -74 88 -61 q 113 -104 113 -86 q 100 -137 113 -124 q 68 -150 88 -150 z "},"Е":{"ha":476,"x_min":39,"x_max":510,"o":"m 39 0 l 156 821 l 510 821 l 500 758 l 236 758 l 194 464 l 406 464 l 396 394 l 185 394 l 139 63 l 403 63 l 393 0 l 39 0 z "},"Ѐ":{"ha":476,"x_min":39,"x_max":510,"o":"m 39 0 l 156 821 l 510 821 l 500 758 l 236 758 l 194 464 l 406 464 l 396 394 l 185 394 l 139 63 l 403 63 l 393 0 l 39 0 m 339 881 l 200 993 l 290 993 l 399 881 l 339 881 z "},"Ì":{"ha":263,"x_min":39,"x_max":265,"o":"m 39 0 l 156 821 l 243 821 l 126 0 l 39 0 m 206 881 l 67 993 l 157 993 l 265 881 l 206 881 z "},"Ỉ":{"ha":263,"x_min":39,"x_max":306,"o":"m 39 0 l 156 821 l 243 821 l 126 0 l 39 0 m 179 858 l 183 888 q 201 914 186 907 q 232 928 217 921 q 249 957 247 936 l 249 965 q 244 994 250 981 q 217 1007 239 1007 q 178 974 188 1007 l 135 982 q 167 1027 144 1011 q 226 1043 189 1043 q 288 1022 271 1043 q 301 963 304 1000 l 301 958 q 288 920 299 932 q 265 903 278 908 q 241 894 251 899 q 231 878 231 890 l 228 858 l 179 858 z "},"И":{"ha":592,"x_min":39,"x_max":571,"o":"m 39 0 l 156 821 l 235 821 l 144 179 l 492 821 l 571 821 l 454 0 l 375 0 l 463 619 l 119 0 l 39 0 z "},"Ѝ":{"ha":592,"x_min":39,"x_max":571,"o":"m 39 0 l 156 821 l 235 821 l 144 179 l 492 821 l 571 821 l 454 0 l 375 0 l 463 619 l 119 0 l 39 0 m 378 881 l 239 993 l 329 993 l 438 881 l 378 881 z "},"Й":{"ha":592,"x_min":39,"x_max":571,"o":"m 39 0 l 156 821 l 235 821 l 144 179 l 492 821 l 571 821 l 454 0 l 375 0 l 463 619 l 119 0 l 39 0 m 376 872 q 313 885 338 872 q 276 917 288 897 q 260 957 264 936 q 258 996 257 978 l 311 996 q 331 938 310 957 q 385 918 351 918 q 447 937 421 918 q 482 996 472 956 l 533 996 q 510 940 528 968 q 459 892 492 911 q 376 872 426 872 z "},"Ī":{"ha":263,"x_min":39,"x_max":346,"o":"m 39 0 l 156 821 l 243 821 l 126 0 l 39 0 m 82 904 l 88 951 l 346 951 l 340 904 l 82 904 z "},"Ё":{"ha":476,"x_min":39,"x_max":510,"o":"m 39 0 l 156 821 l 510 821 l 500 758 l 236 758 l 194 464 l 406 464 l 396 394 l 185 394 l 139 63 l 403 63 l 393 0 l 39 0 m 281 889 q 248 902 261 889 q 235 933 235 915 q 248 965 235 953 q 281 976 261 976 q 313 965 300 976 q 325 933 325 953 q 313 902 325 915 q 281 889 300 889 m 415 889 q 383 902 396 889 q 369 933 369 915 q 383 965 369 953 q 415 976 396 976 q 447 965 435 976 q 460 933 460 953 q 447 902 460 915 q 415 889 435 889 z "},"Į":{"ha":263,"x_min":-35,"x_max":243,"o":"m 39 0 l 156 821 l 243 821 l 126 0 l 39 0 m 56 -187 q -10 -165 15 -187 q -29 -107 -35 -142 q 8 -39 -24 -68 q 76 1 40 -10 l 121 0 q 59 -43 82 -17 q 32 -96 36 -69 q 44 -136 29 -122 q 78 -150 60 -150 q 100 -147 90 -150 q 115 -142 110 -144 l 124 -171 q 97 -182 114 -176 q 56 -187 81 -187 z "},"Ĩ":{"ha":263,"x_min":39,"x_max":361,"o":"m 39 0 l 156 821 l 243 821 l 126 0 l 39 0 m 267 889 q 236 895 249 889 q 206 914 224 901 q 181 930 194 921 q 151 939 168 939 q 122 927 135 939 q 101 890 108 915 l 68 890 q 101 958 76 932 q 158 985 125 985 q 194 976 178 985 q 224 957 210 968 q 249 942 238 949 q 275 936 260 936 q 306 947 293 936 q 325 981 318 957 l 361 981 q 326 914 353 939 q 267 889 299 889 z "},"Ю":{"ha":861,"x_min":39,"x_max":840,"o":"m 526 -17 q 420 -3 465 -17 q 354 56 375 11 q 346 190 333 100 l 375 396 l 182 396 l 126 0 l 39 0 l 154 821 l 242 821 l 193 463 l 385 463 l 410 647 q 453 766 421 726 q 536 819 486 806 q 647 832 586 832 q 753 818 708 832 q 819 765 797 804 q 828 647 840 725 l 765 190 q 719 55 751 99 q 638 -3 686 11 q 526 -17 589 -17 m 535 38 q 598 46 569 38 q 645 81 626 54 q 671 160 664 107 l 742 654 q 736 733 749 707 q 699 767 724 758 q 639 776 674 776 q 577 767 606 776 q 529 733 549 758 q 501 654 510 707 l 432 160 q 438 81 426 107 q 474 46 449 54 q 535 38 500 38 z "},"J":{"ha":301,"x_min":-40,"x_max":288,"o":"m 15 -1 q -12 -1 3 -1 q -40 0 -28 -1 l -32 63 l 14 63 q 77 78 57 61 q 104 143 97 96 l 200 821 l 288 821 l 197 181 q 170 71 189 111 q 115 15 151 31 q 15 -1 79 -1 z "},"Ј":{"ha":301,"x_min":-40,"x_max":288,"o":"m 15 -1 q -12 -1 3 -1 q -40 0 -28 -1 l -32 63 l 14 63 q 77 78 57 61 q 104 143 97 96 l 200 821 l 288 821 l 197 181 q 170 71 189 111 q 115 15 151 31 q 15 -1 79 -1 z "},"K":{"ha":521,"x_min":39,"x_max":564,"o":"m 357 0 l 206 426 l 468 821 l 564 821 l 293 425 l 454 0 l 357 0 m 39 0 l 156 821 l 243 821 l 126 0 l 39 0 z "},"К":{"ha":540,"x_min":39,"x_max":583,"o":"m 39 0 l 156 821 l 243 821 l 190 449 l 242 449 l 488 821 l 583 821 l 319 425 l 474 0 l 375 0 l 238 386 l 181 386 l 126 0 l 39 0 z "},"Ķ":{"ha":521,"x_min":39,"x_max":564,"o":"m 357 0 l 206 426 l 468 821 l 564 821 l 293 425 l 454 0 l 357 0 m 39 0 l 156 821 l 243 821 l 126 0 l 39 0 m 154 -217 q 191 -163 178 -186 q 204 -128 204 -140 q 199 -115 204 -119 q 188 -102 193 -110 q 183 -82 182 -94 q 197 -56 183 -68 q 229 -44 210 -44 q 260 -56 249 -44 q 271 -85 272 -67 q 257 -124 269 -100 q 227 -172 244 -147 q 192 -217 210 -197 l 154 -217 z "},"Ќ":{"ha":540,"x_min":39,"x_max":583,"o":"m 39 0 l 156 821 l 243 821 l 190 449 l 242 449 l 488 821 l 583 821 l 319 425 l 474 0 l 375 0 l 238 386 l 181 386 l 126 0 l 39 0 m 293 881 l 419 996 l 508 996 l 349 881 l 293 881 z "},"L":{"ha":413,"x_min":39,"x_max":364,"o":"m 39 0 l 156 821 l 242 821 l 135 63 l 364 63 l 354 0 l 39 0 z "},"Ĺ":{"ha":413,"x_min":39,"x_max":382,"o":"m 39 0 l 156 821 l 242 821 l 135 63 l 364 63 l 354 0 l 39 0 m 167 881 l 293 996 l 382 996 l 222 881 l 167 881 z "},"Ľ":{"ha":443,"x_min":39,"x_max":476,"o":"m 39 0 l 156 821 l 242 821 l 135 63 l 364 63 l 354 0 l 39 0 m 368 661 l 419 842 l 476 842 l 404 661 l 368 661 z "},"Ļ":{"ha":413,"x_min":39,"x_max":364,"o":"m 39 0 l 156 821 l 242 821 l 135 63 l 364 63 l 354 0 l 39 0 m 113 -217 q 149 -163 136 -186 q 163 -128 163 -140 q 157 -115 163 -119 q 146 -102 151 -110 q 142 -82 140 -94 q 155 -56 142 -68 q 188 -44 168 -44 q 219 -56 207 -44 q 229 -85 231 -67 q 215 -124 228 -100 q 185 -172 203 -147 q 150 -217 168 -197 l 113 -217 z "},"Љ":{"ha":889,"x_min":-36,"x_max":842,"o":"m -36 0 l -29 50 q 21 76 -1 50 q 54 153 43 101 l 194 821 l 586 821 l 469 0 l 382 0 l 488 757 l 271 757 l 138 129 q 126 88 133 110 q 107 48 119 67 q 72 15 94 29 q 15 0 50 1 l -36 0 m 478 50 l 590 50 q 660 68 636 50 q 697 122 685 86 q 717 208 710 157 q 731 308 724 256 q 744 410 739 361 q 749 479 751 447 q 726 530 746 511 q 658 549 707 549 l 546 549 q 513 299 531 425 q 478 50 494 172 m 382 0 l 497 819 l 583 819 l 554 604 l 692 604 q 784 586 750 604 q 830 530 818 568 q 832 431 842 492 l 800 204 q 776 107 792 146 q 737 44 761 68 q 678 10 713 21 q 597 0 643 0 l 382 0 z "},"Ł":{"ha":510,"x_min":25,"x_max":406,"o":"m 81 0 l 115 238 l 25 200 l 32 249 l 122 286 l 196 818 l 283 818 l 214 324 l 354 386 l 349 339 l 207 276 l 176 63 l 406 63 l 396 0 l 81 0 z "},"M":{"ha":738,"x_min":39,"x_max":717,"o":"m 39 0 l 156 821 l 258 821 l 342 153 l 618 821 l 717 821 l 600 0 l 522 0 l 615 664 l 351 0 l 289 0 l 211 664 l 118 0 l 39 0 z "},"N":{"ha":588,"x_min":39,"x_max":568,"o":"m 39 0 l 156 821 l 232 821 l 399 179 l 489 821 l 568 821 l 451 0 l 372 0 l 206 618 l 118 0 l 39 0 z "},"Ń":{"ha":588,"x_min":39,"x_max":568,"o":"m 39 0 l 156 821 l 232 821 l 399 179 l 489 821 l 568 821 l 451 0 l 372 0 l 206 618 l 118 0 l 39 0 m 288 881 l 414 996 l 503 996 l 343 881 l 288 881 z "},"Ň":{"ha":588,"x_min":39,"x_max":568,"o":"m 39 0 l 156 821 l 232 821 l 399 179 l 489 821 l 568 821 l 451 0 l 372 0 l 206 618 l 118 0 l 39 0 m 339 874 l 232 999 l 293 999 l 375 917 l 481 999 l 539 999 l 396 874 l 339 874 z "},"Ņ":{"ha":588,"x_min":39,"x_max":568,"o":"m 39 0 l 156 821 l 232 821 l 399 179 l 489 821 l 568 821 l 451 0 l 372 0 l 206 618 l 118 0 l 39 0 m 161 -217 q 198 -163 185 -186 q 211 -128 211 -140 q 206 -115 211 -119 q 194 -102 200 -110 q 190 -82 189 -94 q 203 -56 190 -68 q 236 -44 217 -44 q 267 -56 256 -44 q 278 -85 279 -67 q 264 -124 276 -100 q 234 -172 251 -147 q 199 -217 217 -197 l 161 -217 z "},"Њ":{"ha":864,"x_min":39,"x_max":829,"o":"m 39 0 l 156 821 l 243 821 l 192 461 l 432 461 l 485 821 l 572 821 l 542 604 l 679 604 q 772 586 738 604 q 817 530 806 568 q 819 431 829 492 l 788 204 q 764 107 779 146 q 724 44 749 68 q 665 10 700 21 q 585 0 631 0 l 368 0 l 424 394 l 182 394 l 126 0 l 39 0 m 464 50 l 576 50 q 646 68 621 50 q 683 122 671 86 q 701 206 696 157 l 729 396 q 734 477 736 443 q 712 530 732 511 q 643 549 692 549 l 532 549 l 464 50 z "},"Ñ":{"ha":588,"x_min":39,"x_max":568,"o":"m 39 0 l 156 821 l 232 821 l 399 179 l 489 821 l 568 821 l 451 0 l 372 0 l 206 618 l 118 0 l 39 0 m 431 903 q 400 909 413 903 q 369 928 388 915 q 345 944 358 935 q 315 953 332 953 q 285 941 299 953 q 265 904 272 929 l 232 904 q 265 972 240 946 q 322 999 289 999 q 358 990 342 999 q 388 971 374 982 q 413 956 401 963 q 439 950 424 950 q 469 960 457 950 q 489 994 482 971 l 525 994 q 490 928 517 953 q 431 903 463 903 z "},"O":{"ha":568,"x_min":40,"x_max":547,"o":"m 232 -17 q 126 -3 171 -17 q 60 55 81 11 q 53 188 40 99 l 118 650 q 162 767 129 728 q 244 819 194 806 q 353 832 293 832 q 459 818 414 832 q 526 765 504 804 q 538 650 547 726 l 472 189 q 426 55 460 99 q 344 -3 393 11 q 232 -17 294 -17 m 240 38 q 304 46 275 38 q 353 81 333 54 q 382 164 374 108 l 449 650 q 444 732 457 706 q 406 767 432 758 q 344 776 379 776 q 279 767 308 776 q 231 732 250 758 q 203 650 211 706 l 135 164 q 140 81 128 108 q 179 46 153 54 q 240 38 206 38 z "},"О":{"ha":568,"x_min":40,"x_max":547,"o":"m 232 -17 q 126 -3 171 -17 q 60 55 81 11 q 53 188 40 99 l 118 650 q 162 767 129 728 q 244 819 194 806 q 353 832 293 832 q 459 818 414 832 q 526 765 504 804 q 538 650 547 726 l 472 189 q 426 55 460 99 q 344 -3 393 11 q 232 -17 294 -17 m 240 38 q 304 46 275 38 q 353 81 333 54 q 382 164 374 108 l 449 650 q 444 732 457 706 q 406 767 432 758 q 344 776 379 776 q 279 767 308 776 q 231 732 250 758 q 203 650 211 706 l 135 164 q 140 81 128 108 q 179 46 153 54 q 240 38 206 38 z "},"Œ":{"ha":800,"x_min":40,"x_max":833,"o":"m 229 -17 q 125 -3 169 -17 q 60 55 81 11 q 53 188 40 99 l 117 650 q 160 767 128 728 q 242 819 193 806 q 351 832 292 832 q 453 818 410 832 q 516 765 496 804 q 525 650 536 726 l 460 189 q 415 55 447 99 q 336 -3 383 11 q 229 -17 289 -17 m 238 38 q 303 47 274 38 q 351 83 332 56 q 378 164 369 110 l 444 650 q 442 731 454 704 q 403 767 429 758 q 342 776 378 776 q 278 767 307 776 q 230 731 249 758 q 203 650 211 704 l 135 164 q 139 83 128 110 q 176 47 150 56 q 238 38 203 38 m 354 0 l 469 821 l 833 821 l 824 758 l 549 758 l 507 464 l 729 464 l 719 394 l 496 394 l 450 63 l 725 63 l 718 0 l 354 0 z "},"Ó":{"ha":568,"x_min":40,"x_max":547,"o":"m 232 -17 q 126 -3 171 -17 q 60 55 81 11 q 53 188 40 99 l 118 650 q 162 767 129 728 q 244 819 194 806 q 353 832 293 832 q 459 818 414 832 q 526 765 504 804 q 538 650 547 726 l 472 189 q 426 55 460 99 q 344 -3 393 11 q 232 -17 294 -17 m 240 38 q 304 46 275 38 q 353 81 333 54 q 382 164 374 108 l 449 650 q 444 732 457 706 q 406 767 432 758 q 344 776 379 776 q 279 767 308 776 q 231 732 250 758 q 203 650 211 706 l 135 164 q 140 81 128 108 q 179 46 153 54 q 240 38 206 38 m 276 881 l 403 996 l 492 996 l 332 881 l 276 881 z "},"Ǒ":{"ha":568,"x_min":40,"x_max":547,"o":"m 232 -17 q 126 -3 171 -17 q 60 55 81 11 q 53 188 40 99 l 118 650 q 162 767 129 728 q 244 819 194 806 q 353 832 293 832 q 459 818 414 832 q 526 765 504 804 q 538 650 547 726 l 472 189 q 426 55 460 99 q 344 -3 393 11 q 232 -17 294 -17 m 240 38 q 304 46 275 38 q 353 81 333 54 q 382 164 374 108 l 449 650 q 444 732 457 706 q 406 767 432 758 q 344 776 379 776 q 279 767 308 776 q 231 732 250 758 q 203 650 211 706 l 135 164 q 140 81 128 108 q 179 46 153 54 q 240 38 206 38 m 329 874 l 222 999 l 283 999 l 365 917 l 471 999 l 529 999 l 386 874 l 329 874 z "},"Ô":{"ha":568,"x_min":40,"x_max":547,"o":"m 232 -17 q 126 -3 171 -17 q 60 55 81 11 q 53 188 40 99 l 118 650 q 162 767 129 728 q 244 819 194 806 q 353 832 293 832 q 459 818 414 832 q 526 765 504 804 q 538 650 547 726 l 472 189 q 426 55 460 99 q 344 -3 393 11 q 232 -17 294 -17 m 240 38 q 304 46 275 38 q 353 81 333 54 q 382 164 374 108 l 449 650 q 444 732 457 706 q 406 767 432 758 q 344 776 379 776 q 279 767 308 776 q 231 732 250 758 q 203 650 211 706 l 135 164 q 140 81 128 108 q 179 46 153 54 q 240 38 206 38 m 204 874 l 347 999 l 406 999 l 511 874 l 453 874 l 369 956 l 265 874 l 204 874 z "},"Ố":{"ha":568,"x_min":40,"x_max":618,"o":"m 232 -17 q 126 -3 171 -17 q 60 55 81 11 q 53 188 40 99 l 118 650 q 162 767 129 728 q 244 819 194 806 q 353 832 293 832 q 459 818 414 832 q 526 765 504 804 q 538 650 547 726 l 472 189 q 426 55 460 99 q 344 -3 393 11 q 232 -17 294 -17 m 240 38 q 304 46 275 38 q 353 81 333 54 q 382 164 374 108 l 449 650 q 444 732 457 706 q 406 767 432 758 q 344 776 379 776 q 279 767 308 776 q 231 732 250 758 q 203 650 211 706 l 135 164 q 140 81 128 108 q 179 46 153 54 q 240 38 206 38 m 243 869 l 346 965 l 399 965 l 474 869 l 419 869 l 367 925 l 300 869 l 243 869 m 471 926 l 535 1021 l 618 1021 l 525 926 l 471 926 z "},"Ộ":{"ha":568,"x_min":40,"x_max":547,"o":"m 232 -17 q 126 -3 171 -17 q 60 55 81 11 q 53 188 40 99 l 118 650 q 162 767 129 728 q 244 819 194 806 q 353 832 293 832 q 459 818 414 832 q 526 765 504 804 q 538 650 547 726 l 472 189 q 426 55 460 99 q 344 -3 393 11 q 232 -17 294 -17 m 240 38 q 304 46 275 38 q 353 81 333 54 q 382 164 374 108 l 449 650 q 444 732 457 706 q 406 767 432 758 q 344 776 379 776 q 279 767 308 776 q 231 732 250 758 q 203 650 211 706 l 135 164 q 140 81 128 108 q 179 46 153 54 q 240 38 206 38 m 221 -150 q 188 -137 201 -150 q 175 -104 175 -124 q 188 -74 175 -86 q 221 -61 201 -61 q 253 -74 240 -61 q 265 -104 265 -86 q 253 -137 265 -124 q 221 -150 240 -150 m 204 874 l 347 999 l 406 999 l 511 874 l 453 874 l 369 956 l 265 874 l 204 874 z "},"Ồ":{"ha":568,"x_min":40,"x_max":557,"o":"m 232 -17 q 126 -3 171 -17 q 60 55 81 11 q 53 188 40 99 l 118 650 q 162 767 129 728 q 244 819 194 806 q 353 832 293 832 q 459 818 414 832 q 526 765 504 804 q 538 650 547 726 l 472 189 q 426 55 460 99 q 344 -3 393 11 q 232 -17 294 -17 m 240 38 q 304 46 275 38 q 353 81 333 54 q 382 164 374 108 l 449 650 q 444 732 457 706 q 406 767 432 758 q 344 776 379 776 q 279 767 308 776 q 231 732 250 758 q 203 650 211 706 l 135 164 q 140 81 128 108 q 179 46 153 54 q 240 38 206 38 m 243 869 l 346 965 l 399 965 l 474 869 l 419 869 l 367 925 l 300 869 l 243 869 m 503 926 l 429 1021 l 515 1021 l 557 926 l 503 926 z "},"Ổ":{"ha":568,"x_min":40,"x_max":592,"o":"m 232 -17 q 126 -3 171 -17 q 60 55 81 11 q 53 188 40 99 l 118 650 q 162 767 129 728 q 244 819 194 806 q 353 832 293 832 q 459 818 414 832 q 526 765 504 804 q 538 650 547 726 l 472 189 q 426 55 460 99 q 344 -3 393 11 q 232 -17 294 -17 m 240 38 q 304 46 275 38 q 353 81 333 54 q 382 164 374 108 l 449 650 q 444 732 457 706 q 406 767 432 758 q 344 776 379 776 q 279 767 308 776 q 231 732 250 758 q 203 650 211 706 l 135 164 q 140 81 128 108 q 179 46 153 54 q 240 38 206 38 m 243 869 l 346 965 l 399 965 l 474 869 l 419 869 l 367 925 l 300 869 l 243 869 m 492 919 l 494 939 q 508 959 497 954 q 528 969 518 964 q 539 988 539 975 l 540 996 q 538 1012 540 1003 q 522 1021 536 1021 q 499 1000 504 1021 l 458 1006 q 483 1042 465 1029 q 531 1054 500 1054 q 578 1038 565 1054 q 590 993 592 1021 l 589 989 q 581 961 588 969 q 565 951 574 953 q 549 945 556 949 q 540 933 542 942 l 540 919 l 492 919 z "},"Ỗ":{"ha":568,"x_min":40,"x_max":547,"o":"m 232 -17 q 126 -3 171 -17 q 60 55 81 11 q 53 188 40 99 l 118 650 q 162 767 129 728 q 244 819 194 806 q 353 832 293 832 q 459 818 414 832 q 526 765 504 804 q 538 650 547 726 l 472 189 q 426 55 460 99 q 344 -3 393 11 q 232 -17 294 -17 m 240 38 q 304 46 275 38 q 353 81 333 54 q 382 164 374 108 l 449 650 q 444 732 457 706 q 406 767 432 758 q 344 776 379 776 q 279 767 308 776 q 231 732 250 758 q 203 650 211 706 l 135 164 q 140 81 128 108 q 179 46 153 54 q 240 38 206 38 m 243 869 l 346 965 l 399 965 l 474 869 l 419 869 l 367 925 l 300 869 l 243 869 m 415 988 q 391 992 401 988 q 369 1006 381 997 q 351 1017 361 1011 q 329 1022 342 1022 q 309 1014 318 1022 q 296 989 300 1006 l 267 989 q 292 1044 274 1024 q 336 1065 311 1065 q 362 1059 350 1065 q 385 1046 374 1053 q 404 1035 396 1040 q 422 1031 413 1031 q 444 1039 435 1031 q 458 1063 453 1047 l 489 1063 q 472 1022 483 1039 q 445 997 460 1006 q 415 988 431 988 z "},"Ö":{"ha":568,"x_min":40,"x_max":547,"o":"m 232 -17 q 126 -3 171 -17 q 60 55 81 11 q 53 188 40 99 l 118 650 q 162 767 129 728 q 244 819 194 806 q 353 832 293 832 q 459 818 414 832 q 526 765 504 804 q 538 650 547 726 l 472 189 q 426 55 460 99 q 344 -3 393 11 q 232 -17 294 -17 m 240 38 q 304 46 275 38 q 353 81 333 54 q 382 164 374 108 l 449 650 q 444 732 457 706 q 406 767 432 758 q 344 776 379 776 q 279 767 308 776 q 231 732 250 758 q 203 650 211 706 l 135 164 q 140 81 128 108 q 179 46 153 54 q 240 38 206 38 m 300 889 q 267 902 281 889 q 254 933 254 915 q 267 965 254 953 q 300 976 281 976 q 332 965 319 976 q 344 933 344 953 q 332 902 344 915 q 300 889 319 889 m 435 889 q 402 902 415 889 q 389 933 389 915 q 402 965 389 953 q 435 976 415 976 q 467 965 454 976 q 479 933 479 953 q 467 902 479 915 q 435 889 454 889 z "},"Ọ":{"ha":568,"x_min":40,"x_max":547,"o":"m 232 -17 q 126 -3 171 -17 q 60 55 81 11 q 53 188 40 99 l 118 650 q 162 767 129 728 q 244 819 194 806 q 353 832 293 832 q 459 818 414 832 q 526 765 504 804 q 538 650 547 726 l 472 189 q 426 55 460 99 q 344 -3 393 11 q 232 -17 294 -17 m 240 38 q 304 46 275 38 q 353 81 333 54 q 382 164 374 108 l 449 650 q 444 732 457 706 q 406 767 432 758 q 344 776 379 776 q 279 767 308 776 q 231 732 250 758 q 203 650 211 706 l 135 164 q 140 81 128 108 q 179 46 153 54 q 240 38 206 38 m 221 -150 q 188 -137 201 -150 q 175 -104 175 -124 q 188 -74 175 -86 q 221 -61 201 -61 q 253 -74 240 -61 q 265 -104 265 -86 q 253 -137 265 -124 q 221 -150 240 -150 z "},"Ò":{"ha":568,"x_min":40,"x_max":547,"o":"m 232 -17 q 126 -3 171 -17 q 60 55 81 11 q 53 188 40 99 l 118 650 q 162 767 129 728 q 244 819 194 806 q 353 832 293 832 q 459 818 414 832 q 526 765 504 804 q 538 650 547 726 l 472 189 q 426 55 460 99 q 344 -3 393 11 q 232 -17 294 -17 m 240 38 q 304 46 275 38 q 353 81 333 54 q 382 164 374 108 l 449 650 q 444 732 457 706 q 406 767 432 758 q 344 776 379 776 q 279 767 308 776 q 231 732 250 758 q 203 650 211 706 l 135 164 q 140 81 128 108 q 179 46 153 54 q 240 38 206 38 m 358 881 l 219 993 l 310 993 l 418 881 l 358 881 z "},"Ỏ":{"ha":568,"x_min":40,"x_max":547,"o":"m 232 -17 q 126 -3 171 -17 q 60 55 81 11 q 53 188 40 99 l 118 650 q 162 767 129 728 q 244 819 194 806 q 353 832 293 832 q 459 818 414 832 q 526 765 504 804 q 538 650 547 726 l 472 189 q 426 55 460 99 q 344 -3 393 11 q 232 -17 294 -17 m 240 38 q 304 46 275 38 q 353 81 333 54 q 382 164 374 108 l 449 650 q 444 732 457 706 q 406 767 432 758 q 344 776 379 776 q 279 767 308 776 q 231 732 250 758 q 203 650 211 706 l 135 164 q 140 81 128 108 q 179 46 153 54 q 240 38 206 38 m 332 858 l 336 888 q 354 914 339 907 q 385 928 369 921 q 401 957 400 936 l 401 965 q 397 994 403 981 q 369 1007 392 1007 q 331 974 340 1007 l 288 982 q 319 1027 297 1011 q 379 1043 342 1043 q 440 1022 424 1043 q 454 963 457 1000 l 454 958 q 441 920 451 932 q 417 903 431 908 q 394 894 404 899 q 383 878 383 890 l 381 858 l 332 858 z "},"Ơ":{"ha":568,"x_min":40,"x_max":588,"o":"m 232 -17 q 126 -3 171 -17 q 60 55 81 11 q 53 188 40 99 l 118 650 q 162 767 129 728 q 244 819 194 806 q 353 832 293 832 q 459 818 414 832 q 526 765 504 804 q 538 650 547 726 l 472 189 q 426 55 460 99 q 344 -3 393 11 q 232 -17 294 -17 m 240 38 q 304 46 275 38 q 353 81 333 54 q 382 164 374 108 l 449 650 q 444 732 457 706 q 406 767 432 758 q 344 776 379 776 q 279 767 308 776 q 231 732 250 758 q 203 650 211 706 l 135 164 q 140 81 128 108 q 179 46 153 54 q 240 38 206 38 m 429 778 l 431 821 l 449 821 q 524 883 515 821 l 526 907 l 588 907 l 586 889 q 538 805 578 833 q 429 778 497 776 z "},"Ớ":{"ha":568,"x_min":40,"x_max":588,"o":"m 232 -17 q 126 -3 171 -17 q 60 55 81 11 q 53 188 40 99 l 118 650 q 162 767 129 728 q 244 819 194 806 q 353 832 293 832 q 459 818 414 832 q 526 765 504 804 q 538 650 547 726 l 472 189 q 426 55 460 99 q 344 -3 393 11 q 232 -17 294 -17 m 240 38 q 304 46 275 38 q 353 81 333 54 q 382 164 374 108 l 449 650 q 444 732 457 706 q 406 767 432 758 q 344 776 379 776 q 279 767 308 776 q 231 732 250 758 q 203 650 211 706 l 135 164 q 140 81 128 108 q 179 46 153 54 q 240 38 206 38 m 429 778 l 431 821 l 449 821 q 524 883 515 821 l 526 907 l 588 907 l 586 889 q 538 805 578 833 q 429 778 497 776 m 276 881 l 403 996 l 492 996 l 332 881 l 276 881 z "},"Ợ":{"ha":568,"x_min":40,"x_max":588,"o":"m 232 -17 q 126 -3 171 -17 q 60 55 81 11 q 53 188 40 99 l 118 650 q 162 767 129 728 q 244 819 194 806 q 353 832 293 832 q 459 818 414 832 q 526 765 504 804 q 538 650 547 726 l 472 189 q 426 55 460 99 q 344 -3 393 11 q 232 -17 294 -17 m 240 38 q 304 46 275 38 q 353 81 333 54 q 382 164 374 108 l 449 650 q 444 732 457 706 q 406 767 432 758 q 344 776 379 776 q 279 767 308 776 q 231 732 250 758 q 203 650 211 706 l 135 164 q 140 81 128 108 q 179 46 153 54 q 240 38 206 38 m 429 778 l 431 821 l 449 821 q 524 883 515 821 l 526 907 l 588 907 l 586 889 q 538 805 578 833 q 429 778 497 776 m 221 -150 q 188 -137 201 -150 q 175 -104 175 -124 q 188 -74 175 -86 q 221 -61 201 -61 q 253 -74 240 -61 q 265 -104 265 -86 q 253 -137 265 -124 q 221 -150 240 -150 z "},"Ờ":{"ha":568,"x_min":40,"x_max":588,"o":"m 232 -17 q 126 -3 171 -17 q 60 55 81 11 q 53 188 40 99 l 118 650 q 162 767 129 728 q 244 819 194 806 q 353 832 293 832 q 459 818 414 832 q 526 765 504 804 q 538 650 547 726 l 472 189 q 426 55 460 99 q 344 -3 393 11 q 232 -17 294 -17 m 240 38 q 304 46 275 38 q 353 81 333 54 q 382 164 374 108 l 449 650 q 444 732 457 706 q 406 767 432 758 q 344 776 379 776 q 279 767 308 776 q 231 732 250 758 q 203 650 211 706 l 135 164 q 140 81 128 108 q 179 46 153 54 q 240 38 206 38 m 429 778 l 431 821 l 449 821 q 524 883 515 821 l 526 907 l 588 907 l 586 889 q 538 805 578 833 q 429 778 497 776 m 358 881 l 219 993 l 310 993 l 418 881 l 358 881 z "},"Ở":{"ha":568,"x_min":40,"x_max":588,"o":"m 232 -17 q 126 -3 171 -17 q 60 55 81 11 q 53 188 40 99 l 118 650 q 162 767 129 728 q 244 819 194 806 q 353 832 293 832 q 459 818 414 832 q 526 765 504 804 q 538 650 547 726 l 472 189 q 426 55 460 99 q 344 -3 393 11 q 232 -17 294 -17 m 240 38 q 304 46 275 38 q 353 81 333 54 q 382 164 374 108 l 449 650 q 444 732 457 706 q 406 767 432 758 q 344 776 379 776 q 279 767 308 776 q 231 732 250 758 q 203 650 211 706 l 135 164 q 140 81 128 108 q 179 46 153 54 q 240 38 206 38 m 429 778 l 431 821 l 449 821 q 524 883 515 821 l 526 907 l 588 907 l 586 889 q 538 805 578 833 q 429 778 497 776 m 332 858 l 336 888 q 354 914 339 907 q 385 928 369 921 q 401 957 400 936 l 401 965 q 397 994 403 981 q 369 1007 392 1007 q 331 974 340 1007 l 288 982 q 319 1027 297 1011 q 379 1043 342 1043 q 440 1022 424 1043 q 454 963 457 1000 l 454 958 q 441 920 451 932 q 417 903 431 908 q 394 894 404 899 q 383 878 383 890 l 381 858 l 332 858 z "},"Ỡ":{"ha":568,"x_min":40,"x_max":588,"o":"m 232 -17 q 126 -3 171 -17 q 60 55 81 11 q 53 188 40 99 l 118 650 q 162 767 129 728 q 244 819 194 806 q 353 832 293 832 q 459 818 414 832 q 526 765 504 804 q 538 650 547 726 l 472 189 q 426 55 460 99 q 344 -3 393 11 q 232 -17 294 -17 m 240 38 q 304 46 275 38 q 353 81 333 54 q 382 164 374 108 l 449 650 q 444 732 457 706 q 406 767 432 758 q 344 776 379 776 q 279 767 308 776 q 231 732 250 758 q 203 650 211 706 l 135 164 q 140 81 128 108 q 179 46 153 54 q 240 38 206 38 m 429 778 l 431 821 l 449 821 q 524 883 515 821 l 526 907 l 588 907 l 586 889 q 538 805 578 833 q 429 778 497 776 m 418 889 q 388 895 400 889 q 357 914 375 901 q 333 930 346 921 q 303 939 319 939 q 273 927 286 939 q 253 890 260 915 l 219 890 q 252 958 228 932 q 310 985 276 985 q 345 976 329 985 q 375 957 361 968 q 400 942 389 949 q 426 936 411 936 q 457 947 444 936 q 476 981 469 957 l 513 981 q 477 914 504 939 q 418 889 450 889 z "},"Ő":{"ha":568,"x_min":40,"x_max":547,"o":"m 232 -17 q 126 -3 171 -17 q 60 55 81 11 q 53 188 40 99 l 118 650 q 162 767 129 728 q 244 819 194 806 q 353 832 293 832 q 459 818 414 832 q 526 765 504 804 q 538 650 547 726 l 472 189 q 426 55 460 99 q 344 -3 393 11 q 232 -17 294 -17 m 240 38 q 304 46 275 38 q 353 81 333 54 q 382 164 374 108 l 449 650 q 444 732 457 706 q 406 767 432 758 q 344 776 379 776 q 279 767 308 776 q 231 732 250 758 q 203 650 211 706 l 135 164 q 140 81 128 108 q 179 46 153 54 q 240 38 206 38 m 282 874 l 336 1001 l 413 1001 l 321 874 l 282 874 m 381 874 l 443 1001 l 518 1001 l 424 874 l 381 874 z "},"Ō":{"ha":568,"x_min":40,"x_max":547,"o":"m 232 -17 q 126 -3 171 -17 q 60 55 81 11 q 53 188 40 99 l 118 650 q 162 767 129 728 q 244 819 194 806 q 353 832 293 832 q 459 818 414 832 q 526 765 504 804 q 538 650 547 726 l 472 189 q 426 55 460 99 q 344 -3 393 11 q 232 -17 294 -17 m 240 38 q 304 46 275 38 q 353 81 333 54 q 382 164 374 108 l 449 650 q 444 732 457 706 q 406 767 432 758 q 344 776 379 776 q 279 767 308 776 q 231 732 250 758 q 203 650 211 706 l 135 164 q 140 81 128 108 q 179 46 153 54 q 240 38 206 38 m 235 904 l 240 951 l 499 951 l 493 904 l 235 904 z "},"Ω":{"ha":833,"x_min":46,"x_max":778,"o":"m 46 0 l 53 69 l 281 64 l 267 72 q 157 193 196 131 q 104 317 118 256 q 94 429 90 378 q 120 574 97 508 q 187 685 143 639 q 295 758 231 732 q 444 783 360 783 q 590 758 529 783 q 690 685 650 732 q 747 575 729 639 q 763 435 765 511 q 740 319 760 381 q 679 195 721 258 q 565 72 638 132 l 550 64 l 778 69 l 771 0 l 457 0 l 463 50 q 566 146 526 97 q 628 243 606 194 q 661 337 651 292 q 672 422 671 382 q 651 581 676 511 q 572 689 625 650 q 438 728 519 728 q 301 688 357 728 q 213 577 244 649 q 178 410 182 506 q 183 333 176 376 q 208 240 189 289 q 266 143 228 192 q 364 50 304 94 l 358 0 l 46 0 z "},"Ø":{"ha":586,"x_min":-12,"x_max":578,"o":"m -12 -19 l 528 821 l 578 821 l 38 -19 l -12 -19 m 233 -17 q 127 -3 172 -17 q 62 55 82 11 q 54 188 42 99 l 118 650 q 162 767 129 728 q 244 819 194 806 q 354 832 294 832 q 460 818 415 832 q 524 765 504 804 q 535 650 544 726 l 468 189 q 424 55 456 99 q 344 -3 392 11 q 233 -17 296 -17 m 240 38 q 305 46 276 38 q 352 81 333 54 q 378 164 371 108 l 446 650 q 444 732 456 706 q 406 767 432 758 q 346 776 381 776 q 282 767 310 776 q 235 732 254 758 q 208 650 217 706 l 140 164 q 144 81 133 108 q 181 46 154 54 q 240 38 207 38 z "},"Õ":{"ha":568,"x_min":40,"x_max":547,"o":"m 232 -17 q 126 -3 171 -17 q 60 55 81 11 q 53 188 40 99 l 118 650 q 162 767 129 728 q 244 819 194 806 q 353 832 293 832 q 459 818 414 832 q 526 765 504 804 q 538 650 547 726 l 472 189 q 426 55 460 99 q 344 -3 393 11 q 232 -17 294 -17 m 240 38 q 304 46 275 38 q 353 81 333 54 q 382 164 374 108 l 449 650 q 444 732 457 706 q 406 767 432 758 q 344 776 379 776 q 279 767 308 776 q 231 732 250 758 q 203 650 211 706 l 135 164 q 140 81 128 108 q 179 46 153 54 q 240 38 206 38 m 418 889 q 388 895 400 889 q 357 914 375 901 q 333 930 346 921 q 303 939 319 939 q 273 927 286 939 q 253 890 260 915 l 219 890 q 252 958 228 932 q 310 985 276 985 q 345 976 329 985 q 375 957 361 968 q 400 942 389 949 q 426 936 411 936 q 457 947 444 936 q 476 981 469 957 l 513 981 q 477 914 504 939 q 418 889 450 889 z "},"P":{"ha":535,"x_min":39,"x_max":557,"o":"m 39 0 l 156 821 l 410 821 q 519 788 481 821 q 546 685 557 756 l 525 533 q 500 445 519 486 q 440 379 481 404 q 326 354 399 354 l 181 354 l 129 0 l 39 0 m 186 406 l 307 406 q 397 440 363 406 q 440 544 431 474 l 454 651 q 441 741 463 713 q 381 769 419 769 l 238 769 l 186 406 z "},"П":{"ha":578,"x_min":39,"x_max":557,"o":"m 39 0 l 156 821 l 557 821 l 440 0 l 349 0 l 456 757 l 238 757 l 131 0 l 39 0 z "},"Q":{"ha":568,"x_min":40,"x_max":547,"o":"m 350 -162 l 283 -12 q 258 -14 271 -12 q 231 -15 246 -15 q 126 -1 171 -15 q 61 56 82 13 q 53 189 40 100 l 118 650 q 162 767 129 728 q 244 819 194 806 q 354 832 294 832 q 461 818 417 832 q 526 765 506 804 q 536 650 547 726 l 472 190 q 431 65 461 107 q 358 7 401 24 l 418 -125 l 350 -162 m 242 39 q 307 48 279 39 q 354 84 335 57 q 381 165 374 111 l 449 650 q 445 732 457 706 q 408 767 433 758 q 346 776 382 776 q 281 767 310 776 q 234 732 253 758 q 207 650 215 706 l 139 165 q 143 84 132 111 q 181 48 154 57 q 242 39 207 39 z "},"R":{"ha":575,"x_min":39,"x_max":560,"o":"m 39 0 l 156 821 l 414 821 q 522 788 483 821 q 550 685 560 756 l 531 551 q 473 442 521 481 q 351 400 425 403 l 353 401 q 415 370 399 399 q 442 282 432 342 l 486 0 l 392 0 l 357 276 q 346 326 353 303 q 324 364 339 349 q 283 379 310 379 l 183 379 l 129 0 l 39 0 m 190 439 l 314 439 q 403 466 371 439 q 446 558 436 493 l 461 669 q 444 746 468 722 q 382 769 421 769 l 236 769 l 190 439 z "},"Ŕ":{"ha":575,"x_min":39,"x_max":560,"o":"m 39 0 l 156 821 l 414 821 q 522 788 483 821 q 550 685 560 756 l 531 551 q 473 442 521 481 q 351 400 425 403 l 353 401 q 415 370 399 399 q 442 282 432 342 l 486 0 l 392 0 l 357 276 q 346 326 353 303 q 324 364 339 349 q 283 379 310 379 l 183 379 l 129 0 l 39 0 m 190 439 l 314 439 q 403 466 371 439 q 446 558 436 493 l 461 669 q 444 746 468 722 q 382 769 421 769 l 236 769 l 190 439 m 281 881 l 407 996 l 496 996 l 336 881 l 281 881 z "},"Ř":{"ha":575,"x_min":39,"x_max":560,"o":"m 39 0 l 156 821 l 414 821 q 522 788 483 821 q 550 685 560 756 l 531 551 q 473 442 521 481 q 351 400 425 403 l 353 401 q 415 370 399 399 q 442 282 432 342 l 486 0 l 392 0 l 357 276 q 346 326 353 303 q 324 364 339 349 q 283 379 310 379 l 183 379 l 129 0 l 39 0 m 190 439 l 314 439 q 403 466 371 439 q 446 558 436 493 l 461 669 q 444 746 468 722 q 382 769 421 769 l 236 769 l 190 439 m 332 874 l 225 999 l 286 999 l 368 917 l 474 999 l 532 999 l 389 874 l 332 874 z "},"Ŗ":{"ha":575,"x_min":39,"x_max":560,"o":"m 39 0 l 156 821 l 414 821 q 522 788 483 821 q 550 685 560 756 l 531 551 q 473 442 521 481 q 351 400 425 403 l 353 401 q 415 370 399 399 q 442 282 432 342 l 486 0 l 392 0 l 357 276 q 346 326 353 303 q 324 364 339 349 q 283 379 310 379 l 183 379 l 129 0 l 39 0 m 190 439 l 314 439 q 403 466 371 439 q 446 558 436 493 l 461 669 q 444 746 468 722 q 382 769 421 769 l 236 769 l 190 439 m 176 -217 q 213 -163 200 -186 q 226 -128 226 -140 q 221 -115 226 -119 q 210 -102 215 -110 q 206 -82 204 -94 q 219 -56 206 -68 q 251 -44 232 -44 q 283 -56 271 -44 q 293 -85 294 -67 q 279 -124 292 -100 q 249 -172 267 -147 q 214 -217 232 -197 l 176 -217 z "},"S":{"ha":519,"x_min":24,"x_max":513,"o":"m 221 -10 q 103 13 149 -10 q 40 87 57 35 q 36 232 24 139 l 43 278 l 132 278 l 125 226 q 124 119 114 157 q 158 65 133 81 q 221 50 183 50 q 307 84 268 50 q 358 206 346 118 q 352 299 367 268 q 303 349 338 331 q 218 390 269 368 q 145 434 176 408 q 100 501 114 460 q 94 607 86 543 q 131 727 104 679 q 206 799 158 775 q 326 822 253 822 q 467 774 422 822 q 500 639 513 726 l 488 549 q 445 549 467 549 q 403 549 424 549 l 413 618 q 398 719 421 685 q 318 753 375 753 q 225 717 257 753 q 182 610 193 682 q 191 526 175 557 q 237 478 207 496 q 306 444 267 460 q 401 395 365 421 q 448 329 436 369 q 450 217 460 289 q 404 83 438 132 q 323 12 371 33 q 221 -10 275 -10 z "},"Š":{"ha":519,"x_min":24,"x_max":519,"o":"m 221 -10 q 103 13 149 -10 q 40 87 57 35 q 36 232 24 139 l 43 278 l 132 278 l 125 226 q 124 119 114 157 q 158 65 133 81 q 221 50 183 50 q 307 84 268 50 q 358 206 346 118 q 352 299 367 268 q 303 349 338 331 q 218 390 269 368 q 145 434 176 408 q 100 501 114 460 q 94 607 86 543 q 131 727 104 679 q 206 799 158 775 q 326 822 253 822 q 467 774 422 822 q 500 639 513 726 l 488 549 q 445 549 467 549 q 403 549 424 549 l 413 618 q 398 719 421 685 q 318 753 375 753 q 225 717 257 753 q 182 610 193 682 q 191 526 175 557 q 237 478 207 496 q 306 444 267 460 q 401 395 365 421 q 448 329 436 369 q 450 217 460 289 q 404 83 438 132 q 323 12 371 33 q 221 -10 275 -10 m 318 874 l 211 999 l 272 999 l 354 917 l 460 999 l 518 999 l 375 874 l 318 874 z "},"Ş":{"ha":519,"x_min":24,"x_max":513,"o":"m 221 -10 q 103 13 149 -10 q 40 87 57 35 q 36 232 24 139 l 43 278 l 132 278 l 125 226 q 124 119 114 157 q 158 65 133 81 q 221 50 183 50 q 307 84 268 50 q 358 206 346 118 q 352 299 367 268 q 303 349 338 331 q 218 390 269 368 q 145 434 176 408 q 100 501 114 460 q 94 607 86 543 q 131 727 104 679 q 206 799 158 775 q 326 822 253 822 q 467 774 422 822 q 500 639 513 726 l 488 549 q 445 549 467 549 q 403 549 424 549 l 413 618 q 398 719 421 685 q 318 753 375 753 q 225 717 257 753 q 182 610 193 682 q 191 526 175 557 q 237 478 207 496 q 306 444 267 460 q 401 395 365 421 q 448 329 436 369 q 450 217 460 289 q 404 83 438 132 q 323 12 371 33 q 221 -10 275 -10 m 182 -199 q 143 -192 160 -199 q 117 -179 126 -185 l 135 -146 q 157 -158 142 -153 q 183 -162 172 -162 q 226 -150 211 -162 q 243 -121 242 -137 q 206 -82 249 -82 q 187 -86 197 -82 q 168 -96 176 -90 l 142 -81 l 197 0 l 238 0 l 189 -68 l 182 -65 q 206 -56 193 -58 q 231 -53 218 -53 q 283 -74 267 -53 q 294 -119 299 -94 q 260 -176 290 -154 q 182 -199 231 -199 z "},"Ș":{"ha":519,"x_min":24,"x_max":513,"o":"m 221 -10 q 103 13 149 -10 q 40 87 57 35 q 36 232 24 139 l 43 278 l 132 278 l 125 226 q 124 119 114 157 q 158 65 133 81 q 221 50 183 50 q 307 84 268 50 q 358 206 346 118 q 352 299 367 268 q 303 349 338 331 q 218 390 269 368 q 145 434 176 408 q 100 501 114 460 q 94 607 86 543 q 131 727 104 679 q 206 799 158 775 q 326 822 253 822 q 467 774 422 822 q 500 639 513 726 l 488 549 q 445 549 467 549 q 403 549 424 549 l 413 618 q 398 719 421 685 q 318 753 375 753 q 225 717 257 753 q 182 610 193 682 q 191 526 175 557 q 237 478 207 496 q 306 444 267 460 q 401 395 365 421 q 448 329 436 369 q 450 217 460 289 q 404 83 438 132 q 323 12 371 33 q 221 -10 275 -10 m 132 -217 q 169 -163 156 -186 q 182 -128 182 -140 q 176 -115 182 -119 q 165 -102 171 -110 q 161 -82 160 -94 q 174 -56 161 -68 q 207 -44 188 -44 q 238 -56 226 -44 q 249 -85 250 -67 q 235 -124 247 -100 q 205 -172 222 -147 q 169 -217 188 -197 l 132 -217 z "},"Ш":{"ha":886,"x_min":39,"x_max":865,"o":"m 39 0 l 156 821 l 246 821 l 139 63 l 357 63 l 465 821 l 556 821 l 449 63 l 667 63 l 774 821 l 865 821 l 749 0 l 39 0 z "},"Щ":{"ha":867,"x_min":8,"x_max":835,"o":"m 676 -114 l 692 0 l 8 0 l 124 821 l 215 821 l 108 63 l 326 63 l 433 821 l 525 821 l 418 63 l 636 63 l 743 821 l 835 821 l 725 46 l 771 46 l 750 -114 l 676 -114 z "},"Ь":{"ha":521,"x_min":25,"x_max":485,"o":"m 25 0 l 140 819 l 226 819 l 197 604 l 335 604 q 427 586 393 604 q 473 530 461 568 q 476 431 485 492 l 444 204 q 421 107 436 146 q 381 44 406 68 q 323 10 357 21 q 242 0 289 0 l 25 0 m 118 50 l 231 50 q 318 82 290 50 q 357 188 346 114 l 389 418 q 392 483 394 453 q 368 531 389 513 q 299 549 347 549 l 189 549 l 118 50 z "},"T":{"ha":397,"x_min":74,"x_max":449,"o":"m 104 0 l 211 758 l 74 758 l 83 821 l 449 821 l 439 758 l 299 758 l 192 0 l 104 0 z "},"Ŧ":{"ha":418,"x_min":74,"x_max":449,"o":"m 103 563 l 113 614 l 361 614 l 354 563 l 103 563 m 104 0 l 211 758 l 74 758 l 83 821 l 449 821 l 439 758 l 299 758 l 192 0 l 104 0 z "},"Ť":{"ha":397,"x_min":74,"x_max":449,"o":"m 104 0 l 211 758 l 74 758 l 83 821 l 449 821 l 439 758 l 299 758 l 192 0 l 104 0 m 243 874 l 136 999 l 197 999 l 279 917 l 385 999 l 443 999 l 300 874 l 243 874 z "},"Ţ":{"ha":397,"x_min":49,"x_max":449,"o":"m 104 0 l 211 758 l 74 758 l 83 821 l 449 821 l 439 758 l 299 758 l 192 0 l 104 0 m 114 -199 q 75 -192 92 -199 q 49 -179 58 -185 l 67 -146 q 89 -158 74 -153 q 115 -162 104 -162 q 158 -150 143 -162 q 175 -121 174 -137 q 138 -82 181 -82 q 119 -86 129 -82 q 100 -96 108 -90 l 74 -81 l 129 0 l 169 0 l 121 -68 l 114 -65 q 138 -56 125 -58 q 163 -53 150 -53 q 215 -74 199 -53 q 226 -119 231 -94 q 192 -176 222 -154 q 114 -199 163 -199 z "},"Ț":{"ha":397,"x_min":65,"x_max":449,"o":"m 104 0 l 211 758 l 74 758 l 83 821 l 449 821 l 439 758 l 299 758 l 192 0 l 104 0 m 64 -217 q 101 -163 88 -186 q 114 -128 114 -140 q 108 -115 114 -119 q 97 -102 103 -110 q 93 -82 92 -94 q 106 -56 93 -68 q 139 -44 119 -44 q 170 -56 158 -44 q 181 -85 182 -67 q 167 -124 179 -100 q 137 -172 154 -147 q 101 -217 119 -197 l 64 -217 z "},"Т":{"ha":397,"x_min":74,"x_max":449,"o":"m 104 0 l 211 758 l 74 758 l 83 821 l 449 821 l 439 758 l 299 758 l 192 0 l 104 0 z "},"Þ":{"ha":528,"x_min":0,"x_max":496,"o":"m 0 0 l 117 821 l 208 821 l 186 667 l 350 667 q 458 633 419 667 q 486 531 496 600 l 464 379 q 439 291 458 332 q 379 224 419 250 q 267 199 339 199 l 119 199 l 92 0 l 0 0 m 126 250 l 247 250 q 337 284 304 250 q 379 389 369 318 l 394 496 q 382 587 404 558 q 321 615 360 615 l 178 615 l 126 250 z "},"Ц":{"ha":593,"x_min":39,"x_max":558,"o":"m 400 -114 l 417 0 l 39 0 l 154 821 l 246 821 l 139 64 l 360 64 l 467 821 l 558 821 l 449 46 l 496 46 l 474 -114 l 400 -114 z "},"Ћ":{"ha":614,"x_min":72,"x_max":569,"o":"m 113 0 l 218 757 l 72 757 l 83 821 l 464 821 l 454 757 l 307 757 l 276 538 q 331 581 293 560 q 424 601 369 601 q 528 577 496 601 q 565 510 560 553 q 563 415 569 468 l 504 0 l 417 0 l 475 417 q 477 481 481 453 q 453 524 474 508 q 388 540 432 540 q 307 517 338 540 q 268 469 276 493 l 200 0 l 113 0 z "},"U":{"ha":574,"x_min":49,"x_max":560,"o":"m 238 -17 q 158 -10 194 -17 q 97 17 122 -3 q 60 74 71 36 q 57 176 49 113 l 147 821 l 235 821 l 142 158 q 149 83 136 108 q 188 49 161 58 q 244 40 214 40 q 304 49 276 40 q 353 83 332 58 q 381 158 374 108 l 474 821 l 560 821 l 469 176 q 439 74 460 113 q 388 17 418 36 q 318 -10 357 -3 q 238 -17 279 -17 z "},"У":{"ha":474,"x_min":-11,"x_max":510,"o":"m 69 -12 q 25 -9 46 -12 q -11 -1 4 -6 l -4 47 q 16 44 4 46 q 42 43 28 43 q 81 49 60 43 q 117 78 101 56 q 140 109 129 92 q 150 151 151 126 l 92 821 l 182 821 l 219 228 l 218 228 l 426 821 l 510 821 l 271 176 q 189 31 233 74 q 69 -12 144 -12 z "},"Ú":{"ha":574,"x_min":49,"x_max":560,"o":"m 238 -17 q 158 -10 194 -17 q 97 17 122 -3 q 60 74 71 36 q 57 176 49 113 l 147 821 l 235 821 l 142 158 q 149 83 136 108 q 188 49 161 58 q 244 40 214 40 q 304 49 276 40 q 353 83 332 58 q 381 158 374 108 l 474 821 l 560 821 l 469 176 q 439 74 460 113 q 388 17 418 36 q 318 -10 357 -3 q 238 -17 279 -17 m 279 881 l 406 996 l 494 996 l 335 881 l 279 881 z "},"Ǔ":{"ha":574,"x_min":49,"x_max":560,"o":"m 238 -17 q 158 -10 194 -17 q 97 17 122 -3 q 60 74 71 36 q 57 176 49 113 l 147 821 l 235 821 l 142 158 q 149 83 136 108 q 188 49 161 58 q 244 40 214 40 q 304 49 276 40 q 353 83 332 58 q 381 158 374 108 l 474 821 l 560 821 l 469 176 q 439 74 460 113 q 388 17 418 36 q 318 -10 357 -3 q 238 -17 279 -17 m 332 874 l 225 999 l 286 999 l 368 917 l 474 999 l 532 999 l 389 874 l 332 874 z "},"Û":{"ha":574,"x_min":49,"x_max":560,"o":"m 238 -17 q 158 -10 194 -17 q 97 17 122 -3 q 60 74 71 36 q 57 176 49 113 l 147 821 l 235 821 l 142 158 q 149 83 136 108 q 188 49 161 58 q 244 40 214 40 q 304 49 276 40 q 353 83 332 58 q 381 158 374 108 l 474 821 l 560 821 l 469 176 q 439 74 460 113 q 388 17 418 36 q 318 -10 357 -3 q 238 -17 279 -17 m 207 874 l 350 999 l 408 999 l 514 874 l 456 874 l 372 956 l 268 874 l 207 874 z "},"Ü":{"ha":574,"x_min":49,"x_max":560,"o":"m 238 -17 q 158 -10 194 -17 q 97 17 122 -3 q 60 74 71 36 q 57 176 49 113 l 147 821 l 235 821 l 142 158 q 149 83 136 108 q 188 49 161 58 q 244 40 214 40 q 304 49 276 40 q 353 83 332 58 q 381 158 374 108 l 474 821 l 560 821 l 469 176 q 439 74 460 113 q 388 17 418 36 q 318 -10 357 -3 q 238 -17 279 -17 m 303 889 q 270 902 283 889 q 257 933 257 915 q 270 965 257 953 q 303 976 283 976 q 335 965 322 976 q 347 933 347 953 q 335 902 347 915 q 303 889 322 889 m 438 889 q 405 902 418 889 q 392 933 392 915 q 405 965 392 953 q 438 976 418 976 q 469 965 457 976 q 482 933 482 953 q 469 902 482 915 q 438 889 457 889 z "},"Ǘ":{"ha":574,"x_min":49,"x_max":560,"o":"m 238 -17 q 158 -10 194 -17 q 97 17 122 -3 q 60 74 71 36 q 57 176 49 113 l 147 821 l 235 821 l 142 158 q 149 83 136 108 q 188 49 161 58 q 244 40 214 40 q 304 49 276 40 q 353 83 332 58 q 381 158 374 108 l 474 821 l 560 821 l 469 176 q 439 74 460 113 q 388 17 418 36 q 318 -10 357 -3 q 238 -17 279 -17 m 303 889 q 270 902 283 889 q 257 933 257 915 q 270 965 257 953 q 303 976 283 976 q 335 965 322 976 q 347 933 347 953 q 335 902 347 915 q 303 889 322 889 m 438 889 q 405 902 418 889 q 392 933 392 915 q 405 965 392 953 q 438 976 418 976 q 469 965 457 976 q 482 933 482 953 q 469 902 482 915 q 438 889 457 889 m 303 1000 l 429 1115 l 518 1115 l 358 1000 l 303 1000 z "},"Ǚ":{"ha":574,"x_min":49,"x_max":560,"o":"m 238 -17 q 158 -10 194 -17 q 97 17 122 -3 q 60 74 71 36 q 57 176 49 113 l 147 821 l 235 821 l 142 158 q 149 83 136 108 q 188 49 161 58 q 244 40 214 40 q 304 49 276 40 q 353 83 332 58 q 381 158 374 108 l 474 821 l 560 821 l 469 176 q 439 74 460 113 q 388 17 418 36 q 318 -10 357 -3 q 238 -17 279 -17 m 303 889 q 270 902 283 889 q 257 933 257 915 q 270 965 257 953 q 303 976 283 976 q 335 965 322 976 q 347 933 347 953 q 335 902 347 915 q 303 889 322 889 m 438 889 q 405 902 418 889 q 392 933 392 915 q 405 965 392 953 q 438 976 418 976 q 469 965 457 976 q 482 933 482 953 q 469 902 482 915 q 438 889 457 889 m 354 993 l 247 1118 l 308 1118 l 390 1036 l 496 1118 l 554 1118 l 411 993 l 354 993 z "},"Ǜ":{"ha":574,"x_min":49,"x_max":560,"o":"m 238 -17 q 158 -10 194 -17 q 97 17 122 -3 q 60 74 71 36 q 57 176 49 113 l 147 821 l 235 821 l 142 158 q 149 83 136 108 q 188 49 161 58 q 244 40 214 40 q 304 49 276 40 q 353 83 332 58 q 381 158 374 108 l 474 821 l 560 821 l 469 176 q 439 74 460 113 q 388 17 418 36 q 318 -10 357 -3 q 238 -17 279 -17 m 303 889 q 270 902 283 889 q 257 933 257 915 q 270 965 257 953 q 303 976 283 976 q 335 965 322 976 q 347 933 347 953 q 335 902 347 915 q 303 889 322 889 m 438 889 q 405 902 418 889 q 392 933 392 915 q 405 965 392 953 q 438 976 418 976 q 469 965 457 976 q 482 933 482 953 q 469 902 482 915 q 438 889 457 889 m 383 1000 l 244 1113 l 335 1113 l 443 1000 l 383 1000 z "},"Ǖ":{"ha":574,"x_min":49,"x_max":560,"o":"m 238 -17 q 158 -10 194 -17 q 97 17 122 -3 q 60 74 71 36 q 57 176 49 113 l 147 821 l 235 821 l 142 158 q 149 83 136 108 q 188 49 161 58 q 244 40 214 40 q 304 49 276 40 q 353 83 332 58 q 381 158 374 108 l 474 821 l 560 821 l 469 176 q 439 74 460 113 q 388 17 418 36 q 318 -10 357 -3 q 238 -17 279 -17 m 303 889 q 270 902 283 889 q 257 933 257 915 q 270 965 257 953 q 303 976 283 976 q 335 965 322 976 q 347 933 347 953 q 335 902 347 915 q 303 889 322 889 m 438 889 q 405 902 418 889 q 392 933 392 915 q 405 965 392 953 q 438 976 418 976 q 469 965 457 976 q 482 933 482 953 q 469 902 482 915 q 438 889 457 889 m 260 1025 l 265 1072 l 524 1072 l 518 1025 l 260 1025 z "},"Ụ":{"ha":574,"x_min":49,"x_max":560,"o":"m 238 -17 q 158 -10 194 -17 q 97 17 122 -3 q 60 74 71 36 q 57 176 49 113 l 147 821 l 235 821 l 142 158 q 149 83 136 108 q 188 49 161 58 q 244 40 214 40 q 304 49 276 40 q 353 83 332 58 q 381 158 374 108 l 474 821 l 560 821 l 469 176 q 439 74 460 113 q 388 17 418 36 q 318 -10 357 -3 q 238 -17 279 -17 m 224 -150 q 191 -137 204 -150 q 178 -104 178 -124 q 191 -74 178 -86 q 224 -61 204 -61 q 256 -74 243 -61 q 268 -104 268 -86 q 256 -137 268 -124 q 224 -150 243 -150 z "},"Ù":{"ha":574,"x_min":49,"x_max":560,"o":"m 238 -17 q 158 -10 194 -17 q 97 17 122 -3 q 60 74 71 36 q 57 176 49 113 l 147 821 l 235 821 l 142 158 q 149 83 136 108 q 188 49 161 58 q 244 40 214 40 q 304 49 276 40 q 353 83 332 58 q 381 158 374 108 l 474 821 l 560 821 l 469 176 q 439 74 460 113 q 388 17 418 36 q 318 -10 357 -3 q 238 -17 279 -17 m 361 881 l 222 993 l 313 993 l 421 881 l 361 881 z "},"Ủ":{"ha":574,"x_min":49,"x_max":560,"o":"m 238 -17 q 158 -10 194 -17 q 97 17 122 -3 q 60 74 71 36 q 57 176 49 113 l 147 821 l 235 821 l 142 158 q 149 83 136 108 q 188 49 161 58 q 244 40 214 40 q 304 49 276 40 q 353 83 332 58 q 381 158 374 108 l 474 821 l 560 821 l 469 176 q 439 74 460 113 q 388 17 418 36 q 318 -10 357 -3 q 238 -17 279 -17 m 335 858 l 339 888 q 357 914 342 907 q 388 928 372 921 q 404 957 403 936 l 404 965 q 400 994 406 981 q 372 1007 394 1007 q 333 974 343 1007 l 290 982 q 322 1027 300 1011 q 382 1043 344 1043 q 443 1022 426 1043 q 457 963 460 1000 l 457 958 q 444 920 454 932 q 420 903 433 908 q 397 894 407 899 q 386 878 386 890 l 383 858 l 335 858 z "},"Ư":{"ha":574,"x_min":49,"x_max":642,"o":"m 238 -17 q 158 -10 194 -17 q 97 17 122 -3 q 60 74 71 36 q 57 176 49 113 l 147 821 l 235 821 l 142 158 q 149 83 136 108 q 188 49 161 58 q 244 40 214 40 q 304 49 276 40 q 353 83 332 58 q 381 158 374 108 l 474 821 l 560 821 l 469 176 q 439 74 460 113 q 388 17 418 36 q 318 -10 357 -3 q 238 -17 279 -17 m 483 778 l 485 821 l 503 821 q 578 883 569 821 l 581 907 l 642 907 l 640 889 q 592 805 632 833 q 483 778 551 776 z "},"Ứ":{"ha":574,"x_min":49,"x_max":642,"o":"m 238 -17 q 158 -10 194 -17 q 97 17 122 -3 q 60 74 71 36 q 57 176 49 113 l 147 821 l 235 821 l 142 158 q 149 83 136 108 q 188 49 161 58 q 244 40 214 40 q 304 49 276 40 q 353 83 332 58 q 381 158 374 108 l 474 821 l 560 821 l 469 176 q 439 74 460 113 q 388 17 418 36 q 318 -10 357 -3 q 238 -17 279 -17 m 483 778 l 485 821 l 503 821 q 578 883 569 821 l 581 907 l 642 907 l 640 889 q 592 805 632 833 q 483 778 551 776 m 279 881 l 406 996 l 494 996 l 335 881 l 279 881 z "},"Ự":{"ha":574,"x_min":49,"x_max":642,"o":"m 238 -17 q 158 -10 194 -17 q 97 17 122 -3 q 60 74 71 36 q 57 176 49 113 l 147 821 l 235 821 l 142 158 q 149 83 136 108 q 188 49 161 58 q 244 40 214 40 q 304 49 276 40 q 353 83 332 58 q 381 158 374 108 l 474 821 l 560 821 l 469 176 q 439 74 460 113 q 388 17 418 36 q 318 -10 357 -3 q 238 -17 279 -17 m 483 778 l 485 821 l 503 821 q 578 883 569 821 l 581 907 l 642 907 l 640 889 q 592 805 632 833 q 483 778 551 776 m 224 -150 q 191 -137 204 -150 q 178 -104 178 -124 q 191 -74 178 -86 q 224 -61 204 -61 q 256 -74 243 -61 q 268 -104 268 -86 q 256 -137 268 -124 q 224 -150 243 -150 z "},"Ừ":{"ha":574,"x_min":49,"x_max":642,"o":"m 238 -17 q 158 -10 194 -17 q 97 17 122 -3 q 60 74 71 36 q 57 176 49 113 l 147 821 l 235 821 l 142 158 q 149 83 136 108 q 188 49 161 58 q 244 40 214 40 q 304 49 276 40 q 353 83 332 58 q 381 158 374 108 l 474 821 l 560 821 l 469 176 q 439 74 460 113 q 388 17 418 36 q 318 -10 357 -3 q 238 -17 279 -17 m 483 778 l 485 821 l 503 821 q 578 883 569 821 l 581 907 l 642 907 l 640 889 q 592 805 632 833 q 483 778 551 776 m 361 881 l 222 993 l 313 993 l 421 881 l 361 881 z "},"Ử":{"ha":574,"x_min":49,"x_max":642,"o":"m 238 -17 q 158 -10 194 -17 q 97 17 122 -3 q 60 74 71 36 q 57 176 49 113 l 147 821 l 235 821 l 142 158 q 149 83 136 108 q 188 49 161 58 q 244 40 214 40 q 304 49 276 40 q 353 83 332 58 q 381 158 374 108 l 474 821 l 560 821 l 469 176 q 439 74 460 113 q 388 17 418 36 q 318 -10 357 -3 q 238 -17 279 -17 m 483 778 l 485 821 l 503 821 q 578 883 569 821 l 581 907 l 642 907 l 640 889 q 592 805 632 833 q 483 778 551 776 m 335 858 l 339 888 q 357 914 342 907 q 388 928 372 921 q 404 957 403 936 l 404 965 q 400 994 406 981 q 372 1007 394 1007 q 333 974 343 1007 l 290 982 q 322 1027 300 1011 q 382 1043 344 1043 q 443 1022 426 1043 q 457 963 460 1000 l 457 958 q 444 920 454 932 q 420 903 433 908 q 397 894 407 899 q 386 878 386 890 l 383 858 l 335 858 z "},"Ữ":{"ha":574,"x_min":49,"x_max":642,"o":"m 238 -17 q 158 -10 194 -17 q 97 17 122 -3 q 60 74 71 36 q 57 176 49 113 l 147 821 l 235 821 l 142 158 q 149 83 136 108 q 188 49 161 58 q 244 40 214 40 q 304 49 276 40 q 353 83 332 58 q 381 158 374 108 l 474 821 l 560 821 l 469 176 q 439 74 460 113 q 388 17 418 36 q 318 -10 357 -3 q 238 -17 279 -17 m 483 778 l 485 821 l 503 821 q 578 883 569 821 l 581 907 l 642 907 l 640 889 q 592 805 632 833 q 483 778 551 776 m 421 889 q 390 895 403 889 q 360 914 378 901 q 335 930 349 921 q 306 939 322 939 q 276 927 289 939 q 256 890 263 915 l 222 890 q 255 958 231 932 q 313 985 279 985 q 348 976 332 985 q 378 957 364 968 q 403 942 392 949 q 429 936 414 936 q 460 947 447 936 q 479 981 472 957 l 515 981 q 480 914 507 939 q 421 889 453 889 z "},"Ű":{"ha":574,"x_min":49,"x_max":560,"o":"m 238 -17 q 158 -10 194 -17 q 97 17 122 -3 q 60 74 71 36 q 57 176 49 113 l 147 821 l 235 821 l 142 158 q 149 83 136 108 q 188 49 161 58 q 244 40 214 40 q 304 49 276 40 q 353 83 332 58 q 381 158 374 108 l 474 821 l 560 821 l 469 176 q 439 74 460 113 q 388 17 418 36 q 318 -10 357 -3 q 238 -17 279 -17 m 285 874 l 339 1001 l 415 1001 l 324 874 l 285 874 m 383 874 l 446 1001 l 521 1001 l 426 874 l 383 874 z "},"Ū":{"ha":574,"x_min":49,"x_max":560,"o":"m 238 -17 q 158 -10 194 -17 q 97 17 122 -3 q 60 74 71 36 q 57 176 49 113 l 147 821 l 235 821 l 142 158 q 149 83 136 108 q 188 49 161 58 q 244 40 214 40 q 304 49 276 40 q 353 83 332 58 q 381 158 374 108 l 474 821 l 560 821 l 469 176 q 439 74 460 113 q 388 17 418 36 q 318 -10 357 -3 q 238 -17 279 -17 m 238 904 l 243 951 l 501 951 l 496 904 l 238 904 z "},"Ų":{"ha":574,"x_min":49,"x_max":560,"o":"m 238 -17 q 158 -10 194 -17 q 97 17 122 -3 q 60 74 71 36 q 57 176 49 113 l 147 821 l 235 821 l 142 158 q 149 83 136 108 q 188 49 161 58 q 244 40 214 40 q 304 49 276 40 q 353 83 332 58 q 381 158 374 108 l 474 821 l 560 821 l 469 176 q 439 74 460 113 q 388 17 418 36 q 318 -10 357 -3 q 238 -17 279 -17 m 238 -187 q 172 -165 197 -187 q 153 -107 147 -142 q 190 -39 158 -68 q 258 1 222 -10 l 303 0 q 241 -43 264 -17 q 214 -96 218 -69 q 226 -136 211 -122 q 260 -150 242 -150 q 282 -147 272 -150 q 297 -142 292 -144 l 306 -171 q 279 -182 296 -176 q 238 -187 263 -187 z "},"Ů":{"ha":574,"x_min":49,"x_max":560,"o":"m 238 -17 q 158 -10 194 -17 q 97 17 122 -3 q 60 74 71 36 q 57 176 49 113 l 147 821 l 235 821 l 142 158 q 149 83 136 108 q 188 49 161 58 q 244 40 214 40 q 304 49 276 40 q 353 83 332 58 q 381 158 374 108 l 474 821 l 560 821 l 469 176 q 439 74 460 113 q 388 17 418 36 q 318 -10 357 -3 q 238 -17 279 -17 m 357 853 q 283 883 310 853 q 263 956 257 914 q 304 1031 269 1000 q 388 1061 339 1061 q 463 1031 436 1061 q 483 956 489 1000 q 440 883 476 914 q 357 853 403 853 m 364 894 q 414 912 393 894 q 438 956 435 929 q 426 1003 442 986 q 381 1019 411 1019 q 331 1003 351 1019 q 307 956 311 986 q 319 912 304 929 q 364 894 333 894 z "},"Ў":{"ha":474,"x_min":-11,"x_max":510,"o":"m 69 -12 q 25 -9 46 -12 q -11 -1 4 -6 l -4 47 q 16 44 4 46 q 42 43 28 43 q 81 49 60 43 q 117 78 101 56 q 140 109 129 92 q 150 151 151 126 l 92 821 l 182 821 l 219 228 l 218 228 l 426 821 l 510 821 l 271 176 q 189 31 233 74 q 69 -12 144 -12 m 306 872 q 242 885 267 872 q 205 917 217 897 q 190 957 193 936 q 188 996 186 978 l 240 996 q 260 938 239 957 q 314 918 281 918 q 376 937 350 918 q 411 996 401 956 l 463 996 q 439 940 457 968 q 388 892 421 911 q 306 872 356 872 z "},"Ũ":{"ha":574,"x_min":49,"x_max":560,"o":"m 238 -17 q 158 -10 194 -17 q 97 17 122 -3 q 60 74 71 36 q 57 176 49 113 l 147 821 l 235 821 l 142 158 q 149 83 136 108 q 188 49 161 58 q 244 40 214 40 q 304 49 276 40 q 353 83 332 58 q 381 158 374 108 l 474 821 l 560 821 l 469 176 q 439 74 460 113 q 388 17 418 36 q 318 -10 357 -3 q 238 -17 279 -17 m 421 889 q 390 895 403 889 q 360 914 378 901 q 335 930 349 921 q 306 939 322 939 q 276 927 289 939 q 256 890 263 915 l 222 890 q 255 958 231 932 q 313 985 279 985 q 348 976 332 985 q 378 957 364 968 q 403 942 392 949 q 429 936 414 936 q 460 947 447 936 q 479 981 472 957 l 515 981 q 480 914 507 939 q 421 889 453 889 z "},"V":{"ha":474,"x_min":94,"x_max":514,"o":"m 131 0 l 94 821 l 182 821 l 206 114 l 203 114 l 428 821 l 514 821 l 242 0 l 131 0 z "},"В":{"ha":572,"x_min":39,"x_max":553,"o":"m 39 0 l 154 821 l 408 821 q 515 788 476 821 q 543 685 553 756 l 529 585 q 508 516 524 546 q 471 468 492 486 q 421 442 449 449 q 375 435 393 436 l 375 438 q 428 431 403 438 q 468 407 453 425 q 494 358 486 388 q 496 288 501 328 l 481 168 q 443 63 471 99 q 374 13 415 26 q 278 0 332 0 l 39 0 m 132 50 l 268 50 q 326 59 300 50 q 368 95 351 68 q 392 175 385 122 l 408 288 q 387 376 418 354 q 306 397 356 397 l 182 397 l 132 50 m 190 456 l 313 456 q 401 486 368 456 q 443 575 435 517 l 457 669 q 440 745 464 721 q 378 769 417 769 l 233 769 l 190 456 z "},"W":{"ha":763,"x_min":94,"x_max":801,"o":"m 107 0 l 94 821 l 182 821 l 189 121 l 413 821 l 483 821 l 508 122 l 713 821 l 801 821 l 554 0 l 454 0 l 421 624 l 210 0 l 107 0 z "},"Ẃ":{"ha":763,"x_min":94,"x_max":801,"o":"m 107 0 l 94 821 l 182 821 l 189 121 l 413 821 l 483 821 l 508 122 l 713 821 l 801 821 l 554 0 l 454 0 l 421 624 l 210 0 l 107 0 m 375 881 l 501 996 l 590 996 l 431 881 l 375 881 z "},"Ŵ":{"ha":763,"x_min":94,"x_max":801,"o":"m 107 0 l 94 821 l 182 821 l 189 121 l 413 821 l 483 821 l 508 122 l 713 821 l 801 821 l 554 0 l 454 0 l 421 624 l 210 0 l 107 0 m 303 874 l 446 999 l 504 999 l 610 874 l 551 874 l 468 956 l 364 874 l 303 874 z "},"Ẅ":{"ha":763,"x_min":94,"x_max":801,"o":"m 107 0 l 94 821 l 182 821 l 189 121 l 413 821 l 483 821 l 508 122 l 713 821 l 801 821 l 554 0 l 454 0 l 421 624 l 210 0 l 107 0 m 397 889 q 365 902 378 889 q 351 933 351 915 q 365 965 351 953 q 397 976 378 976 q 429 965 417 976 q 442 933 442 953 q 429 902 442 915 q 397 889 417 889 m 532 889 q 499 902 513 889 q 486 933 486 915 q 499 965 486 953 q 532 976 513 976 q 564 965 551 976 q 576 933 576 953 q 564 902 576 915 q 532 889 551 889 z "},"Ẁ":{"ha":763,"x_min":94,"x_max":801,"o":"m 107 0 l 94 821 l 182 821 l 189 121 l 413 821 l 483 821 l 508 122 l 713 821 l 801 821 l 554 0 l 454 0 l 421 624 l 210 0 l 107 0 m 456 881 l 317 993 l 407 993 l 515 881 l 456 881 z "},"X":{"ha":444,"x_min":-26,"x_max":489,"o":"m -26 0 l 165 418 l 103 821 l 189 821 l 240 475 l 399 821 l 489 821 l 301 417 l 369 0 l 282 0 l 224 346 l 67 0 l -26 0 z "},"Y":{"ha":450,"x_min":89,"x_max":493,"o":"m 125 0 l 176 360 l 89 821 l 179 821 l 236 483 l 238 456 l 247 483 l 410 821 l 493 821 l 264 356 l 213 0 l 125 0 z "},"Ý":{"ha":450,"x_min":89,"x_max":493,"o":"m 125 0 l 176 360 l 89 821 l 179 821 l 236 483 l 238 456 l 247 483 l 410 821 l 493 821 l 264 356 l 213 0 l 125 0 m 218 881 l 344 996 l 433 996 l 274 881 l 218 881 z "},"Ѣ":{"ha":608,"x_min":78,"x_max":568,"o":"m 108 0 l 224 819 l 310 819 l 279 604 l 417 604 q 510 586 476 604 q 556 530 544 568 q 560 431 568 492 l 528 204 q 504 107 519 146 q 465 44 489 68 q 406 10 440 21 q 324 0 371 0 l 108 0 m 201 50 l 314 50 q 385 68 360 50 q 424 122 411 86 q 443 208 436 157 l 469 410 q 474 479 475 447 q 452 530 472 511 q 382 549 432 549 l 271 549 q 238 299 256 425 q 201 50 219 172 m 78 706 l 89 756 l 493 756 l 485 706 l 78 706 z "},"Ŷ":{"ha":450,"x_min":89,"x_max":493,"o":"m 125 0 l 176 360 l 89 821 l 179 821 l 236 483 l 238 456 l 247 483 l 410 821 l 493 821 l 264 356 l 213 0 l 125 0 m 146 874 l 289 999 l 347 999 l 453 874 l 394 874 l 311 956 l 207 874 l 146 874 z "},"Ÿ":{"ha":450,"x_min":89,"x_max":493,"o":"m 125 0 l 176 360 l 89 821 l 179 821 l 236 483 l 238 456 l 247 483 l 410 821 l 493 821 l 264 356 l 213 0 l 125 0 m 240 889 q 208 902 221 889 q 194 933 194 915 q 208 965 194 953 q 240 976 221 976 q 272 965 260 976 q 285 933 285 953 q 272 902 285 915 q 240 889 260 889 m 375 889 q 342 902 356 889 q 329 933 329 915 q 342 965 329 953 q 375 976 356 976 q 407 965 394 976 q 419 933 419 953 q 407 902 419 915 q 375 889 394 889 z "},"Ỵ":{"ha":450,"x_min":89,"x_max":493,"o":"m 125 0 l 176 360 l 89 821 l 179 821 l 236 483 l 238 456 l 247 483 l 410 821 l 493 821 l 264 356 l 213 0 l 125 0 m 161 -150 q 128 -137 142 -150 q 115 -104 115 -124 q 128 -74 115 -86 q 161 -61 142 -61 q 193 -74 181 -61 q 206 -104 206 -86 q 193 -137 206 -124 q 161 -150 181 -150 z "},"Ы":{"ha":749,"x_min":39,"x_max":729,"o":"m 39 0 l 154 819 l 240 819 l 211 604 l 349 604 q 441 586 407 604 q 487 530 475 568 q 490 431 499 492 l 458 204 q 435 107 450 146 q 395 44 419 68 q 336 10 371 21 q 256 0 301 0 l 39 0 m 133 50 l 246 50 q 317 68 292 50 q 354 122 342 86 q 372 208 367 157 q 387 308 379 256 q 401 410 394 361 q 405 479 407 447 q 383 530 403 511 q 313 549 363 549 l 203 549 q 169 299 186 425 q 133 50 151 172 m 525 0 l 642 821 l 729 821 l 613 0 l 525 0 z "},"Ỳ":{"ha":450,"x_min":89,"x_max":493,"o":"m 125 0 l 176 360 l 89 821 l 179 821 l 236 483 l 238 456 l 247 483 l 410 821 l 493 821 l 264 356 l 213 0 l 125 0 m 299 881 l 160 993 l 250 993 l 358 881 l 299 881 z "},"Ỷ":{"ha":450,"x_min":89,"x_max":493,"o":"m 125 0 l 176 360 l 89 821 l 179 821 l 236 483 l 238 456 l 247 483 l 410 821 l 493 821 l 264 356 l 213 0 l 125 0 m 272 858 l 276 888 q 294 914 279 907 q 325 928 310 921 q 342 957 340 936 l 342 965 q 338 994 343 981 q 310 1007 332 1007 q 271 974 281 1007 l 228 982 q 260 1027 238 1011 q 319 1043 282 1043 q 381 1022 364 1043 q 394 963 397 1000 l 394 958 q 381 920 392 932 q 358 903 371 908 q 334 894 344 899 q 324 878 324 890 l 321 858 l 272 858 z "},"Ї":{"ha":263,"x_min":39,"x_max":326,"o":"m 39 0 l 156 821 l 243 821 l 126 0 l 39 0 m 147 889 q 115 902 128 889 q 101 933 101 915 q 115 965 101 953 q 147 976 128 976 q 179 965 167 976 q 192 933 192 953 q 179 902 192 915 q 147 889 167 889 m 282 889 q 249 902 263 889 q 236 933 236 915 q 249 965 236 953 q 282 976 263 976 q 314 965 301 976 q 326 933 326 953 q 314 902 326 915 q 282 889 301 889 z "},"Ỹ":{"ha":450,"x_min":89,"x_max":493,"o":"m 125 0 l 176 360 l 89 821 l 179 821 l 236 483 l 238 456 l 247 483 l 410 821 l 493 821 l 264 356 l 213 0 l 125 0 m 358 889 q 328 895 340 889 q 297 914 315 901 q 273 930 286 921 q 243 939 260 939 q 213 927 226 939 q 193 890 200 915 l 160 890 q 192 958 168 932 q 250 985 217 985 q 285 976 269 985 q 315 957 301 968 q 340 942 329 949 q 367 936 351 936 q 397 947 385 936 q 417 981 410 957 l 453 981 q 417 914 444 939 q 358 889 390 889 z "},"Ѫ":{"ha":893,"x_min":-6,"x_max":935,"o":"m -6 0 l 125 321 q 160 387 140 356 q 208 437 179 418 q 282 456 238 456 l 381 457 l 81 758 l 90 821 l 935 821 l 925 758 l 542 457 l 642 456 q 711 436 688 456 q 745 386 735 417 q 760 322 756 356 l 800 0 l 704 0 l 672 310 q 663 361 669 336 q 643 403 657 386 q 603 426 629 421 l 503 426 l 442 0 l 353 0 l 413 426 l 311 426 q 249 385 272 418 q 211 313 226 351 l 90 0 l -6 0 m 464 482 l 821 758 l 185 758 l 464 482 z "},"Z":{"ha":386,"x_min":-26,"x_max":425,"o":"m -26 0 l -17 61 l 315 758 l 96 758 l 106 821 l 425 821 l 418 769 l 76 63 l 318 63 l 308 0 l -26 0 z "},"Ź":{"ha":386,"x_min":-26,"x_max":425,"o":"m -26 0 l -17 61 l 315 758 l 96 758 l 106 821 l 425 821 l 418 769 l 76 63 l 318 63 l 308 0 l -26 0 m 186 881 l 313 996 l 401 996 l 242 881 l 186 881 z "},"Ž":{"ha":386,"x_min":-26,"x_max":438,"o":"m -26 0 l -17 61 l 315 758 l 96 758 l 106 821 l 425 821 l 418 769 l 76 63 l 318 63 l 308 0 l -26 0 m 238 874 l 131 999 l 192 999 l 274 917 l 379 999 l 438 999 l 294 874 l 238 874 z "},"Ż":{"ha":386,"x_min":-26,"x_max":425,"o":"m -26 0 l -17 61 l 315 758 l 96 758 l 106 821 l 425 821 l 418 769 l 76 63 l 318 63 l 308 0 l -26 0 m 283 886 q 247 901 263 886 q 231 938 232 917 q 247 973 231 958 q 283 988 263 988 q 321 973 306 988 q 336 938 336 958 q 321 901 336 917 q 283 886 306 886 z "},"З":{"ha":558,"x_min":32,"x_max":542,"o":"m 226 -10 q 105 16 149 -10 q 47 88 61 42 q 39 193 32 135 l 51 276 l 140 276 l 131 206 q 147 95 121 135 q 235 54 172 56 q 331 92 292 54 q 378 193 369 129 l 389 269 q 363 364 399 332 q 260 399 328 396 l 179 399 l 188 454 l 269 454 q 331 466 301 454 q 383 500 361 478 q 414 540 403 518 q 428 586 425 561 l 435 635 q 419 724 442 688 q 335 761 397 761 q 237 722 271 761 q 194 622 203 683 l 189 574 l 99 574 l 106 635 q 177 775 119 725 q 343 825 235 825 q 497 777 454 825 q 528 640 540 729 l 522 599 q 469 483 513 526 q 367 424 426 439 q 460 366 432 413 q 478 249 489 319 l 469 193 q 435 86 463 132 q 358 15 408 40 q 226 -10 307 -10 z "},"Ж":{"ha":783,"x_min":-36,"x_max":829,"o":"m -36 0 l 240 425 l 88 821 l 188 821 l 319 450 l 360 450 l 413 819 l 501 819 l 449 450 l 490 450 l 728 821 l 829 821 l 563 425 l 719 0 l 619 0 l 483 397 l 442 397 l 385 0 l 297 0 l 353 397 l 311 397 l 63 0 l -36 0 z "},"a":{"ha":503,"x_min":21,"x_max":483,"o":"m 160 -11 q 114 -7 140 -11 q 65 14 88 -3 q 32 67 43 31 q 32 168 21 103 l 89 536 q 128 647 101 613 q 191 690 156 681 q 261 700 226 700 q 343 684 307 700 q 389 633 379 668 l 396 688 l 483 688 l 386 0 l 313 0 l 329 111 q 297 57 318 85 q 243 9 276 29 q 160 -11 210 -11 m 189 42 q 243 59 219 42 q 283 103 267 76 q 309 158 299 129 q 326 212 319 188 q 333 249 332 236 l 381 579 q 369 602 378 586 q 342 632 361 618 q 281 646 322 646 q 215 627 238 646 q 184 577 193 608 q 169 507 175 546 l 115 154 q 116 93 110 117 q 135 59 122 69 q 163 45 149 49 q 189 42 178 42 z "},"а":{"ha":503,"x_min":21,"x_max":483,"o":"m 160 -11 q 114 -7 140 -11 q 65 14 88 -3 q 32 67 43 31 q 32 168 21 103 l 89 536 q 128 647 101 613 q 191 690 156 681 q 261 700 226 700 q 343 684 307 700 q 389 633 379 668 l 396 688 l 483 688 l 386 0 l 313 0 l 329 111 q 297 57 318 85 q 243 9 276 29 q 160 -11 210 -11 m 189 42 q 243 59 219 42 q 283 103 267 76 q 309 158 299 129 q 326 212 319 188 q 333 249 332 236 l 381 579 q 369 602 378 586 q 342 632 361 618 q 281 646 322 646 q 215 627 238 646 q 184 577 193 608 q 169 507 175 546 l 115 154 q 116 93 110 117 q 135 59 122 69 q 163 45 149 49 q 189 42 178 42 z "},"á":{"ha":503,"x_min":21,"x_max":483,"o":"m 160 -11 q 114 -7 140 -11 q 65 14 88 -3 q 32 67 43 31 q 32 168 21 103 l 89 536 q 128 647 101 613 q 191 690 156 681 q 261 700 226 700 q 343 684 307 700 q 389 633 379 668 l 396 688 l 483 688 l 386 0 l 313 0 l 329 111 q 297 57 318 85 q 243 9 276 29 q 160 -11 210 -11 m 189 42 q 243 59 219 42 q 283 103 267 76 q 309 158 299 129 q 326 212 319 188 q 333 249 332 236 l 381 579 q 369 602 378 586 q 342 632 361 618 q 281 646 322 646 q 215 627 238 646 q 184 577 193 608 q 169 507 175 546 l 115 154 q 116 93 110 117 q 135 59 122 69 q 163 45 149 49 q 189 42 178 42 m 264 758 l 351 886 l 442 886 l 318 758 l 264 758 z "},"ă":{"ha":503,"x_min":21,"x_max":483,"o":"m 160 -11 q 114 -7 140 -11 q 65 14 88 -3 q 32 67 43 31 q 32 168 21 103 l 89 536 q 128 647 101 613 q 191 690 156 681 q 261 700 226 700 q 343 684 307 700 q 389 633 379 668 l 396 688 l 483 688 l 386 0 l 313 0 l 329 111 q 297 57 318 85 q 243 9 276 29 q 160 -11 210 -11 m 189 42 q 243 59 219 42 q 283 103 267 76 q 309 158 299 129 q 326 212 319 188 q 333 249 332 236 l 381 579 q 369 602 378 586 q 342 632 361 618 q 281 646 322 646 q 215 627 238 646 q 184 577 193 608 q 169 507 175 546 l 115 154 q 116 93 110 117 q 135 59 122 69 q 163 45 149 49 q 189 42 178 42 m 317 757 q 253 769 278 757 q 216 801 228 782 q 201 842 204 821 q 199 881 197 863 l 251 881 q 271 822 250 842 q 325 803 292 803 q 387 822 361 803 q 422 881 413 840 l 474 881 q 450 824 468 853 q 399 776 432 796 q 317 757 367 757 z "},"ắ":{"ha":503,"x_min":21,"x_max":483,"o":"m 160 -11 q 114 -7 140 -11 q 65 14 88 -3 q 32 67 43 31 q 32 168 21 103 l 89 536 q 128 647 101 613 q 191 690 156 681 q 261 700 226 700 q 343 684 307 700 q 389 633 379 668 l 396 688 l 483 688 l 386 0 l 313 0 l 329 111 q 297 57 318 85 q 243 9 276 29 q 160 -11 210 -11 m 189 42 q 243 59 219 42 q 283 103 267 76 q 309 158 299 129 q 326 212 319 188 q 333 249 332 236 l 381 579 q 369 602 378 586 q 342 632 361 618 q 281 646 322 646 q 215 627 238 646 q 184 577 193 608 q 169 507 175 546 l 115 154 q 116 93 110 117 q 135 59 122 69 q 163 45 149 49 q 189 42 178 42 m 317 757 q 253 769 278 757 q 216 801 228 782 q 201 842 204 821 q 199 881 197 863 l 251 881 q 271 822 250 842 q 325 803 292 803 q 387 822 361 803 q 422 881 413 840 l 474 881 q 450 824 468 853 q 399 776 432 796 q 317 757 367 757 m 290 903 l 378 1031 l 468 1031 l 344 903 l 290 903 z "},"ặ":{"ha":503,"x_min":21,"x_max":483,"o":"m 160 -11 q 114 -7 140 -11 q 65 14 88 -3 q 32 67 43 31 q 32 168 21 103 l 89 536 q 128 647 101 613 q 191 690 156 681 q 261 700 226 700 q 343 684 307 700 q 389 633 379 668 l 396 688 l 483 688 l 386 0 l 313 0 l 329 111 q 297 57 318 85 q 243 9 276 29 q 160 -11 210 -11 m 189 42 q 243 59 219 42 q 283 103 267 76 q 309 158 299 129 q 326 212 319 188 q 333 249 332 236 l 381 579 q 369 602 378 586 q 342 632 361 618 q 281 646 322 646 q 215 627 238 646 q 184 577 193 608 q 169 507 175 546 l 115 154 q 116 93 110 117 q 135 59 122 69 q 163 45 149 49 q 189 42 178 42 m 188 -150 q 155 -137 168 -150 q 142 -104 142 -124 q 155 -74 142 -86 q 188 -61 168 -61 q 219 -74 207 -61 q 232 -104 232 -86 q 219 -137 232 -124 q 188 -150 207 -150 m 317 757 q 253 769 278 757 q 216 801 228 782 q 201 842 204 821 q 199 881 197 863 l 251 881 q 271 822 250 842 q 325 803 292 803 q 387 822 361 803 q 422 881 413 840 l 474 881 q 450 824 468 853 q 399 776 432 796 q 317 757 367 757 z "},"ằ":{"ha":503,"x_min":21,"x_max":483,"o":"m 160 -11 q 114 -7 140 -11 q 65 14 88 -3 q 32 67 43 31 q 32 168 21 103 l 89 536 q 128 647 101 613 q 191 690 156 681 q 261 700 226 700 q 343 684 307 700 q 389 633 379 668 l 396 688 l 483 688 l 386 0 l 313 0 l 329 111 q 297 57 318 85 q 243 9 276 29 q 160 -11 210 -11 m 189 42 q 243 59 219 42 q 283 103 267 76 q 309 158 299 129 q 326 212 319 188 q 333 249 332 236 l 381 579 q 369 602 378 586 q 342 632 361 618 q 281 646 322 646 q 215 627 238 646 q 184 577 193 608 q 169 507 175 546 l 115 154 q 116 93 110 117 q 135 59 122 69 q 163 45 149 49 q 189 42 178 42 m 317 757 q 253 769 278 757 q 216 801 228 782 q 201 842 204 821 q 199 881 197 863 l 251 881 q 271 822 250 842 q 325 803 292 803 q 387 822 361 803 q 422 881 413 840 l 474 881 q 450 824 468 853 q 399 776 432 796 q 317 757 367 757 m 338 903 l 240 1031 l 331 1031 l 392 903 l 338 903 z "},"ẳ":{"ha":503,"x_min":21,"x_max":483,"o":"m 160 -11 q 114 -7 140 -11 q 65 14 88 -3 q 32 67 43 31 q 32 168 21 103 l 89 536 q 128 647 101 613 q 191 690 156 681 q 261 700 226 700 q 343 684 307 700 q 389 633 379 668 l 396 688 l 483 688 l 386 0 l 313 0 l 329 111 q 297 57 318 85 q 243 9 276 29 q 160 -11 210 -11 m 189 42 q 243 59 219 42 q 283 103 267 76 q 309 158 299 129 q 326 212 319 188 q 333 249 332 236 l 381 579 q 369 602 378 586 q 342 632 361 618 q 281 646 322 646 q 215 627 238 646 q 184 577 193 608 q 169 507 175 546 l 115 154 q 116 93 110 117 q 135 59 122 69 q 163 45 149 49 q 189 42 178 42 m 317 757 q 253 769 278 757 q 216 801 228 782 q 201 842 204 821 q 199 881 197 863 l 251 881 q 271 822 250 842 q 325 803 292 803 q 387 822 361 803 q 422 881 413 840 l 474 881 q 450 824 468 853 q 399 776 432 796 q 317 757 367 757 m 314 893 l 318 922 q 336 949 321 942 q 367 963 351 956 q 383 992 382 971 l 383 1000 q 379 1028 385 1015 q 351 1042 374 1042 q 313 1008 322 1042 l 269 1017 q 301 1062 279 1046 q 361 1078 324 1078 q 422 1056 406 1078 q 436 997 439 1035 l 436 993 q 423 955 433 967 q 399 938 413 943 q 376 929 386 933 q 365 913 365 925 l 363 893 l 314 893 z "},"ẵ":{"ha":503,"x_min":21,"x_max":499,"o":"m 160 -11 q 114 -7 140 -11 q 65 14 88 -3 q 32 67 43 31 q 32 168 21 103 l 89 536 q 128 647 101 613 q 191 690 156 681 q 261 700 226 700 q 343 684 307 700 q 389 633 379 668 l 396 688 l 483 688 l 386 0 l 313 0 l 329 111 q 297 57 318 85 q 243 9 276 29 q 160 -11 210 -11 m 189 42 q 243 59 219 42 q 283 103 267 76 q 309 158 299 129 q 326 212 319 188 q 333 249 332 236 l 381 579 q 369 602 378 586 q 342 632 361 618 q 281 646 322 646 q 215 627 238 646 q 184 577 193 608 q 169 507 175 546 l 115 154 q 116 93 110 117 q 135 59 122 69 q 163 45 149 49 q 189 42 178 42 m 317 757 q 253 769 278 757 q 216 801 228 782 q 201 842 204 821 q 199 881 197 863 l 251 881 q 271 822 250 842 q 325 803 292 803 q 387 822 361 803 q 422 881 413 840 l 474 881 q 450 824 468 853 q 399 776 432 796 q 317 757 367 757 m 404 914 q 374 920 386 914 q 343 939 361 926 q 319 955 332 946 q 289 964 306 964 q 259 952 272 964 q 239 915 246 940 l 206 915 q 238 983 214 957 q 296 1010 263 1010 q 331 1001 315 1010 q 361 982 347 993 q 386 967 375 974 q 413 961 397 961 q 443 972 431 961 q 463 1006 456 982 l 499 1006 q 463 939 490 964 q 404 914 436 914 z "},"ǎ":{"ha":503,"x_min":21,"x_max":494,"o":"m 160 -11 q 114 -7 140 -11 q 65 14 88 -3 q 32 67 43 31 q 32 168 21 103 l 89 536 q 128 647 101 613 q 191 690 156 681 q 261 700 226 700 q 343 684 307 700 q 389 633 379 668 l 396 688 l 483 688 l 386 0 l 313 0 l 329 111 q 297 57 318 85 q 243 9 276 29 q 160 -11 210 -11 m 189 42 q 243 59 219 42 q 283 103 267 76 q 309 158 299 129 q 326 212 319 188 q 333 249 332 236 l 381 579 q 369 602 378 586 q 342 632 361 618 q 281 646 322 646 q 215 627 238 646 q 184 577 193 608 q 169 507 175 546 l 115 154 q 116 93 110 117 q 135 59 122 69 q 163 45 149 49 q 189 42 178 42 m 294 758 l 189 886 l 247 886 l 329 803 l 438 886 l 494 886 l 353 758 l 294 758 z "},"â":{"ha":503,"x_min":21,"x_max":483,"o":"m 160 -11 q 114 -7 140 -11 q 65 14 88 -3 q 32 67 43 31 q 32 168 21 103 l 89 536 q 128 647 101 613 q 191 690 156 681 q 261 700 226 700 q 343 684 307 700 q 389 633 379 668 l 396 688 l 483 688 l 386 0 l 313 0 l 329 111 q 297 57 318 85 q 243 9 276 29 q 160 -11 210 -11 m 189 42 q 243 59 219 42 q 283 103 267 76 q 309 158 299 129 q 326 212 319 188 q 333 249 332 236 l 381 579 q 369 602 378 586 q 342 632 361 618 q 281 646 322 646 q 215 627 238 646 q 184 577 193 608 q 169 507 175 546 l 115 154 q 116 93 110 117 q 135 59 122 69 q 163 45 149 49 q 189 42 178 42 m 167 758 l 308 886 l 367 886 l 472 758 l 415 758 l 331 844 l 225 758 l 167 758 z "},"ấ":{"ha":503,"x_min":21,"x_max":649,"o":"m 160 -11 q 114 -7 140 -11 q 65 14 88 -3 q 32 67 43 31 q 32 168 21 103 l 89 536 q 128 647 101 613 q 191 690 156 681 q 261 700 226 700 q 343 684 307 700 q 389 633 379 668 l 396 688 l 483 688 l 386 0 l 313 0 l 329 111 q 297 57 318 85 q 243 9 276 29 q 160 -11 210 -11 m 189 42 q 243 59 219 42 q 283 103 267 76 q 309 158 299 129 q 326 212 319 188 q 333 249 332 236 l 381 579 q 369 602 378 586 q 342 632 361 618 q 281 646 322 646 q 215 627 238 646 q 184 577 193 608 q 169 507 175 546 l 115 154 q 116 93 110 117 q 135 59 122 69 q 163 45 149 49 q 189 42 178 42 m 167 758 l 308 886 l 367 886 l 472 758 l 415 758 l 331 844 l 225 758 l 167 758 m 471 835 l 558 963 l 649 963 l 525 835 l 471 835 z "},"ậ":{"ha":503,"x_min":21,"x_max":483,"o":"m 160 -11 q 114 -7 140 -11 q 65 14 88 -3 q 32 67 43 31 q 32 168 21 103 l 89 536 q 128 647 101 613 q 191 690 156 681 q 261 700 226 700 q 343 684 307 700 q 389 633 379 668 l 396 688 l 483 688 l 386 0 l 313 0 l 329 111 q 297 57 318 85 q 243 9 276 29 q 160 -11 210 -11 m 189 42 q 243 59 219 42 q 283 103 267 76 q 309 158 299 129 q 326 212 319 188 q 333 249 332 236 l 381 579 q 369 602 378 586 q 342 632 361 618 q 281 646 322 646 q 215 627 238 646 q 184 577 193 608 q 169 507 175 546 l 115 154 q 116 93 110 117 q 135 59 122 69 q 163 45 149 49 q 189 42 178 42 m 188 -150 q 155 -137 168 -150 q 142 -104 142 -124 q 155 -74 142 -86 q 188 -61 168 -61 q 219 -74 207 -61 q 232 -104 232 -86 q 219 -137 232 -124 q 188 -150 207 -150 m 167 758 l 308 886 l 367 886 l 472 758 l 415 758 l 331 844 l 225 758 l 167 758 z "},"ầ":{"ha":503,"x_min":21,"x_max":571,"o":"m 160 -11 q 114 -7 140 -11 q 65 14 88 -3 q 32 67 43 31 q 32 168 21 103 l 89 536 q 128 647 101 613 q 191 690 156 681 q 261 700 226 700 q 343 684 307 700 q 389 633 379 668 l 396 688 l 483 688 l 386 0 l 313 0 l 329 111 q 297 57 318 85 q 243 9 276 29 q 160 -11 210 -11 m 189 42 q 243 59 219 42 q 283 103 267 76 q 309 158 299 129 q 326 212 319 188 q 333 249 332 236 l 381 579 q 369 602 378 586 q 342 632 361 618 q 281 646 322 646 q 215 627 238 646 q 184 577 193 608 q 169 507 175 546 l 115 154 q 116 93 110 117 q 135 59 122 69 q 163 45 149 49 q 189 42 178 42 m 167 758 l 308 886 l 367 886 l 472 758 l 415 758 l 331 844 l 225 758 l 167 758 m 517 835 l 419 963 l 510 963 l 571 835 l 517 835 z "},"ẩ":{"ha":503,"x_min":21,"x_max":619,"o":"m 160 -11 q 114 -7 140 -11 q 65 14 88 -3 q 32 67 43 31 q 32 168 21 103 l 89 536 q 128 647 101 613 q 191 690 156 681 q 261 700 226 700 q 343 684 307 700 q 389 633 379 668 l 396 688 l 483 688 l 386 0 l 313 0 l 329 111 q 297 57 318 85 q 243 9 276 29 q 160 -11 210 -11 m 189 42 q 243 59 219 42 q 283 103 267 76 q 309 158 299 129 q 326 212 319 188 q 333 249 332 236 l 381 579 q 369 602 378 586 q 342 632 361 618 q 281 646 322 646 q 215 627 238 646 q 184 577 193 608 q 169 507 175 546 l 115 154 q 116 93 110 117 q 135 59 122 69 q 163 45 149 49 q 189 42 178 42 m 167 758 l 308 886 l 367 886 l 472 758 l 415 758 l 331 844 l 225 758 l 167 758 m 494 825 l 499 854 q 517 881 501 874 q 547 895 532 888 q 564 924 563 903 l 564 932 q 560 960 565 947 q 532 974 554 974 q 493 940 503 974 l 450 949 q 482 994 460 978 q 542 1010 504 1010 q 603 988 586 1010 q 617 929 619 967 l 617 925 q 603 887 614 899 q 580 870 593 875 q 556 861 567 865 q 546 844 546 857 l 543 825 l 494 825 z "},"ẫ":{"ha":503,"x_min":21,"x_max":489,"o":"m 160 -11 q 114 -7 140 -11 q 65 14 88 -3 q 32 67 43 31 q 32 168 21 103 l 89 536 q 128 647 101 613 q 191 690 156 681 q 261 700 226 700 q 343 684 307 700 q 389 633 379 668 l 396 688 l 483 688 l 386 0 l 313 0 l 329 111 q 297 57 318 85 q 243 9 276 29 q 160 -11 210 -11 m 189 42 q 243 59 219 42 q 283 103 267 76 q 309 158 299 129 q 326 212 319 188 q 333 249 332 236 l 381 579 q 369 602 378 586 q 342 632 361 618 q 281 646 322 646 q 215 627 238 646 q 184 577 193 608 q 169 507 175 546 l 115 154 q 116 93 110 117 q 135 59 122 69 q 163 45 149 49 q 189 42 178 42 m 167 758 l 308 886 l 367 886 l 472 758 l 415 758 l 331 844 l 225 758 l 167 758 m 394 918 q 364 924 376 918 q 333 943 351 931 q 309 959 322 950 q 279 968 296 968 q 249 956 263 968 q 229 919 236 944 l 196 919 q 228 988 204 961 q 286 1014 253 1014 q 322 1006 306 1014 q 351 986 338 997 q 376 972 365 978 q 403 965 388 965 q 433 976 421 965 q 453 1010 446 986 l 489 1010 q 453 943 481 968 q 394 918 426 918 z "},"´":{"ha":160,"x_min":58,"x_max":236,"o":"m 58 758 l 146 886 l 236 886 l 113 758 l 58 758 z "},"́":{"ha":0,"x_min":58,"x_max":236,"o":"m 58 758 l 146 886 l 236 886 l 113 758 l 58 758 z "},"ä":{"ha":503,"x_min":21,"x_max":483,"o":"m 160 -11 q 114 -7 140 -11 q 65 14 88 -3 q 32 67 43 31 q 32 168 21 103 l 89 536 q 128 647 101 613 q 191 690 156 681 q 261 700 226 700 q 343 684 307 700 q 389 633 379 668 l 396 688 l 483 688 l 386 0 l 313 0 l 329 111 q 297 57 318 85 q 243 9 276 29 q 160 -11 210 -11 m 189 42 q 243 59 219 42 q 283 103 267 76 q 309 158 299 129 q 326 212 319 188 q 333 249 332 236 l 381 579 q 369 602 378 586 q 342 632 361 618 q 281 646 322 646 q 215 627 238 646 q 184 577 193 608 q 169 507 175 546 l 115 154 q 116 93 110 117 q 135 59 122 69 q 163 45 149 49 q 189 42 178 42 m 258 774 q 226 787 239 774 q 213 818 213 800 q 226 849 213 838 q 258 861 239 861 q 290 849 278 861 q 303 818 303 838 q 290 787 303 800 q 258 774 278 774 m 393 774 q 360 787 374 774 q 347 818 347 800 q 360 849 347 838 q 393 861 374 861 q 425 849 413 861 q 438 818 438 838 q 425 787 438 800 q 393 774 413 774 z "},"ạ":{"ha":503,"x_min":21,"x_max":483,"o":"m 160 -11 q 114 -7 140 -11 q 65 14 88 -3 q 32 67 43 31 q 32 168 21 103 l 89 536 q 128 647 101 613 q 191 690 156 681 q 261 700 226 700 q 343 684 307 700 q 389 633 379 668 l 396 688 l 483 688 l 386 0 l 313 0 l 329 111 q 297 57 318 85 q 243 9 276 29 q 160 -11 210 -11 m 189 42 q 243 59 219 42 q 283 103 267 76 q 309 158 299 129 q 326 212 319 188 q 333 249 332 236 l 381 579 q 369 602 378 586 q 342 632 361 618 q 281 646 322 646 q 215 627 238 646 q 184 577 193 608 q 169 507 175 546 l 115 154 q 116 93 110 117 q 135 59 122 69 q 163 45 149 49 q 189 42 178 42 m 188 -150 q 155 -137 168 -150 q 142 -104 142 -124 q 155 -74 142 -86 q 188 -61 168 -61 q 219 -74 207 -61 q 232 -104 232 -86 q 219 -137 232 -124 q 188 -150 207 -150 z "},"æ":{"ha":772,"x_min":22,"x_max":769,"o":"m 150 -6 q 107 -2 131 -6 q 63 15 83 1 q 32 60 42 29 q 29 147 22 92 l 39 214 q 96 322 49 282 q 213 393 143 363 q 301 436 265 417 q 356 477 336 456 q 378 528 375 499 l 385 568 q 377 619 389 601 q 344 644 365 638 q 296 651 322 651 q 210 617 235 651 q 178 517 186 583 l 169 458 l 90 458 l 99 525 q 126 616 107 576 q 188 678 146 656 q 304 701 229 701 q 410 682 376 701 q 450 629 443 663 q 451 553 457 596 l 382 57 l 339 117 q 258 22 308 49 q 150 -6 207 -6 m 190 53 q 288 95 253 53 q 333 211 322 138 l 364 431 q 310 389 346 407 q 236 350 274 371 q 159 295 188 324 q 124 218 131 267 l 117 164 q 119 90 108 114 q 150 59 131 65 q 190 53 169 53 m 493 -3 q 413 4 446 -3 q 361 30 381 11 q 337 87 342 49 q 340 186 332 125 l 389 531 q 449 660 401 619 q 593 700 497 700 q 731 664 693 700 q 756 531 769 628 l 731 353 l 442 353 l 414 157 q 422 67 404 90 q 500 44 439 44 q 563 55 540 44 q 599 92 586 65 q 618 164 613 118 l 629 246 l 715 246 l 708 193 q 683 92 699 131 q 641 33 667 54 q 579 5 615 13 q 493 -3 543 -3 m 447 397 l 650 397 l 671 538 q 663 624 679 597 q 585 651 646 651 q 500 624 524 651 q 467 538 476 597 l 447 397 z "},"à":{"ha":503,"x_min":21,"x_max":483,"o":"m 160 -11 q 114 -7 140 -11 q 65 14 88 -3 q 32 67 43 31 q 32 168 21 103 l 89 536 q 128 647 101 613 q 191 690 156 681 q 261 700 226 700 q 343 684 307 700 q 389 633 379 668 l 396 688 l 483 688 l 386 0 l 313 0 l 329 111 q 297 57 318 85 q 243 9 276 29 q 160 -11 210 -11 m 189 42 q 243 59 219 42 q 283 103 267 76 q 309 158 299 129 q 326 212 319 188 q 333 249 332 236 l 381 579 q 369 602 378 586 q 342 632 361 618 q 281 646 322 646 q 215 627 238 646 q 184 577 193 608 q 169 507 175 546 l 115 154 q 116 93 110 117 q 135 59 122 69 q 163 45 149 49 q 189 42 178 42 m 311 758 l 214 886 l 304 886 l 365 758 l 311 758 z "},"ả":{"ha":503,"x_min":21,"x_max":483,"o":"m 160 -11 q 114 -7 140 -11 q 65 14 88 -3 q 32 67 43 31 q 32 168 21 103 l 89 536 q 128 647 101 613 q 191 690 156 681 q 261 700 226 700 q 343 684 307 700 q 389 633 379 668 l 396 688 l 483 688 l 386 0 l 313 0 l 329 111 q 297 57 318 85 q 243 9 276 29 q 160 -11 210 -11 m 189 42 q 243 59 219 42 q 283 103 267 76 q 309 158 299 129 q 326 212 319 188 q 333 249 332 236 l 381 579 q 369 602 378 586 q 342 632 361 618 q 281 646 322 646 q 215 627 238 646 q 184 577 193 608 q 169 507 175 546 l 115 154 q 116 93 110 117 q 135 59 122 69 q 163 45 149 49 q 189 42 178 42 m 288 749 l 292 778 q 310 804 294 797 q 340 819 325 811 q 357 847 356 826 l 357 856 q 353 884 358 871 q 325 897 347 897 q 286 864 296 897 l 243 872 q 275 917 253 901 q 335 933 297 933 q 396 912 379 933 q 410 853 413 890 l 410 849 q 397 810 407 822 q 373 794 386 799 q 349 785 360 789 q 339 768 339 781 l 336 749 l 288 749 z "},"ā":{"ha":503,"x_min":21,"x_max":483,"o":"m 160 -11 q 114 -7 140 -11 q 65 14 88 -3 q 32 67 43 31 q 32 168 21 103 l 89 536 q 128 647 101 613 q 191 690 156 681 q 261 700 226 700 q 343 684 307 700 q 389 633 379 668 l 396 688 l 483 688 l 386 0 l 313 0 l 329 111 q 297 57 318 85 q 243 9 276 29 q 160 -11 210 -11 m 189 42 q 243 59 219 42 q 283 103 267 76 q 309 158 299 129 q 326 212 319 188 q 333 249 332 236 l 381 579 q 369 602 378 586 q 342 632 361 618 q 281 646 322 646 q 215 627 238 646 q 184 577 193 608 q 169 507 175 546 l 115 154 q 116 93 110 117 q 135 59 122 69 q 163 45 149 49 q 189 42 178 42 m 190 786 l 196 833 l 454 833 l 449 786 l 190 786 z "},"&":{"ha":667,"x_min":29,"x_max":618,"o":"m 214 -10 q 97 19 139 -10 q 42 100 54 49 q 39 219 29 151 q 90 355 50 303 q 194 425 131 407 q 176 476 183 443 q 176 553 168 508 q 234 664 188 624 q 367 704 281 704 q 444 699 410 704 q 503 685 479 693 q 536 672 528 678 l 525 606 q 499 615 522 608 q 444 627 476 621 q 376 633 413 633 q 303 615 331 633 q 264 569 275 597 q 255 509 253 540 q 269 450 257 478 q 295 410 276 438 q 335 350 314 382 q 376 292 357 318 q 403 257 396 267 l 424 406 l 618 406 l 610 347 l 479 347 q 469 281 474 307 q 463 238 465 256 q 456 201 460 221 q 522 126 489 160 q 572 81 554 93 l 561 -3 q 501 35 540 0 q 419 119 461 71 q 363 39 397 67 q 290 1 329 11 q 214 -10 251 -10 m 225 53 q 322 84 283 53 q 372 168 360 115 q 287 280 328 225 q 222 372 246 335 q 151 326 179 360 q 113 224 122 292 q 131 96 99 139 q 225 53 164 53 z "},"ą":{"ha":503,"x_min":21,"x_max":483,"o":"m 160 -11 q 114 -7 140 -11 q 65 14 88 -3 q 32 67 43 31 q 32 168 21 103 l 89 536 q 128 647 101 613 q 191 690 156 681 q 261 700 226 700 q 343 684 307 700 q 389 633 379 668 l 396 688 l 483 688 l 386 0 l 313 0 l 329 111 q 297 57 318 85 q 243 9 276 29 q 160 -11 210 -11 m 189 42 q 243 59 219 42 q 283 103 267 76 q 309 158 299 129 q 326 212 319 188 q 333 249 332 236 l 381 579 q 369 602 378 586 q 342 632 361 618 q 281 646 322 646 q 215 627 238 646 q 184 577 193 608 q 169 507 175 546 l 115 154 q 116 93 110 117 q 135 59 122 69 q 163 45 149 49 q 189 42 178 42 m 319 -187 q 254 -165 279 -187 q 235 -107 229 -142 q 272 -39 240 -68 q 340 1 304 -10 l 385 0 q 323 -43 346 -17 q 296 -96 300 -69 q 308 -136 293 -122 q 342 -150 324 -150 q 364 -147 354 -150 q 379 -142 374 -144 l 388 -171 q 361 -182 378 -176 q 319 -187 344 -187 z "},"≈":{"ha":675,"x_min":32,"x_max":643,"o":"m 481 450 q 394 465 435 450 q 313 493 354 479 q 221 508 271 507 q 157 490 183 510 q 125 447 131 471 l 72 447 q 106 514 83 488 q 163 555 129 540 q 235 568 197 569 q 319 554 279 568 q 402 527 360 540 q 494 514 444 514 q 556 530 532 513 q 585 569 581 547 l 643 569 q 606 494 633 521 q 546 458 579 467 q 481 450 513 449 m 440 160 q 355 176 396 161 q 272 205 314 190 q 181 219 229 219 q 115 201 142 221 q 85 158 89 182 l 32 158 q 66 225 42 199 q 124 266 90 251 q 194 279 157 281 q 280 265 240 279 q 362 238 319 251 q 454 225 404 225 q 516 241 492 224 q 544 281 540 258 l 603 281 q 565 205 592 232 q 506 169 539 178 q 440 160 472 160 z "},"å":{"ha":503,"x_min":21,"x_max":483,"o":"m 160 -11 q 114 -7 140 -11 q 65 14 88 -3 q 32 67 43 31 q 32 168 21 103 l 89 536 q 128 647 101 613 q 191 690 156 681 q 261 700 226 700 q 343 684 307 700 q 389 633 379 668 l 396 688 l 483 688 l 386 0 l 313 0 l 329 111 q 297 57 318 85 q 243 9 276 29 q 160 -11 210 -11 m 189 42 q 243 59 219 42 q 283 103 267 76 q 309 158 299 129 q 326 212 319 188 q 333 249 332 236 l 381 579 q 369 602 378 586 q 342 632 361 618 q 281 646 322 646 q 215 627 238 646 q 184 577 193 608 q 169 507 175 546 l 115 154 q 116 93 110 117 q 135 59 122 69 q 163 45 149 49 q 189 42 178 42 m 317 754 q 243 785 269 754 q 222 857 217 815 q 264 932 229 901 q 347 963 299 963 q 422 932 396 963 q 443 857 449 901 q 399 785 436 815 q 317 754 363 754 m 324 796 q 374 813 353 796 q 397 857 394 831 q 386 904 401 888 q 340 921 371 921 q 291 904 311 921 q 267 857 271 888 q 278 813 264 831 q 324 796 293 796 z "},"^":{"ha":547,"x_min":42,"x_max":468,"o":"m 42 688 l 269 942 l 317 942 l 468 688 l 390 688 l 281 865 l 122 688 l 42 688 z "},"~":{"ha":675,"x_min":53,"x_max":622,"o":"m 460 707 q 374 722 415 708 q 292 751 333 736 q 200 765 250 765 q 136 748 163 767 q 106 706 110 729 l 53 706 q 86 773 63 746 q 143 814 110 800 q 214 826 176 828 q 300 813 260 826 q 382 785 340 799 q 474 771 424 771 q 537 788 513 769 q 564 826 561 806 l 622 826 q 586 752 613 778 q 526 717 560 726 q 460 707 492 707 z "},"*":{"ha":767,"x_min":67,"x_max":692,"o":"m 189 142 l 121 197 l 349 415 l 67 469 l 114 568 l 361 442 l 368 732 l 467 732 l 392 442 l 675 565 l 692 474 l 399 415 l 564 199 l 479 143 l 371 396 l 189 142 z "},"@":{"ha":974,"x_min":38,"x_max":940,"o":"m 415 -90 q 169 -40 253 -90 q 61 110 85 11 q 57 349 38 208 q 206 699 89 574 q 546 824 324 824 q 762 782 669 824 q 897 649 854 740 q 919 411 940 558 q 877 251 907 322 q 801 139 847 181 q 693 97 756 97 q 638 110 660 97 q 603 146 615 124 q 587 193 590 168 q 585 240 583 218 l 607 242 q 522 153 572 179 q 415 128 472 128 q 315 158 350 128 q 292 265 281 188 q 315 334 297 306 q 375 385 333 363 q 490 429 417 408 q 551 449 525 438 q 590 472 576 461 q 606 493 601 482 q 613 518 610 504 q 597 572 617 553 q 524 592 578 592 q 438 569 465 592 q 404 503 410 547 l 397 461 l 333 461 l 340 504 q 365 578 346 549 q 424 623 385 608 q 532 638 464 638 q 633 622 599 638 q 679 575 668 607 q 682 494 690 543 l 647 247 q 659 165 640 190 q 711 139 678 139 q 772 165 742 139 q 827 250 803 192 q 865 404 851 308 q 853 603 882 518 q 750 735 825 688 q 549 782 675 782 q 334 740 424 782 q 189 603 244 699 q 111 346 133 507 q 110 146 93 224 q 169 26 126 68 q 278 -31 213 -15 q 426 -49 344 -47 q 497 -44 454 -49 q 590 -33 540 -40 q 684 -14 639 -25 q 758 13 729 -3 l 751 -35 q 676 -58 725 -44 q 560 -81 626 -72 q 415 -90 494 -90 m 444 179 q 515 197 485 179 q 564 240 546 215 q 585 286 582 264 l 604 422 q 552 406 583 415 q 490 385 521 396 q 419 353 446 368 q 378 317 392 338 q 358 264 364 297 q 372 199 353 219 q 444 179 392 179 z "},"ã":{"ha":503,"x_min":21,"x_max":483,"o":"m 160 -11 q 114 -7 140 -11 q 65 14 88 -3 q 32 67 43 31 q 32 168 21 103 l 89 536 q 128 647 101 613 q 191 690 156 681 q 261 700 226 700 q 343 684 307 700 q 389 633 379 668 l 396 688 l 483 688 l 386 0 l 313 0 l 329 111 q 297 57 318 85 q 243 9 276 29 q 160 -11 210 -11 m 189 42 q 243 59 219 42 q 283 103 267 76 q 309 158 299 129 q 326 212 319 188 q 333 249 332 236 l 381 579 q 369 602 378 586 q 342 632 361 618 q 281 646 322 646 q 215 627 238 646 q 184 577 193 608 q 169 507 175 546 l 115 154 q 116 93 110 117 q 135 59 122 69 q 163 45 149 49 q 189 42 178 42 m 379 769 q 349 776 361 769 q 318 794 336 782 q 294 810 307 801 q 264 819 281 819 q 234 808 247 819 q 214 771 221 796 l 181 771 q 213 839 189 813 q 271 865 238 865 q 306 857 290 865 q 336 838 322 849 q 361 823 350 829 q 388 817 372 817 q 418 827 406 817 q 438 861 431 838 l 474 861 q 438 794 465 819 q 379 769 411 769 z "},"b":{"ha":507,"x_min":25,"x_max":482,"o":"m 228 -10 q 135 13 163 -10 q 99 64 107 36 l 86 0 l 25 0 l 149 875 l 233 875 l 200 643 q 251 684 218 667 q 340 701 285 701 q 418 688 389 701 q 462 652 447 675 q 479 597 476 629 q 476 528 482 565 l 429 185 q 410 103 422 139 q 375 42 397 67 q 317 3 353 17 q 228 -10 281 -10 m 221 51 q 297 71 274 51 q 330 121 321 90 q 343 183 339 151 l 389 513 q 394 560 393 536 q 390 602 396 583 q 364 632 383 621 q 306 643 344 643 q 234 627 258 643 q 200 586 210 611 q 185 531 190 561 l 142 213 q 135 156 138 185 q 138 104 133 128 q 163 66 143 81 q 221 51 182 51 z "},"\\":{"ha":707,"x_min":128,"x_max":539,"o":"m 472 -62 l 128 876 l 196 876 l 539 -62 l 472 -62 z "},"|":{"ha":317,"x_min":35,"x_max":282,"o":"m 35 -337 l 206 876 l 282 876 l 111 -337 l 35 -337 z "},"б":{"ha":503,"x_min":25,"x_max":472,"o":"m 199 -10 q 92 10 132 -10 q 39 71 53 29 q 33 176 25 113 l 103 678 q 136 785 113 746 q 198 840 160 824 q 289 857 236 857 q 335 859 311 857 q 380 865 358 861 q 421 874 401 869 q 453 884 440 879 q 471 894 465 889 q 468 874 469 885 q 464 850 467 864 q 433 819 464 836 q 346 801 403 803 l 325 801 q 258 792 286 801 q 214 756 231 782 q 189 685 197 731 l 175 581 q 228 625 192 606 q 321 644 264 644 q 413 626 379 644 q 460 568 447 607 q 463 468 472 529 l 425 196 q 401 99 417 139 q 360 35 386 60 q 294 1 333 11 q 199 -10 256 -10 m 208 43 q 283 61 257 43 q 320 110 308 79 q 338 179 332 142 l 376 458 q 379 522 382 493 q 356 569 376 551 q 288 586 336 586 q 221 575 246 586 q 183 547 196 564 q 166 510 171 529 q 158 475 161 492 l 118 179 q 115 110 113 142 q 139 61 118 79 q 208 43 160 43 z "},"{":{"ha":428,"x_min":58,"x_max":411,"o":"m 256 -190 q 135 -158 179 -183 q 75 -94 92 -133 q 65 -4 58 -54 q 90 72 72 38 q 131 136 108 106 q 171 197 153 167 q 193 260 189 226 q 181 310 197 289 q 138 343 165 331 q 75 357 110 356 l 79 385 q 142 398 111 386 q 197 432 174 410 q 224 485 219 454 q 219 546 228 517 q 196 604 210 575 q 173 667 182 633 q 169 742 164 701 q 203 832 176 794 q 280 892 229 869 q 411 922 331 915 l 404 869 q 339 853 368 864 q 290 817 310 843 q 263 742 269 792 q 264 669 257 701 q 282 609 271 638 q 299 550 293 581 q 301 481 306 519 q 285 438 299 460 q 247 398 272 415 q 183 371 222 381 q 253 329 231 357 q 271 263 276 301 q 251 195 267 225 q 217 137 235 165 q 183 76 199 108 q 163 3 168 44 q 169 -77 156 -47 q 208 -120 182 -107 q 263 -137 233 -133 l 256 -190 z "},"}":{"ha":428,"x_min":17,"x_max":371,"o":"m 17 -190 l 22 -137 q 83 -120 54 -133 q 134 -77 113 -107 q 163 3 156 -47 q 162 76 168 44 q 145 137 156 108 q 128 195 135 165 q 128 263 122 225 q 164 329 133 301 q 247 371 194 357 q 191 398 211 381 q 163 438 171 415 q 158 481 156 460 q 180 550 164 519 q 215 609 196 581 q 249 669 233 638 q 271 742 265 701 q 265 817 278 792 q 226 853 253 843 q 164 869 199 864 l 172 922 q 294 892 250 915 q 355 832 339 869 q 363 742 371 794 q 339 667 357 701 q 299 604 321 633 q 260 546 276 575 q 238 485 243 517 q 250 432 233 454 q 295 398 267 410 q 353 385 324 386 l 349 357 q 283 343 315 356 q 230 310 251 331 q 204 260 208 289 q 210 197 200 226 q 233 136 219 167 q 256 72 247 106 q 258 -4 265 38 q 224 -94 251 -54 q 145 -158 196 -133 q 17 -190 94 -183 z "},"[":{"ha":399,"x_min":-1,"x_max":400,"o":"m -1 -79 l 132 875 l 400 875 l 394 825 l 207 825 l 86 -29 l 275 -29 l 267 -79 l -1 -79 z "},"]":{"ha":399,"x_min":-1,"x_max":400,"o":"m -1 -79 l 6 -29 l 193 -29 l 313 825 l 125 825 l 132 875 l 400 875 l 267 -79 l -1 -79 z "},"˘":{"ha":275,"x_min":74,"x_max":350,"o":"m 193 757 q 129 769 154 757 q 92 801 104 782 q 77 842 81 821 q 75 881 74 863 l 128 881 q 147 822 126 842 q 201 803 168 803 q 263 822 238 803 q 299 881 289 840 l 350 881 q 326 824 344 853 q 276 776 308 796 q 193 757 243 757 z "},"̆":{"ha":0,"x_min":74,"x_max":350,"o":"m 193 757 q 129 769 154 757 q 92 801 104 782 q 77 842 81 821 q 75 881 74 863 l 128 881 q 147 822 126 842 q 201 803 168 803 q 263 822 238 803 q 299 881 289 840 l 350 881 q 326 824 344 853 q 276 776 308 796 q 193 757 243 757 z "},"¦":{"ha":311,"x_min":44,"x_max":268,"o":"m 44 -235 l 110 238 l 188 238 l 121 -235 l 44 -235 m 131 379 l 192 813 l 268 813 l 208 379 l 131 379 z "},"•":{"ha":547,"x_min":85,"x_max":464,"o":"m 275 199 q 179 224 222 199 q 110 293 136 250 q 85 389 85 336 q 110 484 85 442 q 179 552 136 526 q 275 578 222 578 q 370 552 328 578 q 438 484 413 526 q 464 389 464 442 q 438 293 464 336 q 370 224 413 250 q 275 199 328 199 z "},"c":{"ha":483,"x_min":26,"x_max":472,"o":"m 196 -14 q 111 -6 146 -14 q 56 24 76 3 q 31 85 36 46 q 35 186 26 125 l 82 531 q 146 664 97 628 q 296 700 194 700 q 433 664 394 700 q 458 531 472 628 l 446 440 l 360 440 l 374 538 q 366 624 382 597 q 288 651 350 651 q 203 624 228 651 q 169 538 179 597 l 117 157 q 124 64 108 90 q 201 38 140 38 q 286 64 263 38 q 319 157 310 90 l 335 257 l 421 257 l 411 186 q 374 61 400 104 q 305 2 349 18 q 196 -14 261 -14 z "},"ć":{"ha":483,"x_min":26,"x_max":472,"o":"m 196 -14 q 111 -6 146 -14 q 56 24 76 3 q 31 85 36 46 q 35 186 26 125 l 82 531 q 146 664 97 628 q 296 700 194 700 q 433 664 394 700 q 458 531 472 628 l 446 440 l 360 440 l 374 538 q 366 624 382 597 q 288 651 350 651 q 203 624 228 651 q 169 538 179 597 l 117 157 q 124 64 108 90 q 201 38 140 38 q 286 64 263 38 q 319 157 310 90 l 335 257 l 421 257 l 411 186 q 374 61 400 104 q 305 2 349 18 q 196 -14 261 -14 m 246 758 l 333 886 l 424 886 l 300 758 l 246 758 z "},"ˇ":{"ha":306,"x_min":76,"x_max":382,"o":"m 182 758 l 76 886 l 135 886 l 217 803 l 325 886 l 382 886 l 240 758 l 182 758 z "},"̌":{"ha":0,"x_min":76,"x_max":382,"o":"m 182 758 l 76 886 l 135 886 l 217 803 l 325 886 l 382 886 l 240 758 l 182 758 z "},"č":{"ha":483,"x_min":26,"x_max":476,"o":"m 196 -14 q 111 -6 146 -14 q 56 24 76 3 q 31 85 36 46 q 35 186 26 125 l 82 531 q 146 664 97 628 q 296 700 194 700 q 433 664 394 700 q 458 531 472 628 l 446 440 l 360 440 l 374 538 q 366 624 382 597 q 288 651 350 651 q 203 624 228 651 q 169 538 179 597 l 117 157 q 124 64 108 90 q 201 38 140 38 q 286 64 263 38 q 319 157 310 90 l 335 257 l 421 257 l 411 186 q 374 61 400 104 q 305 2 349 18 q 196 -14 261 -14 m 276 758 l 171 886 l 229 886 l 311 803 l 419 886 l 476 886 l 335 758 l 276 758 z "},"ç":{"ha":483,"x_min":26,"x_max":472,"o":"m 196 -14 q 111 -6 146 -14 q 56 24 76 3 q 31 85 36 46 q 35 186 26 125 l 82 531 q 146 664 97 628 q 296 700 194 700 q 433 664 394 700 q 458 531 472 628 l 446 440 l 360 440 l 374 538 q 366 624 382 597 q 288 651 350 651 q 203 624 228 651 q 169 538 179 597 l 117 157 q 124 64 108 90 q 201 38 140 38 q 286 64 263 38 q 319 157 310 90 l 335 257 l 421 257 l 411 186 q 374 61 400 104 q 305 2 349 18 q 196 -14 261 -14 m 163 -199 q 124 -192 140 -199 q 97 -179 107 -185 l 115 -146 q 138 -158 122 -153 q 164 -162 153 -162 q 207 -150 192 -162 q 224 -121 222 -137 q 186 -82 229 -82 q 167 -86 178 -82 q 149 -96 157 -90 l 122 -81 l 178 0 l 218 0 l 169 -68 l 163 -65 q 186 -56 174 -58 q 211 -53 199 -53 q 263 -74 247 -53 q 275 -119 279 -94 q 241 -176 271 -154 q 163 -199 211 -199 z "},"ċ":{"ha":483,"x_min":26,"x_max":472,"o":"m 196 -14 q 111 -6 146 -14 q 56 24 76 3 q 31 85 36 46 q 35 186 26 125 l 82 531 q 146 664 97 628 q 296 700 194 700 q 433 664 394 700 q 458 531 472 628 l 446 440 l 360 440 l 374 538 q 366 624 382 597 q 288 651 350 651 q 203 624 228 651 q 169 538 179 597 l 117 157 q 124 64 108 90 q 201 38 140 38 q 286 64 263 38 q 319 157 310 90 l 335 257 l 421 257 l 411 186 q 374 61 400 104 q 305 2 349 18 q 196 -14 261 -14 m 308 769 q 272 785 288 769 q 256 821 257 800 q 272 856 256 842 q 308 871 288 871 q 346 856 331 871 q 361 821 361 842 q 346 785 361 800 q 308 769 331 769 z "},"¸":{"ha":169,"x_min":-74,"x_max":108,"o":"m -8 -197 q -47 -190 -31 -197 q -74 -178 -64 -183 l -56 -144 q -33 -156 -49 -151 q -7 -161 -18 -161 q 36 -149 21 -161 q 53 -119 51 -136 q 15 -81 58 -81 q -3 -85 7 -81 q -22 -94 -14 -89 l -49 -79 l 7 1 l 47 1 l -1 -67 l -8 -64 q 15 -54 3 -57 q 40 -51 28 -51 q 92 -72 76 -51 q 104 -118 108 -93 q 70 -175 100 -153 q -8 -197 40 -197 z "},"̧":{"ha":0,"x_min":-82,"x_max":100,"o":"m -17 -197 q -56 -190 -39 -197 q -82 -178 -72 -183 l -64 -144 q -42 -156 -57 -151 q -15 -161 -26 -161 q 28 -149 13 -161 q 44 -119 43 -136 q 7 -81 50 -81 q -12 -85 -1 -81 q -31 -94 -22 -89 l -57 -79 l -1 1 l 39 1 l -10 -67 l -17 -64 q 7 -54 -6 -57 q 32 -51 19 -51 q 84 -72 68 -51 q 96 -118 100 -93 q 62 -175 92 -153 q -17 -197 32 -197 z "},"¢":{"ha":482,"x_min":29,"x_max":461,"o":"m 144 -87 l 167 69 q 90 85 122 71 q 43 135 57 99 q 38 239 29 171 l 92 629 q 125 721 101 689 q 185 767 149 753 q 267 782 221 781 l 283 897 l 342 897 l 325 781 q 399 763 367 776 q 446 717 431 749 q 453 629 461 686 l 436 508 l 358 508 l 376 631 q 372 699 383 676 q 339 728 361 721 q 288 735 317 735 q 234 728 258 735 q 193 699 210 721 q 169 631 176 676 l 113 222 q 116 153 106 175 q 149 123 126 131 q 201 115 171 115 q 256 123 232 115 q 297 153 281 131 q 318 222 313 175 l 333 325 l 410 325 l 397 240 q 364 138 389 174 q 303 88 339 103 q 225 71 268 74 l 203 -87 l 144 -87 z "},"ч":{"ha":479,"x_min":33,"x_max":456,"o":"m 276 0 l 313 264 q 259 205 297 229 q 169 181 221 181 q 73 204 103 181 q 38 269 43 228 q 42 367 33 311 l 88 688 l 174 688 l 126 364 q 134 273 119 304 q 206 242 149 242 q 278 265 251 242 q 315 313 304 289 l 368 688 l 456 688 l 358 0 l 276 0 z "},"ˆ":{"ha":306,"x_min":58,"x_max":364,"o":"m 58 758 l 200 886 l 258 886 l 364 758 l 307 758 l 222 844 l 117 758 l 58 758 z "},"̂":{"ha":0,"x_min":58,"x_max":364,"o":"m 58 758 l 200 886 l 258 886 l 364 758 l 307 758 l 222 844 l 117 758 l 58 758 z "},":":{"ha":206,"x_min":25,"x_max":146,"o":"m 107 390 q 86 399 94 390 q 79 421 78 408 q 92 442 82 433 q 115 451 103 451 q 137 442 128 451 q 143 421 146 433 q 131 399 142 408 q 107 390 119 390 m 54 -7 q 33 2 42 -7 q 26 24 25 11 q 40 45 29 36 q 63 54 50 54 q 84 45 75 54 q 90 24 93 36 q 78 2 89 11 q 54 -7 67 -7 z "},",":{"ha":257,"x_min":-3,"x_max":143,"o":"m -3 -165 q 38 -101 18 -133 q 60 -40 58 -68 q 57 -11 63 -21 q 45 8 51 -1 q 39 35 39 17 q 54 71 39 56 q 93 86 69 86 q 130 73 117 86 q 143 36 143 60 q 126 -28 143 8 q 85 -101 110 -65 q 39 -165 61 -137 l -3 -165 z "},"̦":{"ha":0,"x_min":-87,"x_max":31,"o":"m -87 -217 q -51 -163 -64 -186 q -37 -128 -37 -140 q -43 -115 -37 -119 q -54 -102 -49 -110 q -58 -82 -60 -94 q -45 -56 -58 -68 q -12 -44 -32 -44 q 19 -56 7 -44 q 29 -85 31 -67 q 15 -124 28 -100 q -15 -172 3 -147 q -50 -217 -32 -197 l -87 -217 z "},"̒":{"ha":0,"x_min":63,"x_max":181,"o":"m 181 925 q 144 872 157 894 q 131 836 132 849 q 136 824 131 829 q 147 810 142 818 q 151 790 153 803 q 137 765 150 776 q 106 753 124 753 q 74 765 86 753 q 64 793 63 776 q 78 832 65 808 q 108 881 90 856 q 143 925 126 907 l 181 925 z "},"©":{"ha":833,"x_min":43,"x_max":851,"o":"m 393 43 q 203 96 285 43 q 83 237 122 149 q 58 433 43 325 q 110 584 69 514 q 210 708 150 654 q 346 791 271 761 q 501 821 421 821 q 690 769 610 821 q 811 628 771 717 q 836 433 851 540 q 785 282 825 353 q 684 157 744 211 q 549 73 624 103 q 393 43 474 43 m 399 81 q 538 108 471 81 q 660 185 606 136 q 750 298 714 235 q 796 433 786 361 q 774 608 810 529 q 666 734 739 688 q 497 781 593 781 q 358 753 425 781 q 237 678 292 726 q 146 567 182 631 q 99 433 110 504 q 108 298 90 361 q 167 185 126 235 q 267 108 208 136 q 399 81 326 81 m 406 214 q 345 219 369 214 q 308 239 321 225 q 292 278 294 253 q 297 343 289 303 l 342 561 q 390 647 354 624 q 497 671 425 671 q 594 647 568 671 q 608 561 621 624 l 596 504 l 538 504 l 550 567 q 545 621 557 604 q 489 638 533 638 q 427 621 444 638 q 401 567 410 604 l 353 322 q 356 265 344 282 q 413 249 368 249 q 474 265 456 249 q 500 322 492 282 l 515 388 l 574 388 l 565 343 q 535 262 554 290 q 484 224 515 233 q 406 214 453 214 z "},"¤":{"ha":646,"x_min":61,"x_max":585,"o":"m 114 164 l 68 210 l 171 313 q 143 362 153 336 q 133 415 133 388 q 169 524 133 474 l 61 632 l 106 678 l 218 565 q 318 594 267 594 q 422 563 371 594 l 532 674 l 576 628 l 469 519 q 504 415 504 471 q 471 317 504 363 l 585 201 l 539 157 l 422 274 q 370 250 396 258 q 318 242 344 242 q 218 268 263 242 l 114 164 m 318 307 q 399 339 365 307 q 432 415 432 371 q 399 496 432 463 q 318 529 365 529 q 238 497 269 529 q 206 415 206 465 q 238 339 206 371 q 318 307 269 307 z "},"d":{"ha":507,"x_min":28,"x_max":510,"o":"m 176 -11 q 94 2 125 -11 q 47 40 63 15 q 30 101 32 64 q 35 185 28 138 l 82 528 q 110 617 90 579 q 167 678 129 656 q 265 700 204 700 q 351 683 322 700 q 392 643 381 667 l 424 875 l 510 875 l 386 0 l 326 0 l 328 65 q 299 30 317 47 q 252 1 282 13 q 176 -11 222 -11 m 199 42 q 263 56 239 42 q 300 94 288 71 q 319 147 313 118 q 329 203 325 175 q 355 391 342 297 q 382 579 368 485 q 372 607 381 592 q 343 633 363 622 q 288 644 324 644 q 212 625 236 644 q 179 576 188 606 q 167 513 171 546 l 119 174 q 115 125 115 149 q 119 83 114 101 q 144 53 125 64 q 199 42 163 42 z "},"†":{"ha":507,"x_min":81,"x_max":475,"o":"m 143 -171 l 232 463 l 81 463 l 88 517 l 240 517 l 282 813 l 358 813 l 318 517 l 475 517 l 467 463 l 310 463 l 219 -171 l 143 -171 z "},"‡":{"ha":511,"x_min":44,"x_max":478,"o":"m 143 -171 l 197 215 l 44 215 l 53 275 l 206 275 l 233 469 l 81 469 l 89 528 l 242 528 l 285 832 l 363 832 l 319 528 l 478 528 l 469 469 l 310 469 l 285 275 l 442 275 l 433 215 l 275 215 l 221 -171 l 143 -171 z "},"ď":{"ha":553,"x_min":28,"x_max":646,"o":"m 176 -11 q 94 2 125 -11 q 47 40 63 15 q 30 101 32 64 q 35 185 28 138 l 82 528 q 110 617 90 579 q 167 678 129 656 q 265 700 204 700 q 351 683 322 700 q 392 643 381 667 l 424 875 l 510 875 l 386 0 l 326 0 l 328 65 q 299 30 317 47 q 252 1 282 13 q 176 -11 222 -11 m 199 42 q 263 56 239 42 q 300 94 288 71 q 319 147 313 118 q 329 203 325 175 q 355 391 342 297 q 382 579 368 485 q 372 607 381 592 q 343 633 363 622 q 288 644 324 644 q 212 625 236 644 q 179 576 188 606 q 167 513 171 546 l 119 174 q 115 125 115 149 q 119 83 114 101 q 144 53 125 64 q 199 42 163 42 m 538 721 l 589 901 l 646 901 l 574 721 l 538 721 z "},"đ":{"ha":497,"x_min":28,"x_max":551,"o":"m 247 763 l 253 803 l 551 803 l 544 763 l 247 763 m 176 -11 q 94 2 125 -11 q 47 40 63 15 q 30 101 32 64 q 35 185 28 138 l 82 528 q 110 617 90 579 q 167 678 129 656 q 265 700 204 700 q 351 683 322 700 q 392 643 381 667 l 424 875 l 510 875 l 386 0 l 326 0 l 328 65 q 299 30 317 47 q 252 1 282 13 q 176 -11 222 -11 m 199 42 q 263 56 239 42 q 300 94 288 71 q 319 147 313 118 q 329 203 325 175 q 355 391 342 297 q 382 579 368 485 q 372 607 381 592 q 343 633 363 622 q 288 644 324 644 q 212 625 236 644 q 179 576 188 606 q 167 513 171 546 l 119 174 q 115 125 115 149 q 119 83 114 101 q 144 53 125 64 q 199 42 163 42 z "},"д":{"ha":690,"x_min":-33,"x_max":629,"o":"m -33 -149 l -4 54 l 58 54 q 94 68 76 57 q 126 104 111 79 q 151 169 142 129 l 276 686 l 607 686 l 519 54 l 629 54 l 599 -149 l 525 -149 l 543 -14 l 60 -14 l 42 -149 l -33 -149 m 183 54 l 426 54 l 507 622 l 346 622 l 242 192 q 220 115 233 157 q 183 54 207 72 z "},"°":{"ha":450,"x_min":51,"x_max":396,"o":"m 203 501 q 85 548 118 501 q 61 660 51 594 q 114 774 69 726 q 250 821 158 821 q 343 799 311 821 q 385 742 375 778 q 389 663 396 706 q 333 547 379 592 q 203 501 286 501 m 210 544 q 295 576 261 544 q 336 661 329 608 q 319 744 343 708 q 242 779 296 779 q 156 745 190 779 q 114 660 122 711 q 135 576 107 608 q 210 544 163 544 z "},"¨":{"ha":226,"x_min":67,"x_max":292,"o":"m 113 774 q 80 787 93 774 q 67 818 67 800 q 80 849 67 838 q 113 861 93 861 q 144 849 132 861 q 157 818 157 838 q 144 787 157 800 q 113 774 132 774 m 247 774 q 215 787 228 774 q 201 818 201 800 q 215 849 201 838 q 247 861 228 861 q 279 849 267 861 q 292 818 292 838 q 279 787 292 800 q 247 774 267 774 z "},"̈":{"ha":0,"x_min":67,"x_max":292,"o":"m 113 774 q 80 787 93 774 q 67 818 67 800 q 80 849 67 838 q 113 861 93 861 q 144 849 132 861 q 157 818 157 838 q 144 787 157 800 q 113 774 132 774 m 247 774 q 215 787 228 774 q 201 818 201 800 q 215 849 201 838 q 247 861 228 861 q 279 849 267 861 q 292 818 292 838 q 279 787 292 800 q 247 774 267 774 z "},"÷":{"ha":511,"x_min":63,"x_max":451,"o":"m 63 372 l 71 435 l 451 435 l 443 372 l 63 372 m 218 124 q 183 137 196 124 q 174 171 171 150 q 192 206 176 192 q 231 219 208 219 q 265 206 251 219 q 275 171 278 192 q 256 137 274 150 q 218 124 238 124 m 279 569 q 246 583 258 569 q 235 618 233 597 q 255 652 239 638 q 293 667 271 667 q 327 652 314 667 q 338 618 340 638 q 317 583 335 597 q 279 569 300 569 z "},"∕":{"ha":404,"x_min":-129,"x_max":557,"o":"m -129 -176 l 488 981 l 557 981 l -62 -176 l -129 -176 z "},"ђ":{"ha":557,"x_min":54,"x_max":514,"o":"m 264 -129 q 224 -124 242 -129 q 192 -110 206 -118 q 199 -88 196 -99 q 208 -67 203 -78 q 228 -76 217 -72 q 256 -79 239 -79 q 335 -40 311 -79 q 369 72 360 0 l 421 429 q 417 486 424 463 q 391 524 411 510 q 329 538 371 538 q 258 521 283 538 q 221 478 233 504 q 204 426 208 453 q 196 381 200 400 l 142 0 l 54 0 l 157 719 l 72 719 l 79 769 l 163 769 l 178 875 l 265 875 l 250 769 l 383 769 l 376 719 l 243 719 l 214 518 q 271 572 233 550 q 364 593 308 593 q 456 574 422 593 q 502 517 490 556 q 506 417 514 478 l 458 89 q 428 -33 449 11 q 382 -98 408 -78 q 326 -124 356 -118 q 264 -129 296 -129 z "},"$":{"ha":479,"x_min":14,"x_max":460,"o":"m 151 -83 l 174 72 q 42 120 71 75 q 28 267 14 165 l 35 318 l 117 318 l 108 253 q 103 188 104 218 q 122 141 103 158 q 193 124 140 124 q 265 141 242 124 q 297 184 288 158 q 308 233 306 210 l 314 272 q 310 331 319 307 q 277 374 301 356 q 213 410 253 393 q 140 450 171 429 q 93 503 108 471 q 85 586 78 536 l 90 629 q 143 738 100 697 q 274 783 186 779 l 293 929 l 343 929 l 322 783 q 431 735 403 778 q 447 603 460 693 l 439 544 l 358 544 l 368 613 q 358 708 379 682 q 288 733 338 733 q 205 706 229 733 q 175 636 181 678 l 169 597 q 178 533 164 558 q 221 491 192 508 q 290 454 250 474 q 356 419 328 439 q 397 367 385 400 q 403 279 410 335 l 399 247 q 375 167 392 206 q 323 104 358 129 q 222 74 288 79 l 200 -83 l 151 -83 z "},"˙":{"ha":92,"x_min":67,"x_max":172,"o":"m 119 769 q 83 785 99 769 q 67 821 68 800 q 83 856 67 842 q 119 871 99 871 q 157 856 142 871 q 172 821 172 842 q 157 785 172 800 q 119 769 142 769 z "},"̇":{"ha":0,"x_min":67,"x_max":172,"o":"m 119 769 q 83 785 99 769 q 67 821 68 800 q 83 856 67 842 q 119 871 99 871 q 157 856 142 871 q 172 821 172 842 q 157 785 172 800 q 119 769 142 769 z "},"̣":{"ha":0,"x_min":-62,"x_max":28,"o":"m -17 -150 q -49 -137 -36 -150 q -62 -104 -62 -124 q -49 -74 -62 -86 q -17 -61 -36 -61 q 15 -74 3 -61 q 28 -104 28 -86 q 15 -137 28 -124 q -17 -150 3 -150 z "},"↓":{"ha":715,"x_min":61,"x_max":656,"o":"m 360 0 l 61 326 l 103 368 l 325 144 l 325 992 l 393 992 l 393 146 l 614 368 l 656 325 l 360 0 z "},"ѕ":{"ha":482,"x_min":24,"x_max":465,"o":"m 192 -11 q 89 5 125 -11 q 38 48 53 21 q 24 110 24 75 q 28 183 24 144 l 35 235 l 122 235 l 113 171 q 108 106 108 135 q 126 59 107 76 q 197 42 146 42 q 268 58 244 42 q 301 101 292 75 q 314 150 310 128 l 319 189 q 315 249 325 224 q 281 292 306 274 q 215 328 257 311 q 142 367 174 346 q 95 420 110 388 q 86 504 81 453 l 92 546 q 122 629 99 594 q 188 683 144 664 q 299 701 232 701 q 403 683 365 701 q 453 625 440 665 q 456 519 465 585 l 447 461 l 364 461 l 374 529 q 363 623 382 597 q 293 649 343 649 q 210 621 235 649 q 181 553 186 593 l 175 515 q 183 450 169 475 q 226 408 196 425 q 297 372 256 390 q 363 336 335 356 q 405 285 392 317 q 411 196 418 253 l 407 164 q 382 78 401 118 q 318 14 363 39 q 192 -11 274 -11 z "},"џ":{"ha":539,"x_min":25,"x_max":514,"o":"m 165 -151 l 186 0 l 25 0 l 122 688 l 208 688 l 121 63 l 339 63 l 428 688 l 514 688 l 417 0 l 253 0 l 232 -151 l 165 -151 z "},"e":{"ha":483,"x_min":24,"x_max":483,"o":"m 196 -14 q 90 3 129 -14 q 37 62 50 19 q 33 185 24 104 l 82 531 q 149 663 97 628 q 292 697 201 697 q 442 656 401 697 q 463 511 483 614 q 410 413 450 450 q 319 354 371 375 q 217 324 267 333 q 136 313 167 315 l 117 165 q 122 68 106 96 q 201 40 139 40 q 287 67 263 40 q 321 164 311 93 l 332 247 l 418 247 l 408 175 q 374 58 397 99 q 308 2 351 18 q 196 -14 265 -14 m 144 364 q 208 374 172 367 q 278 397 243 382 q 340 441 314 413 q 375 513 365 469 q 376 612 390 575 q 296 649 361 649 q 206 622 235 649 q 167 522 176 594 l 144 364 z "},"é":{"ha":483,"x_min":24,"x_max":483,"o":"m 196 -14 q 90 3 129 -14 q 37 62 50 19 q 33 185 24 104 l 82 531 q 149 663 97 628 q 292 697 201 697 q 442 656 401 697 q 463 511 483 614 q 410 413 450 450 q 319 354 371 375 q 217 324 267 333 q 136 313 167 315 l 117 165 q 122 68 106 96 q 201 40 139 40 q 287 67 263 40 q 321 164 311 93 l 332 247 l 418 247 l 408 175 q 374 58 397 99 q 308 2 351 18 q 196 -14 265 -14 m 144 364 q 208 374 172 367 q 278 397 243 382 q 340 441 314 413 q 375 513 365 469 q 376 612 390 575 q 296 649 361 649 q 206 622 235 649 q 167 522 176 594 l 144 364 m 246 758 l 333 886 l 424 886 l 300 758 l 246 758 z "},"ě":{"ha":483,"x_min":24,"x_max":483,"o":"m 196 -14 q 90 3 129 -14 q 37 62 50 19 q 33 185 24 104 l 82 531 q 149 663 97 628 q 292 697 201 697 q 442 656 401 697 q 463 511 483 614 q 410 413 450 450 q 319 354 371 375 q 217 324 267 333 q 136 313 167 315 l 117 165 q 122 68 106 96 q 201 40 139 40 q 287 67 263 40 q 321 164 311 93 l 332 247 l 418 247 l 408 175 q 374 58 397 99 q 308 2 351 18 q 196 -14 265 -14 m 144 364 q 208 374 172 367 q 278 397 243 382 q 340 441 314 413 q 375 513 365 469 q 376 612 390 575 q 296 649 361 649 q 206 622 235 649 q 167 522 176 594 l 144 364 m 276 758 l 171 886 l 229 886 l 311 803 l 419 886 l 476 886 l 335 758 l 276 758 z "},"ê":{"ha":483,"x_min":24,"x_max":483,"o":"m 196 -14 q 90 3 129 -14 q 37 62 50 19 q 33 185 24 104 l 82 531 q 149 663 97 628 q 292 697 201 697 q 442 656 401 697 q 463 511 483 614 q 410 413 450 450 q 319 354 371 375 q 217 324 267 333 q 136 313 167 315 l 117 165 q 122 68 106 96 q 201 40 139 40 q 287 67 263 40 q 321 164 311 93 l 332 247 l 418 247 l 408 175 q 374 58 397 99 q 308 2 351 18 q 196 -14 265 -14 m 144 364 q 208 374 172 367 q 278 397 243 382 q 340 441 314 413 q 375 513 365 469 q 376 612 390 575 q 296 649 361 649 q 206 622 235 649 q 167 522 176 594 l 144 364 m 147 758 l 289 886 l 347 886 l 453 758 l 396 758 l 311 844 l 206 758 l 147 758 z "},"ế":{"ha":483,"x_min":24,"x_max":631,"o":"m 196 -14 q 90 3 129 -14 q 37 62 50 19 q 33 185 24 104 l 82 531 q 149 663 97 628 q 292 697 201 697 q 442 656 401 697 q 463 511 483 614 q 410 413 450 450 q 319 354 371 375 q 217 324 267 333 q 136 313 167 315 l 117 165 q 122 68 106 96 q 201 40 139 40 q 287 67 263 40 q 321 164 311 93 l 332 247 l 418 247 l 408 175 q 374 58 397 99 q 308 2 351 18 q 196 -14 265 -14 m 144 364 q 208 374 172 367 q 278 397 243 382 q 340 441 314 413 q 375 513 365 469 q 376 612 390 575 q 296 649 361 649 q 206 622 235 649 q 167 522 176 594 l 144 364 m 147 758 l 289 886 l 347 886 l 453 758 l 396 758 l 311 844 l 206 758 l 147 758 m 451 835 l 539 963 l 629 963 l 506 835 l 451 835 z "},"ệ":{"ha":483,"x_min":24,"x_max":483,"o":"m 196 -14 q 90 3 129 -14 q 37 62 50 19 q 33 185 24 104 l 82 531 q 149 663 97 628 q 292 697 201 697 q 442 656 401 697 q 463 511 483 614 q 410 413 450 450 q 319 354 371 375 q 217 324 267 333 q 136 313 167 315 l 117 165 q 122 68 106 96 q 201 40 139 40 q 287 67 263 40 q 321 164 311 93 l 332 247 l 418 247 l 408 175 q 374 58 397 99 q 308 2 351 18 q 196 -14 265 -14 m 144 364 q 208 374 172 367 q 278 397 243 382 q 340 441 314 413 q 375 513 365 469 q 376 612 390 575 q 296 649 361 649 q 206 622 235 649 q 167 522 176 594 l 144 364 m 178 -150 q 145 -137 158 -150 q 132 -104 132 -124 q 145 -74 132 -86 q 178 -61 158 -61 q 210 -74 197 -61 q 222 -104 222 -86 q 210 -137 222 -124 q 178 -150 197 -150 m 147 758 l 289 886 l 347 886 l 453 758 l 396 758 l 311 844 l 206 758 l 147 758 z "},"ề":{"ha":483,"x_min":24,"x_max":553,"o":"m 196 -14 q 90 3 129 -14 q 37 62 50 19 q 33 185 24 104 l 82 531 q 149 663 97 628 q 292 697 201 697 q 442 656 401 697 q 463 511 483 614 q 410 413 450 450 q 319 354 371 375 q 217 324 267 333 q 136 313 167 315 l 117 165 q 122 68 106 96 q 201 40 139 40 q 287 67 263 40 q 321 164 311 93 l 332 247 l 418 247 l 408 175 q 374 58 397 99 q 308 2 351 18 q 196 -14 265 -14 m 144 364 q 208 374 172 367 q 278 397 243 382 q 340 441 314 413 q 375 513 365 469 q 376 612 390 575 q 296 649 361 649 q 206 622 235 649 q 167 522 176 594 l 144 364 m 147 758 l 289 886 l 347 886 l 453 758 l 396 758 l 311 844 l 206 758 l 147 758 m 499 835 l 401 963 l 492 963 l 553 835 l 499 835 z "},"ể":{"ha":483,"x_min":24,"x_max":600,"o":"m 196 -14 q 90 3 129 -14 q 37 62 50 19 q 33 185 24 104 l 82 531 q 149 663 97 628 q 292 697 201 697 q 442 656 401 697 q 463 511 483 614 q 410 413 450 450 q 319 354 371 375 q 217 324 267 333 q 136 313 167 315 l 117 165 q 122 68 106 96 q 201 40 139 40 q 287 67 263 40 q 321 164 311 93 l 332 247 l 418 247 l 408 175 q 374 58 397 99 q 308 2 351 18 q 196 -14 265 -14 m 144 364 q 208 374 172 367 q 278 397 243 382 q 340 441 314 413 q 375 513 365 469 q 376 612 390 575 q 296 649 361 649 q 206 622 235 649 q 167 522 176 594 l 144 364 m 147 758 l 289 886 l 347 886 l 453 758 l 396 758 l 311 844 l 206 758 l 147 758 m 475 825 l 479 854 q 497 881 482 874 q 528 895 513 888 q 544 924 543 903 l 544 932 q 540 960 546 947 q 513 974 535 974 q 474 940 483 974 l 431 949 q 463 994 440 978 q 522 1010 485 1010 q 583 988 567 1010 q 597 929 600 967 l 597 925 q 584 887 594 899 q 560 870 574 875 q 537 861 547 865 q 526 844 526 857 l 524 825 l 475 825 z "},"ễ":{"ha":483,"x_min":24,"x_max":483,"o":"m 196 -14 q 90 3 129 -14 q 37 62 50 19 q 33 185 24 104 l 82 531 q 149 663 97 628 q 292 697 201 697 q 442 656 401 697 q 463 511 483 614 q 410 413 450 450 q 319 354 371 375 q 217 324 267 333 q 136 313 167 315 l 117 165 q 122 68 106 96 q 201 40 139 40 q 287 67 263 40 q 321 164 311 93 l 332 247 l 418 247 l 408 175 q 374 58 397 99 q 308 2 351 18 q 196 -14 265 -14 m 144 364 q 208 374 172 367 q 278 397 243 382 q 340 441 314 413 q 375 513 365 469 q 376 612 390 575 q 296 649 361 649 q 206 622 235 649 q 167 522 176 594 l 144 364 m 147 758 l 289 886 l 347 886 l 453 758 l 396 758 l 311 844 l 206 758 l 147 758 m 376 918 q 346 924 358 918 q 315 943 333 931 q 291 959 304 950 q 261 968 278 968 q 231 956 244 968 q 211 919 218 944 l 178 919 q 210 988 186 961 q 268 1014 235 1014 q 303 1006 288 1014 q 333 986 319 997 q 358 972 347 978 q 385 965 369 965 q 415 976 403 965 q 435 1010 428 986 l 471 1010 q 435 943 463 968 q 376 918 408 918 z "},"ë":{"ha":483,"x_min":24,"x_max":483,"o":"m 196 -14 q 90 3 129 -14 q 37 62 50 19 q 33 185 24 104 l 82 531 q 149 663 97 628 q 292 697 201 697 q 442 656 401 697 q 463 511 483 614 q 410 413 450 450 q 319 354 371 375 q 217 324 267 333 q 136 313 167 315 l 117 165 q 122 68 106 96 q 201 40 139 40 q 287 67 263 40 q 321 164 311 93 l 332 247 l 418 247 l 408 175 q 374 58 397 99 q 308 2 351 18 q 196 -14 265 -14 m 144 364 q 208 374 172 367 q 278 397 243 382 q 340 441 314 413 q 375 513 365 469 q 376 612 390 575 q 296 649 361 649 q 206 622 235 649 q 167 522 176 594 l 144 364 m 240 774 q 208 787 221 774 q 194 818 194 800 q 208 849 194 838 q 240 861 221 861 q 272 849 260 861 q 285 818 285 838 q 272 787 285 800 q 240 774 260 774 m 375 774 q 342 787 356 774 q 329 818 329 800 q 342 849 329 838 q 375 861 356 861 q 407 849 394 861 q 419 818 419 838 q 407 787 419 800 q 375 774 394 774 z "},"ė":{"ha":483,"x_min":24,"x_max":483,"o":"m 196 -14 q 90 3 129 -14 q 37 62 50 19 q 33 185 24 104 l 82 531 q 149 663 97 628 q 292 697 201 697 q 442 656 401 697 q 463 511 483 614 q 410 413 450 450 q 319 354 371 375 q 217 324 267 333 q 136 313 167 315 l 117 165 q 122 68 106 96 q 201 40 139 40 q 287 67 263 40 q 321 164 311 93 l 332 247 l 418 247 l 408 175 q 374 58 397 99 q 308 2 351 18 q 196 -14 265 -14 m 144 364 q 208 374 172 367 q 278 397 243 382 q 340 441 314 413 q 375 513 365 469 q 376 612 390 575 q 296 649 361 649 q 206 622 235 649 q 167 522 176 594 l 144 364 m 308 769 q 272 785 288 769 q 256 821 257 800 q 272 856 256 842 q 308 871 288 871 q 346 856 331 871 q 361 821 361 842 q 346 785 361 800 q 308 769 331 769 z "},"ẹ":{"ha":483,"x_min":24,"x_max":483,"o":"m 196 -14 q 90 3 129 -14 q 37 62 50 19 q 33 185 24 104 l 82 531 q 149 663 97 628 q 292 697 201 697 q 442 656 401 697 q 463 511 483 614 q 410 413 450 450 q 319 354 371 375 q 217 324 267 333 q 136 313 167 315 l 117 165 q 122 68 106 96 q 201 40 139 40 q 287 67 263 40 q 321 164 311 93 l 332 247 l 418 247 l 408 175 q 374 58 397 99 q 308 2 351 18 q 196 -14 265 -14 m 144 364 q 208 374 172 367 q 278 397 243 382 q 340 441 314 413 q 375 513 365 469 q 376 612 390 575 q 296 649 361 649 q 206 622 235 649 q 167 522 176 594 l 144 364 m 178 -150 q 145 -137 158 -150 q 132 -104 132 -124 q 145 -74 132 -86 q 178 -61 158 -61 q 210 -74 197 -61 q 222 -104 222 -86 q 210 -137 222 -124 q 178 -150 197 -150 z "},"ф":{"ha":815,"x_min":22,"x_max":782,"o":"m 293 -161 l 324 44 q 267 5 301 19 q 181 -10 233 -10 q 51 42 79 -10 q 36 189 22 94 l 74 461 q 101 561 82 519 q 163 625 121 603 q 275 647 204 647 q 358 632 326 647 q 399 589 389 617 l 432 821 l 518 821 l 485 590 q 538 632 501 617 q 622 647 574 647 q 729 625 694 647 q 773 561 764 603 q 774 461 782 519 l 736 189 q 680 42 722 94 q 535 -10 638 -10 q 453 5 483 -10 q 408 46 424 19 l 379 -161 l 293 -161 m 206 40 q 282 60 254 40 q 323 110 310 79 q 340 169 336 140 l 381 456 q 383 523 386 490 q 359 576 381 556 q 285 597 338 597 q 211 578 236 597 q 176 528 186 560 q 160 457 165 497 l 121 176 q 119 108 115 139 q 142 58 122 76 q 206 40 163 40 m 525 40 q 594 58 569 40 q 632 108 619 76 q 649 176 644 139 l 689 457 q 692 528 694 497 q 671 578 690 560 q 603 597 651 597 q 526 578 554 597 q 485 530 499 560 q 468 467 472 500 l 426 175 q 427 113 422 143 q 455 61 432 82 q 525 40 478 40 z "},"è":{"ha":483,"x_min":24,"x_max":483,"o":"m 196 -14 q 90 3 129 -14 q 37 62 50 19 q 33 185 24 104 l 82 531 q 149 663 97 628 q 292 697 201 697 q 442 656 401 697 q 463 511 483 614 q 410 413 450 450 q 319 354 371 375 q 217 324 267 333 q 136 313 167 315 l 117 165 q 122 68 106 96 q 201 40 139 40 q 287 67 263 40 q 321 164 311 93 l 332 247 l 418 247 l 408 175 q 374 58 397 99 q 308 2 351 18 q 196 -14 265 -14 m 144 364 q 208 374 172 367 q 278 397 243 382 q 340 441 314 413 q 375 513 365 469 q 376 612 390 575 q 296 649 361 649 q 206 622 235 649 q 167 522 176 594 l 144 364 m 292 758 l 194 886 l 285 886 l 346 758 l 292 758 z "},"ẻ":{"ha":483,"x_min":24,"x_max":483,"o":"m 196 -14 q 90 3 129 -14 q 37 62 50 19 q 33 185 24 104 l 82 531 q 149 663 97 628 q 292 697 201 697 q 442 656 401 697 q 463 511 483 614 q 410 413 450 450 q 319 354 371 375 q 217 324 267 333 q 136 313 167 315 l 117 165 q 122 68 106 96 q 201 40 139 40 q 287 67 263 40 q 321 164 311 93 l 332 247 l 418 247 l 408 175 q 374 58 397 99 q 308 2 351 18 q 196 -14 265 -14 m 144 364 q 208 374 172 367 q 278 397 243 382 q 340 441 314 413 q 375 513 365 469 q 376 612 390 575 q 296 649 361 649 q 206 622 235 649 q 167 522 176 594 l 144 364 m 269 749 l 274 778 q 292 804 276 797 q 322 819 307 811 q 339 847 338 826 l 339 856 q 335 884 340 871 q 307 897 329 897 q 268 864 278 897 l 225 872 q 257 917 235 901 q 317 933 279 933 q 378 912 361 933 q 392 853 394 890 l 392 849 q 378 810 389 822 q 355 794 368 799 q 331 785 342 789 q 321 768 321 781 l 318 749 l 269 749 z "},"л":{"ha":558,"x_min":-25,"x_max":533,"o":"m -25 0 l -18 50 q 17 61 1 50 q 46 96 33 72 q 65 153 58 119 l 186 686 l 533 686 l 436 0 l 349 0 l 436 624 l 264 624 l 149 129 q 138 89 144 111 q 117 47 131 67 q 81 13 104 26 q 24 0 58 0 l -25 0 z "},"…":{"ha":651,"x_min":24,"x_max":542,"o":"m 72 -10 q 38 6 51 -10 q 26 42 24 21 q 48 78 31 63 q 86 93 65 93 q 123 78 108 93 q 133 42 138 63 q 113 6 131 21 q 72 -10 94 -10 m 276 -10 q 242 5 256 -10 q 231 40 228 19 q 252 77 235 63 q 292 92 269 92 q 327 77 313 92 q 339 40 342 63 q 317 5 335 19 q 276 -10 299 -10 m 478 -10 q 442 5 456 -10 q 432 40 429 19 q 453 77 435 63 q 492 92 471 92 q 528 77 514 92 q 539 40 542 63 q 518 5 536 19 q 478 -10 500 -10 z "},"м":{"ha":657,"x_min":10,"x_max":647,"o":"m 10 0 l 107 688 l 208 688 l 297 114 l 550 688 l 647 688 l 550 0 l 478 0 l 553 536 l 313 0 l 249 0 l 160 536 l 83 0 l 10 0 z "},"ē":{"ha":483,"x_min":24,"x_max":483,"o":"m 196 -14 q 90 3 129 -14 q 37 62 50 19 q 33 185 24 104 l 82 531 q 149 663 97 628 q 292 697 201 697 q 442 656 401 697 q 463 511 483 614 q 410 413 450 450 q 319 354 371 375 q 217 324 267 333 q 136 313 167 315 l 117 165 q 122 68 106 96 q 201 40 139 40 q 287 67 263 40 q 321 164 311 93 l 332 247 l 418 247 l 408 175 q 374 58 397 99 q 308 2 351 18 q 196 -14 265 -14 m 144 364 q 208 374 172 367 q 278 397 243 382 q 340 441 314 413 q 375 513 365 469 q 376 612 390 575 q 296 649 361 649 q 206 622 235 649 q 167 522 176 594 l 144 364 m 172 786 l 178 833 l 436 833 l 431 786 l 172 786 z "},"—":{"ha":832,"x_min":28,"x_max":804,"o":"m 28 336 l 36 397 l 804 397 l 796 336 l 28 336 z "},"∅":{"ha":568,"x_min":0,"x_max":631,"o":"m 0 85 l 546 782 l 578 782 l 31 85 l 0 85 m 211 -17 q 112 10 153 -17 q 58 92 71 36 q 71 238 46 149 l 172 592 q 284 774 206 715 q 453 832 363 832 q 587 773 543 832 q 597 592 631 714 l 497 238 q 428 91 472 147 q 328 9 385 35 q 211 -17 272 -17 m 228 38 q 330 81 282 38 q 400 203 378 124 l 514 611 q 513 733 538 690 q 436 776 489 776 q 334 733 382 776 q 263 611 286 690 l 149 203 q 151 81 126 124 q 228 38 175 38 z "},"н":{"ha":507,"x_min":10,"x_max":497,"o":"m 10 0 l 107 688 l 193 688 l 151 394 l 369 394 l 411 688 l 497 688 l 400 0 l 314 0 l 361 328 l 143 328 l 96 0 l 10 0 z "},"–":{"ha":507,"x_min":28,"x_max":479,"o":"m 28 336 l 36 397 l 479 397 l 469 336 l 28 336 z "},"ŋ":{"ha":515,"x_min":25,"x_max":482,"o":"m 199 -156 q 176 -154 188 -156 q 156 -150 164 -153 l 163 -104 q 171 -104 164 -104 q 186 -105 178 -104 q 199 -106 194 -106 q 277 -88 247 -106 q 315 -19 307 -71 l 389 506 q 394 553 392 529 q 390 595 396 576 q 364 625 383 614 q 306 636 344 636 q 247 623 269 636 q 210 592 224 610 q 190 560 197 575 l 111 0 l 25 0 l 122 688 l 193 688 l 192 613 q 256 678 214 658 q 340 699 297 699 q 425 684 394 699 q 468 644 456 669 q 481 585 481 618 q 476 517 482 553 l 404 4 q 366 -97 396 -62 q 293 -144 336 -132 q 199 -156 250 -156 z "},"ę":{"ha":483,"x_min":24,"x_max":483,"o":"m 196 -14 q 90 3 129 -14 q 37 62 50 19 q 33 185 24 104 l 82 531 q 149 663 97 628 q 292 697 201 697 q 442 656 401 697 q 463 511 483 614 q 410 413 450 450 q 319 354 371 375 q 217 324 267 333 q 136 313 167 315 l 117 165 q 122 68 106 96 q 201 40 139 40 q 287 67 263 40 q 321 164 311 93 l 332 247 l 418 247 l 408 175 q 374 58 397 99 q 308 2 351 18 q 196 -14 265 -14 m 144 364 q 208 374 172 367 q 278 397 243 382 q 340 441 314 413 q 375 513 365 469 q 376 612 390 575 q 296 649 361 649 q 206 622 235 649 q 167 522 176 594 l 144 364 m 201 -187 q 136 -165 161 -187 q 117 -107 111 -142 q 154 -39 122 -68 q 222 1 186 -10 l 267 0 q 205 -43 228 -17 q 178 -96 182 -69 q 190 -136 175 -122 q 224 -150 206 -150 q 246 -147 236 -150 q 261 -142 256 -144 l 269 -171 q 243 -182 260 -176 q 201 -187 226 -187 z "},"=":{"ha":579,"x_min":44,"x_max":535,"o":"m 86 513 l 94 576 l 535 576 l 526 513 l 86 513 m 44 218 l 53 282 l 493 282 l 485 218 l 44 218 z "},"р":{"ha":508,"x_min":4,"x_max":485,"o":"m 4 -161 l 122 688 l 203 688 l 197 626 q 244 676 214 656 q 339 697 275 697 q 436 675 404 697 q 476 614 468 653 q 478 524 485 575 l 429 185 q 403 83 421 128 q 347 15 385 39 q 240 -10 308 -10 q 158 7 188 -10 q 118 49 129 24 l 89 -161 l 4 -161 m 221 44 q 297 63 272 44 q 329 113 321 82 q 343 175 338 143 l 389 510 q 394 558 393 535 q 390 601 396 582 q 364 630 383 619 q 306 640 344 640 q 244 626 267 640 q 208 591 221 613 q 190 543 196 569 q 182 493 185 517 l 135 165 q 133 104 131 132 q 154 60 135 76 q 221 44 174 44 z "},"э":{"ha":507,"x_min":29,"x_max":478,"o":"m 206 -11 q 108 1 146 -11 q 53 40 71 14 q 33 104 36 65 q 38 194 29 143 l 43 240 l 129 240 l 121 172 q 118 104 117 135 q 140 56 119 74 q 213 38 161 38 q 290 56 265 38 q 325 106 315 75 q 339 169 335 136 l 360 324 l 149 324 l 157 382 l 368 382 l 388 517 q 392 564 390 540 q 386 607 393 588 q 358 638 379 626 q 299 649 338 649 q 222 631 247 649 q 185 583 196 613 q 169 514 175 553 l 161 460 l 75 460 l 82 513 q 111 610 90 568 q 178 675 132 651 q 306 699 225 699 q 403 684 368 699 q 456 644 439 669 q 475 586 472 619 q 474 514 478 553 l 428 192 q 398 83 419 129 q 332 13 376 38 q 206 -11 288 -11 z "},"с":{"ha":483,"x_min":26,"x_max":472,"o":"m 196 -14 q 111 -6 146 -14 q 56 24 76 3 q 31 85 36 46 q 35 186 26 125 l 82 531 q 146 664 97 628 q 296 700 194 700 q 433 664 394 700 q 458 531 472 628 l 446 440 l 360 440 l 374 538 q 366 624 382 597 q 288 651 350 651 q 203 624 228 651 q 169 538 179 597 l 117 157 q 124 64 108 90 q 201 38 140 38 q 286 64 263 38 q 319 157 310 90 l 335 257 l 421 257 l 411 186 q 374 61 400 104 q 305 2 349 18 q 196 -14 261 -14 z "},"ð":{"ha":497,"x_min":24,"x_max":510,"o":"m 190 -11 q 126 -6 157 -11 q 70 16 94 -1 q 35 72 46 33 q 33 176 24 110 l 79 508 q 120 622 92 585 q 190 669 149 658 q 279 681 231 681 q 343 672 311 681 q 386 638 375 664 q 393 758 394 708 q 368 834 392 807 q 283 861 344 861 q 215 855 247 861 q 157 843 183 849 l 165 900 q 223 913 188 906 q 304 921 258 921 q 440 881 401 921 q 480 760 479 842 q 463 549 481 678 l 415 221 q 394 128 408 171 q 353 56 379 86 q 288 7 328 25 q 190 -11 247 -11 m 197 39 q 269 62 243 39 q 308 120 294 85 q 326 192 321 156 l 376 556 q 371 583 378 565 q 342 617 364 601 q 279 632 321 632 q 215 617 238 632 q 183 575 192 601 q 167 511 174 549 l 115 144 q 117 85 110 107 q 139 54 125 64 q 169 42 153 44 q 197 39 185 39 m 251 735 l 229 765 l 489 961 l 510 929 l 251 735 z "},"ẽ":{"ha":483,"x_min":24,"x_max":483,"o":"m 196 -14 q 90 3 129 -14 q 37 62 50 19 q 33 185 24 104 l 82 531 q 149 663 97 628 q 292 697 201 697 q 442 656 401 697 q 463 511 483 614 q 410 413 450 450 q 319 354 371 375 q 217 324 267 333 q 136 313 167 315 l 117 165 q 122 68 106 96 q 201 40 139 40 q 287 67 263 40 q 321 164 311 93 l 332 247 l 418 247 l 408 175 q 374 58 397 99 q 308 2 351 18 q 196 -14 265 -14 m 144 364 q 208 374 172 367 q 278 397 243 382 q 340 441 314 413 q 375 513 365 469 q 376 612 390 575 q 296 649 361 649 q 206 622 235 649 q 167 522 176 594 l 144 364 m 360 769 q 329 776 342 769 q 299 794 317 782 q 274 810 288 801 q 244 819 261 819 q 215 808 228 819 q 194 771 201 796 l 161 771 q 194 839 169 813 q 251 865 218 865 q 287 857 271 865 q 317 838 303 849 q 342 823 331 829 q 368 817 353 817 q 399 827 386 817 q 418 861 411 838 l 454 861 q 419 794 446 819 q 360 769 392 769 z "},"€":{"ha":633,"x_min":46,"x_max":618,"o":"m 306 -17 q 201 -3 246 -17 q 137 55 157 11 q 128 188 117 99 l 147 326 l 46 326 l 68 365 l 153 365 l 165 450 l 63 450 l 85 488 l 171 488 l 193 649 q 237 765 204 726 q 318 818 269 804 q 425 832 367 832 q 531 817 486 832 q 597 764 575 803 q 607 649 618 725 l 601 607 l 513 607 l 519 651 q 515 733 526 706 q 478 768 503 760 q 417 776 453 776 q 354 768 383 776 q 306 733 325 760 q 279 651 288 706 l 257 488 l 468 488 l 444 450 l 251 450 l 240 365 l 396 365 l 374 326 l 233 326 l 211 164 q 215 81 204 108 q 253 46 226 54 q 313 38 279 38 q 376 46 349 38 q 424 81 404 54 q 450 164 443 108 l 463 242 l 550 242 l 542 189 q 497 55 529 99 q 415 -3 464 11 q 306 -17 367 -17 z "},"!":{"ha":246,"x_min":11,"x_max":229,"o":"m 71 268 l 88 504 l 138 875 l 229 875 l 174 507 l 124 268 l 71 268 m 61 -8 q 24 7 38 -8 q 13 44 11 22 q 35 81 17 65 q 76 96 53 96 q 115 81 100 96 q 126 44 131 65 q 104 7 124 22 q 61 -8 85 -8 z "},"¡":{"ha":246,"x_min":33,"x_max":222,"o":"m 111 414 l 164 414 l 158 175 l 125 -193 l 33 -193 l 72 178 l 111 414 m 167 690 q 206 675 190 690 q 221 638 222 660 q 202 601 219 617 q 161 586 185 586 q 122 601 138 586 q 108 638 107 617 q 127 675 110 660 q 167 690 144 690 z "},"f":{"ha":322,"x_min":31,"x_max":394,"o":"m 31 0 l 117 607 l 72 607 l 81 661 l 124 661 l 135 744 q 163 826 143 796 q 213 868 182 856 q 279 881 243 881 q 324 880 301 881 q 366 877 347 879 q 394 875 385 875 l 389 826 q 359 830 389 826 q 296 833 329 833 q 242 803 260 833 q 221 742 225 774 l 208 661 l 364 661 l 357 607 l 201 607 l 115 0 l 31 0 z "},"ﬁ":{"ha":546,"x_min":31,"x_max":554,"o":"m 31 0 l 117 607 l 72 607 l 81 661 l 124 661 l 135 744 q 163 826 143 796 q 213 868 182 856 q 279 881 243 881 q 324 880 301 881 q 366 877 347 879 q 394 875 385 875 l 389 826 q 359 830 389 826 q 296 833 329 833 q 242 803 260 833 q 221 742 225 774 l 208 661 l 364 661 l 357 607 l 201 607 l 115 0 l 31 0 m 339 0 l 436 688 l 521 688 l 424 0 l 339 0 m 500 769 q 464 785 479 769 q 447 821 449 800 q 463 856 447 842 q 500 871 479 871 q 538 856 522 871 q 553 821 553 842 q 538 785 553 800 q 500 769 522 769 z "},"ﬂ":{"ha":554,"x_min":31,"x_max":557,"o":"m 31 0 l 117 607 l 72 607 l 81 661 l 124 661 l 135 744 q 163 826 143 796 q 213 868 182 856 q 279 881 243 881 q 324 880 301 881 q 366 877 347 879 q 394 875 385 875 l 389 826 q 359 830 389 826 q 296 833 329 833 q 242 803 260 833 q 221 742 225 774 l 208 661 l 364 661 l 357 607 l 201 607 l 115 0 l 31 0 m 347 0 l 471 881 l 557 881 l 432 0 l 347 0 z "},"ƒ":{"ha":438,"x_min":-206,"x_max":494,"o":"m -103 -203 q -143 -201 -121 -203 q -183 -199 -165 -200 q -206 -197 -200 -197 l -193 -143 l -110 -149 q -52 -136 -75 -150 q -15 -96 -29 -122 q 8 -32 -1 -69 l 163 556 l 92 556 l 103 606 l 175 606 l 211 735 q 269 840 232 806 q 364 874 307 874 q 397 874 378 874 q 434 873 415 874 q 469 871 453 872 q 494 868 485 869 l 481 815 q 444 820 471 818 q 385 822 417 822 q 322 791 342 822 q 292 724 301 760 l 258 606 l 407 606 l 396 556 l 246 556 l 88 -53 q 22 -165 68 -126 q -103 -203 -25 -203 z "},"⁴":{"ha":336,"x_min":19,"x_max":326,"o":"m 192 328 l 206 428 l 19 428 l 28 476 l 265 821 l 322 821 l 274 469 l 326 469 l 319 428 l 267 428 l 253 328 l 192 328 m 79 469 l 213 469 l 246 707 l 79 469 z "},"⁄":{"ha":418,"x_min":-158,"x_max":464,"o":"m -158 0 l 401 815 l 464 815 l -97 0 l -158 0 z "},"₣":{"ha":522,"x_min":24,"x_max":531,"o":"m 61 0 l 89 199 l 24 199 l 29 243 l 96 243 l 178 821 l 531 821 l 522 758 l 258 758 l 217 464 l 426 464 l 417 394 l 207 394 l 186 243 l 313 243 l 307 199 l 181 199 l 151 0 l 61 0 z "},"g":{"ha":497,"x_min":29,"x_max":481,"o":"m 163 -162 q 125 -161 146 -162 q 85 -158 104 -160 q 51 -155 65 -157 q 33 -151 38 -153 l 40 -101 q 88 -107 57 -103 q 143 -111 118 -111 q 183 -109 160 -111 q 232 -94 207 -107 q 277 -52 257 -81 q 304 29 297 -24 l 317 124 q 284 76 304 97 q 235 44 264 56 q 167 32 207 32 q 115 37 142 32 q 68 58 89 42 q 38 112 47 75 q 39 214 29 149 l 83 533 q 120 640 94 606 q 183 685 146 674 q 260 696 219 696 q 316 691 289 696 q 363 672 343 686 q 388 631 383 658 l 406 685 l 481 685 l 393 58 q 367 -37 386 4 q 318 -106 347 -78 q 249 -149 289 -135 q 163 -162 210 -162 m 204 88 q 276 110 250 88 q 315 169 301 133 q 332 240 328 204 l 379 578 q 367 606 376 590 q 338 632 357 621 q 281 643 318 643 q 204 618 231 643 q 168 526 178 593 l 122 193 q 124 135 117 157 q 147 103 132 113 q 177 90 161 93 q 204 88 193 88 z "},"ğ":{"ha":497,"x_min":29,"x_max":481,"o":"m 163 -162 q 125 -161 146 -162 q 85 -158 104 -160 q 51 -155 65 -157 q 33 -151 38 -153 l 40 -101 q 88 -107 57 -103 q 143 -111 118 -111 q 183 -109 160 -111 q 232 -94 207 -107 q 277 -52 257 -81 q 304 29 297 -24 l 317 124 q 284 76 304 97 q 235 44 264 56 q 167 32 207 32 q 115 37 142 32 q 68 58 89 42 q 38 112 47 75 q 39 214 29 149 l 83 533 q 120 640 94 606 q 183 685 146 674 q 260 696 219 696 q 316 691 289 696 q 363 672 343 686 q 388 631 383 658 l 406 685 l 481 685 l 393 58 q 367 -37 386 4 q 318 -106 347 -78 q 249 -149 289 -135 q 163 -162 210 -162 m 204 88 q 276 110 250 88 q 315 169 301 133 q 332 240 328 204 l 379 578 q 367 606 376 590 q 338 632 357 621 q 281 643 318 643 q 204 618 231 643 q 168 526 178 593 l 122 193 q 124 135 117 157 q 147 103 132 113 q 177 90 161 93 q 204 88 193 88 m 306 757 q 242 769 267 757 q 205 801 217 782 q 190 842 193 821 q 188 881 186 863 l 240 881 q 260 822 239 842 q 314 803 281 803 q 376 822 350 803 q 411 881 401 840 l 463 881 q 439 824 457 853 q 388 776 421 796 q 306 757 356 757 z "},"ģ":{"ha":497,"x_min":29,"x_max":481,"o":"m 388 925 q 351 872 364 894 q 338 836 339 849 q 343 824 338 829 q 354 810 349 818 q 358 790 360 803 q 344 765 357 776 q 313 753 331 753 q 281 765 293 753 q 271 793 269 776 q 285 832 272 808 q 315 881 297 856 q 350 925 333 907 l 388 925 m 163 -162 q 125 -161 146 -162 q 85 -158 104 -160 q 51 -155 65 -157 q 33 -151 38 -153 l 40 -101 q 88 -107 57 -103 q 143 -111 118 -111 q 183 -109 160 -111 q 232 -94 207 -107 q 277 -52 257 -81 q 304 29 297 -24 l 317 124 q 284 76 304 97 q 235 44 264 56 q 167 32 207 32 q 115 37 142 32 q 68 58 89 42 q 38 112 47 75 q 39 214 29 149 l 83 533 q 120 640 94 606 q 183 685 146 674 q 260 696 219 696 q 316 691 289 696 q 363 672 343 686 q 388 631 383 658 l 406 685 l 481 685 l 393 58 q 367 -37 386 4 q 318 -106 347 -78 q 249 -149 289 -135 q 163 -162 210 -162 m 204 88 q 276 110 250 88 q 315 169 301 133 q 332 240 328 204 l 379 578 q 367 606 376 590 q 338 632 357 621 q 281 643 318 643 q 204 618 231 643 q 168 526 178 593 l 122 193 q 124 135 117 157 q 147 103 132 113 q 177 90 161 93 q 204 88 193 88 z "},"ġ":{"ha":497,"x_min":29,"x_max":481,"o":"m 163 -162 q 125 -161 146 -162 q 85 -158 104 -160 q 51 -155 65 -157 q 33 -151 38 -153 l 40 -101 q 88 -107 57 -103 q 143 -111 118 -111 q 183 -109 160 -111 q 232 -94 207 -107 q 277 -52 257 -81 q 304 29 297 -24 l 317 124 q 284 76 304 97 q 235 44 264 56 q 167 32 207 32 q 115 37 142 32 q 68 58 89 42 q 38 112 47 75 q 39 214 29 149 l 83 533 q 120 640 94 606 q 183 685 146 674 q 260 696 219 696 q 316 691 289 696 q 363 672 343 686 q 388 631 383 658 l 406 685 l 481 685 l 393 58 q 367 -37 386 4 q 318 -106 347 -78 q 249 -149 289 -135 q 163 -162 210 -162 m 204 88 q 276 110 250 88 q 315 169 301 133 q 332 240 328 204 l 379 578 q 367 606 376 590 q 338 632 357 621 q 281 643 318 643 q 204 618 231 643 q 168 526 178 593 l 122 193 q 124 135 117 157 q 147 103 132 113 q 177 90 161 93 q 204 88 193 88 m 317 769 q 281 785 296 769 q 264 821 265 800 q 280 856 264 842 q 317 871 296 871 q 354 856 339 871 q 369 821 369 842 q 354 785 369 800 q 317 769 339 769 z "},"г":{"ha":399,"x_min":25,"x_max":440,"o":"m 25 0 l 122 688 l 440 688 l 431 624 l 203 624 l 115 0 l 25 0 z "},"ß":{"ha":543,"x_min":-128,"x_max":557,"o":"m -56 -204 q -94 -202 -71 -204 q -128 -199 -117 -200 q -127 -189 -128 -196 q -125 -173 -126 -182 q -123 -157 -124 -164 q -122 -147 -122 -150 l -103 -150 q -85 -152 -96 -151 q -61 -153 -75 -153 q 11 -124 -10 -153 q 38 -54 32 -94 l 132 625 l 85 625 l 93 688 l 143 688 l 147 725 q 175 811 156 778 q 240 860 194 844 q 367 876 285 876 q 510 847 464 876 q 546 740 557 817 l 528 608 q 488 514 519 550 q 424 475 457 478 l 422 469 q 469 451 447 467 q 503 408 490 436 q 508 339 515 381 l 485 168 q 446 60 475 96 q 373 12 417 24 q 271 0 329 0 l 176 0 l 183 50 l 268 50 q 329 61 304 50 q 372 104 354 72 q 397 200 389 136 l 417 332 q 410 399 422 374 q 372 433 397 424 q 308 443 346 443 l 257 443 l 264 494 l 335 494 q 413 526 390 494 q 444 614 436 558 l 458 718 q 444 802 467 775 q 360 829 422 829 q 283 813 310 829 q 247 772 257 797 q 232 721 236 747 l 126 -39 q 103 -117 119 -85 q 63 -168 86 -149 q 8 -196 39 -187 q -56 -204 -22 -204 z "},"ѓ":{"ha":399,"x_min":25,"x_max":440,"o":"m 25 0 l 122 688 l 440 688 l 431 624 l 203 624 l 115 0 l 25 0 m 239 758 l 326 886 l 417 886 l 293 758 l 239 758 z "},"`":{"ha":168,"x_min":76,"x_max":228,"o":"m 174 758 l 76 886 l 167 886 l 228 758 l 174 758 z "},"̀":{"ha":0,"x_min":76,"x_max":228,"o":"m 174 758 l 76 886 l 167 886 l 228 758 l 174 758 z "},">":{"ha":472,"x_min":35,"x_max":407,"o":"m 35 200 l 47 288 l 325 456 l 94 625 l 106 710 l 407 485 l 397 425 l 35 200 z "},"≥":{"ha":492,"x_min":32,"x_max":456,"o":"m 57 214 l 68 258 l 413 453 l 178 650 l 189 693 l 456 472 l 444 435 l 57 214 m 32 -1 l 40 28 l 356 28 l 349 -1 l 32 -1 z "},"«":{"ha":658,"x_min":60,"x_max":633,"o":"m 467 151 l 329 399 l 549 663 l 633 663 l 415 399 l 551 151 l 467 151 m 197 151 l 60 399 l 281 663 l 364 663 l 146 399 l 281 151 l 197 151 z "},"»":{"ha":658,"x_min":35,"x_max":597,"o":"m 306 151 l 510 399 l 367 663 l 450 663 l 597 399 l 389 151 l 306 151 m 35 151 l 242 399 l 97 663 l 181 663 l 326 399 l 119 151 l 35 151 z "},"‹":{"ha":388,"x_min":60,"x_max":363,"o":"m 197 151 l 60 399 l 279 663 l 363 663 l 146 399 l 281 151 l 197 151 z "},"›":{"ha":388,"x_min":35,"x_max":326,"o":"m 35 151 l 240 399 l 97 663 l 181 663 l 326 399 l 118 151 l 35 151 z "},"h":{"ha":515,"x_min":26,"x_max":482,"o":"m 26 0 l 149 875 l 231 875 l 194 629 q 252 680 215 661 q 340 699 289 699 q 425 683 394 699 q 469 643 456 668 q 482 585 482 618 q 476 517 482 553 l 404 0 l 318 0 l 389 499 q 393 542 392 519 q 388 585 394 565 q 362 617 381 604 q 304 629 343 629 q 242 618 267 629 q 206 591 218 607 q 192 564 194 575 l 113 0 l 26 0 z "},"х":{"ha":431,"x_min":-37,"x_max":461,"o":"m -37 0 q 2 110 -25 53 q 63 222 29 168 q 127 314 96 275 q 176 367 158 353 q 135 420 156 383 q 101 505 115 457 q 81 601 88 553 q 79 688 75 650 l 151 688 q 159 588 149 642 q 189 491 169 535 q 232 429 208 447 q 269 465 246 436 q 315 533 292 493 q 358 614 339 572 q 383 688 376 656 l 461 688 q 425 592 450 643 q 370 492 400 540 q 312 410 340 444 q 268 367 283 376 q 304 321 285 357 q 342 232 324 285 q 370 119 360 179 q 379 0 381 58 l 293 0 q 288 83 294 39 q 268 169 281 128 q 241 242 256 211 q 211 283 226 272 q 163 233 194 272 q 98 135 132 194 q 42 0 64 75 l -37 0 z "},"ъ":{"ha":538,"x_min":47,"x_max":489,"o":"m 49 0 l 138 632 l 47 632 l 57 688 l 232 688 l 201 471 l 339 471 q 431 453 397 471 q 477 397 465 435 q 481 297 489 358 l 468 204 q 444 107 460 146 q 404 44 429 68 q 345 10 379 21 q 264 0 311 0 l 49 0 m 142 50 l 254 50 q 325 67 300 50 q 362 115 350 85 q 379 183 374 146 l 392 281 q 397 347 399 317 q 375 397 394 378 q 306 415 356 415 l 194 415 l 142 50 z "},"ħ":{"ha":500,"x_min":26,"x_max":482,"o":"m 38 760 l 46 808 l 293 808 l 285 760 l 38 760 m 26 0 l 149 875 l 231 875 l 194 629 q 252 680 215 661 q 340 699 289 699 q 425 683 394 699 q 469 643 456 668 q 482 585 482 618 q 476 517 482 553 l 404 0 l 318 0 l 389 499 q 393 542 392 519 q 388 585 394 565 q 362 617 381 604 q 304 629 343 629 q 242 618 267 629 q 206 591 218 607 q 192 564 194 575 l 113 0 l 26 0 z "},"̉":{"ha":0,"x_min":75,"x_max":244,"o":"m 119 749 l 124 778 q 142 804 126 797 q 172 819 157 811 q 189 847 188 826 l 189 856 q 185 884 190 871 q 157 897 179 897 q 118 864 128 897 l 75 872 q 107 917 85 901 q 167 933 129 933 q 228 912 211 933 q 242 853 244 890 l 242 849 q 228 810 239 822 q 205 794 218 799 q 181 785 192 789 q 171 768 171 781 l 168 749 l 119 749 z "},"̛":{"ha":0,"x_min":46,"x_max":204,"o":"m 46 636 l 47 679 l 65 679 q 140 742 132 679 l 143 765 l 204 765 l 203 747 q 154 663 194 692 q 46 636 114 635 z "},"˝":{"ha":218,"x_min":58,"x_max":294,"o":"m 58 758 l 113 886 l 189 886 l 97 758 l 58 758 m 157 758 l 219 886 l 294 886 l 200 758 l 157 758 z "},"̋":{"ha":0,"x_min":58,"x_max":294,"o":"m 58 758 l 113 886 l 189 886 l 97 758 l 58 758 m 157 758 l 219 886 l 294 886 l 200 758 l 157 758 z "},"-":{"ha":404,"x_min":57,"x_max":347,"o":"m 57 336 l 65 397 l 347 397 l 339 336 l 57 336 z "},"i":{"ha":232,"x_min":25,"x_max":239,"o":"m 25 0 l 122 688 l 207 688 l 110 0 l 25 0 m 186 769 q 150 785 165 769 q 133 821 135 800 q 149 856 133 842 q 186 871 165 871 q 224 856 208 871 q 239 821 239 842 q 224 785 239 800 q 186 769 208 769 z "},"і":{"ha":232,"x_min":25,"x_max":239,"o":"m 25 0 l 122 688 l 207 688 l 110 0 l 25 0 m 186 769 q 150 785 165 769 q 133 821 135 800 q 149 856 133 842 q 186 871 165 871 q 224 856 208 871 q 239 821 239 842 q 224 785 239 800 q 186 769 208 769 z "},"я":{"ha":536,"x_min":1,"x_max":525,"o":"m 1 0 l 122 239 q 167 303 143 281 q 219 329 190 326 q 124 372 153 333 q 104 488 94 410 l 111 535 q 171 652 122 617 q 290 688 219 688 l 525 688 l 428 0 l 338 0 l 382 319 l 293 308 q 235 260 261 296 q 186 175 210 225 l 101 0 l 1 0 m 290 361 l 389 361 l 426 635 l 299 635 q 233 608 263 635 q 197 532 204 581 l 192 489 q 210 390 183 419 q 290 361 236 361 z "},"í":{"ha":232,"x_min":25,"x_max":301,"o":"m 25 0 l 122 688 l 207 688 l 110 0 l 25 0 m 124 758 l 211 886 l 301 886 l 178 758 l 124 758 z "},"ǐ":{"ha":232,"x_min":25,"x_max":354,"o":"m 25 0 l 122 688 l 207 688 l 110 0 l 25 0 m 154 758 l 49 886 l 107 886 l 189 803 l 297 886 l 354 886 l 213 758 l 154 758 z "},"î":{"ha":232,"x_min":25,"x_max":331,"o":"m 25 0 l 122 688 l 207 688 l 110 0 l 25 0 m 25 758 l 167 886 l 225 886 l 331 758 l 274 758 l 189 844 l 83 758 l 25 758 z "},"ï":{"ha":232,"x_min":25,"x_max":297,"o":"m 25 0 l 122 688 l 207 688 l 110 0 l 25 0 m 118 774 q 85 787 99 774 q 72 818 72 800 q 85 849 72 838 q 118 861 99 861 q 150 849 138 861 q 163 818 163 838 q 150 787 163 800 q 118 774 138 774 m 253 774 q 220 787 233 774 q 207 818 207 800 q 220 849 207 838 q 253 861 233 861 q 285 849 272 861 q 297 818 297 838 q 285 787 297 800 q 253 774 272 774 z "},"ị":{"ha":232,"x_min":10,"x_max":239,"o":"m 25 0 l 122 688 l 207 688 l 110 0 l 25 0 m 186 769 q 150 785 165 769 q 133 821 135 800 q 149 856 133 842 q 186 871 165 871 q 224 856 208 871 q 239 821 239 842 q 224 785 239 800 q 186 769 208 769 m 56 -150 q 23 -137 36 -150 q 10 -104 10 -124 q 23 -74 10 -86 q 56 -61 36 -61 q 88 -74 75 -61 q 100 -104 100 -86 q 88 -137 100 -124 q 56 -150 75 -150 z "},"ı":{"ha":232,"x_min":25,"x_max":207,"o":"m 25 0 l 122 688 l 207 688 l 110 0 l 25 0 z "},"е":{"ha":483,"x_min":24,"x_max":483,"o":"m 196 -14 q 90 3 129 -14 q 37 62 50 19 q 33 185 24 104 l 82 531 q 149 663 97 628 q 292 697 201 697 q 442 656 401 697 q 463 511 483 614 q 410 413 450 450 q 319 354 371 375 q 217 324 267 333 q 136 313 167 315 l 117 165 q 122 68 106 96 q 201 40 139 40 q 287 67 263 40 q 321 164 311 93 l 332 247 l 418 247 l 408 175 q 374 58 397 99 q 308 2 351 18 q 196 -14 265 -14 m 144 364 q 208 374 172 367 q 278 397 243 382 q 340 441 314 413 q 375 513 365 469 q 376 612 390 575 q 296 649 361 649 q 206 622 235 649 q 167 522 176 594 l 144 364 z "},"ѐ":{"ha":483,"x_min":24,"x_max":483,"o":"m 196 -14 q 90 3 129 -14 q 37 62 50 19 q 33 185 24 104 l 82 531 q 149 663 97 628 q 292 697 201 697 q 442 656 401 697 q 463 511 483 614 q 410 413 450 450 q 319 354 371 375 q 217 324 267 333 q 136 313 167 315 l 117 165 q 122 68 106 96 q 201 40 139 40 q 287 67 263 40 q 321 164 311 93 l 332 247 l 418 247 l 408 175 q 374 58 397 99 q 308 2 351 18 q 196 -14 265 -14 m 144 364 q 208 374 172 367 q 278 397 243 382 q 340 441 314 413 q 375 513 365 469 q 376 612 390 575 q 296 649 361 649 q 206 622 235 649 q 167 522 176 594 l 144 364 m 292 758 l 194 886 l 285 886 l 346 758 l 292 758 z "},"ì":{"ha":232,"x_min":25,"x_max":224,"o":"m 25 0 l 122 688 l 207 688 l 110 0 l 25 0 m 171 758 l 74 886 l 164 886 l 225 758 l 171 758 z "},"ỉ":{"ha":232,"x_min":25,"x_max":272,"o":"m 25 0 l 122 688 l 207 688 l 110 0 l 25 0 m 147 749 l 151 778 q 169 804 154 797 q 200 819 185 811 q 217 847 215 826 l 217 856 q 213 884 218 871 q 185 897 207 897 q 146 864 156 897 l 103 872 q 135 917 113 901 q 194 933 157 933 q 256 912 239 933 q 269 853 272 890 l 269 849 q 256 810 267 822 q 233 794 246 799 q 209 785 219 789 q 199 768 199 781 l 196 749 l 147 749 z "},"и":{"ha":533,"x_min":25,"x_max":508,"o":"m 25 0 l 122 686 l 200 686 l 125 158 l 429 686 l 508 686 l 411 0 l 333 0 l 411 547 q 255 274 332 410 q 99 0 178 138 l 25 0 z "},"ѝ":{"ha":533,"x_min":25,"x_max":508,"o":"m 25 0 l 122 686 l 200 686 l 125 158 l 429 686 l 508 686 l 411 0 l 333 0 l 411 547 q 255 274 332 410 q 99 0 178 138 l 25 0 m 318 758 l 221 886 l 311 886 l 372 758 l 318 758 z "},"й":{"ha":533,"x_min":25,"x_max":508,"o":"m 25 0 l 122 686 l 200 686 l 125 158 l 429 686 l 508 686 l 411 0 l 333 0 l 411 547 q 255 274 332 410 q 99 0 178 138 l 25 0 m 322 757 q 258 769 283 757 q 222 801 233 782 q 206 842 210 821 q 204 881 203 863 l 257 881 q 276 822 256 842 q 331 803 297 803 q 392 822 367 803 q 428 881 418 840 l 479 881 q 456 824 474 853 q 405 776 438 796 q 322 757 372 757 z "},"ī":{"ha":232,"x_min":25,"x_max":314,"o":"m 25 0 l 122 688 l 207 688 l 110 0 l 25 0 m 50 786 l 56 833 l 314 833 l 308 786 l 50 786 z "},"∞":{"ha":986,"x_min":46,"x_max":940,"o":"m 201 139 q 83 188 119 139 q 60 336 46 236 q 120 482 72 428 q 258 536 168 536 q 344 519 307 536 q 417 465 381 501 q 499 375 453 429 q 608 467 563 432 q 694 519 653 501 q 785 536 736 536 q 908 482 875 536 q 928 336 940 428 q 867 192 914 246 q 729 139 819 139 q 644 156 682 139 q 571 210 607 174 q 489 300 535 246 q 379 208 426 244 q 291 156 332 172 q 201 139 250 139 m 211 196 q 320 233 268 196 q 449 339 372 269 q 390 402 419 371 q 327 454 360 433 q 251 475 294 475 q 158 435 192 475 q 117 335 125 396 q 129 236 107 276 q 211 196 151 196 m 736 199 q 827 236 792 199 q 871 339 863 274 q 857 438 879 397 q 776 478 835 478 q 727 471 749 478 q 681 449 706 464 q 623 406 657 433 q 538 336 589 379 q 613 257 582 288 q 672 213 643 226 q 736 199 700 199 z "},"∫":{"ha":539,"x_min":-215,"x_max":594,"o":"m -118 -406 q -167 -402 -142 -404 q -215 -396 -192 -400 l -197 -339 l -107 -346 q -41 -315 -65 -344 q -8 -256 -17 -286 l 306 740 q 349 822 322 792 q 413 864 375 851 q 496 876 450 876 q 547 873 522 875 q 594 867 572 871 l 576 808 l 486 815 q 419 786 442 815 q 388 725 397 757 l 72 -271 q 29 -351 56 -321 q -34 -393 3 -381 q -118 -406 -71 -406 z "},"ё":{"ha":483,"x_min":24,"x_max":483,"o":"m 196 -14 q 90 3 129 -14 q 37 62 50 19 q 33 185 24 104 l 82 531 q 149 663 97 628 q 292 697 201 697 q 442 656 401 697 q 463 511 483 614 q 410 413 450 450 q 319 354 371 375 q 217 324 267 333 q 136 313 167 315 l 117 165 q 122 68 106 96 q 201 40 139 40 q 287 67 263 40 q 321 164 311 93 l 332 247 l 418 247 l 408 175 q 374 58 397 99 q 308 2 351 18 q 196 -14 265 -14 m 144 364 q 208 374 172 367 q 278 397 243 382 q 340 441 314 413 q 375 513 365 469 q 376 612 390 575 q 296 649 361 649 q 206 622 235 649 q 167 522 176 594 l 144 364 m 240 774 q 208 787 221 774 q 194 818 194 800 q 208 849 194 838 q 240 861 221 861 q 272 849 260 861 q 285 818 285 838 q 272 787 285 800 q 240 774 260 774 m 375 774 q 342 787 356 774 q 329 818 329 800 q 342 849 329 838 q 375 861 356 861 q 407 849 394 861 q 419 818 419 838 q 407 787 419 800 q 375 774 394 774 z "},"į":{"ha":232,"x_min":-43,"x_max":239,"o":"m 25 0 l 122 688 l 207 688 l 110 0 l 25 0 m 186 769 q 150 785 165 769 q 133 821 135 800 q 149 856 133 842 q 186 871 165 871 q 224 856 208 871 q 239 821 239 842 q 224 785 239 800 q 186 769 208 769 m 46 -187 q -19 -165 6 -187 q -39 -107 -44 -142 q -1 -39 -33 -68 q 67 1 31 -10 l 111 0 q 49 -43 72 -17 q 22 -96 26 -69 q 35 -136 19 -122 q 68 -150 50 -150 q 90 -147 81 -150 q 106 -142 100 -144 l 114 -171 q 88 -182 104 -176 q 46 -187 71 -187 z "},"ĩ":{"ha":232,"x_min":25,"x_max":332,"o":"m 25 0 l 122 688 l 207 688 l 110 0 l 25 0 m 238 769 q 207 776 219 769 q 176 794 194 782 q 152 810 165 801 q 122 819 139 819 q 92 808 106 819 q 72 771 79 796 l 39 771 q 72 839 47 813 q 129 865 96 865 q 165 857 149 865 q 194 838 181 849 q 219 823 208 829 q 246 817 231 817 q 276 827 264 817 q 296 861 289 838 l 332 861 q 297 794 324 819 q 238 769 269 769 z "},"ю":{"ha":804,"x_min":10,"x_max":775,"o":"m 507 -11 q 413 2 449 -11 q 361 42 378 15 q 342 105 344 68 q 347 190 339 142 l 392 517 q 420 609 400 568 q 484 674 440 650 q 607 699 528 699 q 700 685 665 699 q 752 646 735 671 q 772 588 769 621 q 769 517 775 556 l 725 190 q 694 81 715 126 q 628 13 672 36 q 507 -11 585 -11 m 10 0 l 107 688 l 193 688 l 151 394 l 399 394 l 390 328 l 143 328 l 96 0 l 10 0 m 513 38 q 585 56 561 38 q 620 105 610 75 q 635 168 631 135 l 685 521 q 687 583 689 554 q 666 631 685 613 q 600 649 647 649 q 528 631 553 649 q 494 583 504 613 q 479 521 483 554 l 429 168 q 426 105 425 135 q 447 56 428 75 q 513 38 465 38 z "},"j":{"ha":207,"x_min":-156,"x_max":225,"o":"m -118 -154 q -138 -153 -125 -154 q -156 -150 -151 -151 l -147 -103 q -131 -103 -143 -103 q -108 -103 -119 -104 q -28 -84 -58 -103 q 11 -14 3 -65 l 110 688 l 194 688 l 99 4 q 57 -100 89 -65 q -21 -145 25 -135 q -118 -154 -67 -156 m 171 769 q 135 785 150 769 q 118 821 119 800 q 134 856 118 842 q 171 871 150 871 q 208 856 193 871 q 224 821 224 842 q 208 785 224 800 q 171 769 193 769 z "},"ȷ":{"ha":207,"x_min":-156,"x_max":194,"o":"m -118 -154 q -138 -153 -125 -154 q -156 -150 -151 -151 l -147 -103 q -131 -103 -143 -103 q -108 -103 -119 -104 q -28 -84 -58 -103 q 11 -14 3 -65 l 110 688 l 194 688 l 99 4 q 57 -100 89 -65 q -21 -145 25 -135 q -118 -154 -67 -156 z "},"ј":{"ha":207,"x_min":-156,"x_max":225,"o":"m -118 -154 q -138 -153 -125 -154 q -156 -150 -151 -151 l -147 -103 q -131 -103 -143 -103 q -108 -103 -119 -104 q -28 -84 -58 -103 q 11 -14 3 -65 l 110 688 l 194 688 l 99 4 q 57 -100 89 -65 q -21 -145 25 -135 q -118 -154 -67 -156 m 171 769 q 135 785 150 769 q 118 821 119 800 q 134 856 118 842 q 171 871 150 871 q 208 856 193 871 q 224 821 224 842 q 208 785 224 800 q 171 769 193 769 z "},"k":{"ha":467,"x_min":25,"x_max":493,"o":"m 25 0 l 149 881 l 235 881 l 110 0 l 25 0 m 306 0 l 190 399 l 407 688 l 493 688 l 275 399 l 399 0 l 306 0 z "},"к":{"ha":485,"x_min":25,"x_max":510,"o":"m 25 0 l 122 688 l 208 688 l 167 386 q 278 533 217 469 q 401 633 340 597 q 510 669 463 668 l 501 608 q 431 577 465 599 q 368 526 397 556 q 328 485 346 507 q 292 439 310 463 l 413 0 l 313 0 l 207 346 q 173 297 189 324 q 147 258 157 271 l 111 0 l 25 0 z "},"ķ":{"ha":467,"x_min":25,"x_max":493,"o":"m 25 0 l 149 881 l 235 881 l 110 0 l 25 0 m 306 0 l 190 399 l 407 688 l 493 688 l 275 399 l 399 0 l 306 0 m 124 -217 q 160 -163 147 -186 q 174 -128 174 -140 q 168 -115 174 -119 q 157 -102 163 -110 q 153 -82 151 -94 q 166 -56 153 -68 q 199 -44 179 -44 q 230 -56 218 -44 q 240 -85 242 -67 q 226 -124 239 -100 q 197 -172 214 -147 q 161 -217 179 -197 l 124 -217 z "},"ќ":{"ha":485,"x_min":25,"x_max":510,"o":"m 25 0 l 122 688 l 208 688 l 167 386 q 278 533 217 469 q 401 633 340 597 q 510 669 463 668 l 501 608 q 431 577 465 599 q 368 526 397 556 q 328 485 346 507 q 292 439 310 463 l 413 0 l 313 0 l 207 346 q 173 297 189 324 q 147 258 157 271 l 111 0 l 25 0 m 281 758 l 368 886 l 458 886 l 335 758 l 281 758 z "},"l":{"ha":232,"x_min":25,"x_max":235,"o":"m 25 0 l 149 881 l 235 881 l 110 0 l 25 0 z "},"ĺ":{"ha":232,"x_min":25,"x_max":332,"o":"m 25 0 l 149 881 l 235 881 l 110 0 l 25 0 m 117 935 l 243 1050 l 332 1050 l 172 935 l 117 935 z "},"ľ":{"ha":276,"x_min":25,"x_max":369,"o":"m 25 0 l 149 881 l 235 881 l 110 0 l 25 0 m 260 718 l 311 899 l 368 899 l 296 718 l 260 718 z "},"ļ":{"ha":232,"x_min":-17,"x_max":235,"o":"m 25 0 l 149 881 l 235 881 l 110 0 l 25 0 m -18 -217 q 19 -163 6 -186 q 32 -128 32 -140 q 26 -115 32 -119 q 15 -102 21 -110 q 11 -82 10 -94 q 24 -56 11 -68 q 57 -44 38 -44 q 88 -56 76 -44 q 99 -85 100 -67 q 85 -124 97 -100 q 55 -172 72 -147 q 19 -217 38 -197 l -18 -217 z "},"←":{"ha":1115,"x_min":61,"x_max":1053,"o":"m 388 88 l 61 383 l 388 683 l 431 640 l 206 421 l 1053 418 l 1051 350 l 206 351 l 431 131 l 388 88 z "},"↔":{"ha":1354,"x_min":60,"x_max":1293,"o":"m 390 78 l 60 375 l 390 672 l 433 631 l 208 410 l 1144 410 l 919 631 l 964 672 l 1293 375 l 964 78 l 919 119 l 1143 340 l 211 340 l 433 119 l 390 78 z "},"<":{"ha":472,"x_min":65,"x_max":438,"o":"m 367 200 l 65 425 l 75 485 l 438 710 l 425 624 l 147 453 l 378 286 l 367 200 z "},"≤":{"ha":454,"x_min":28,"x_max":439,"o":"m 367 200 l 68 425 l 75 485 l 439 710 l 428 625 l 149 456 l 381 288 l 367 200 m 350 -3 l 28 -3 l 33 58 l 356 58 l 350 -3 z "},"љ":{"ha":838,"x_min":-25,"x_max":789,"o":"m -25 0 l -18 50 q 17 61 1 50 q 46 96 33 72 q 65 153 58 119 l 186 686 l 533 686 l 503 471 l 639 471 q 736 451 703 471 q 779 393 769 432 q 781 297 789 354 l 771 228 q 749 126 763 169 q 711 56 735 83 q 652 14 688 28 q 565 0 617 0 l 349 0 l 436 624 l 264 624 l 149 129 q 138 89 144 111 q 117 47 131 67 q 81 13 104 26 q 24 0 58 0 l -25 0 m 443 50 l 556 50 q 626 67 601 50 q 663 115 651 85 q 679 183 674 146 l 693 281 q 697 347 699 317 q 675 397 694 378 q 606 415 656 415 l 496 415 l 443 50 z "},"¬":{"ha":774,"x_min":76,"x_max":735,"o":"m 631 244 l 665 497 l 76 497 l 86 563 l 735 563 l 690 244 l 631 244 z "},"ſ":{"ha":335,"x_min":-126,"x_max":453,"o":"m -22 -203 q -78 -201 -49 -203 q -126 -196 -107 -200 l -121 -146 l -83 -149 q -54 -148 -69 -149 q -24 -146 -39 -147 q 25 -117 8 -143 q 46 -64 42 -90 l 133 556 l 85 556 l 93 611 l 140 611 l 160 744 q 189 826 168 796 q 244 868 210 856 q 324 881 279 881 q 392 876 361 881 q 453 864 424 871 l 438 811 q 383 822 410 818 q 321 826 356 826 q 266 795 283 826 q 243 732 249 764 l 135 -39 q 107 -128 128 -93 q 53 -182 86 -164 q -22 -203 21 -200 z "},"◊":{"ha":657,"x_min":61,"x_max":596,"o":"m 294 -49 l 61 406 l 294 858 l 363 858 l 596 406 l 363 -49 l 294 -49 m 329 36 l 511 408 l 331 771 l 146 406 l 329 36 z "},"ł":{"ha":388,"x_min":21,"x_max":324,"o":"m 88 0 l 122 244 l 21 201 l 26 249 l 131 292 l 213 881 l 296 881 l 218 329 l 324 374 l 317 328 l 213 283 l 172 0 l 88 0 z "},"m":{"ha":793,"x_min":26,"x_max":768,"o":"m 26 0 l 122 688 l 194 688 l 192 613 q 254 675 211 653 q 339 697 297 697 q 438 676 407 697 q 474 607 469 654 q 537 672 497 646 q 626 697 576 697 q 744 654 721 697 q 754 515 768 611 l 682 0 l 596 0 l 668 519 q 669 592 676 567 q 642 625 663 617 q 590 633 622 633 q 515 607 549 633 q 472 540 482 581 l 397 0 l 311 0 l 385 524 q 383 594 392 571 q 355 626 375 618 q 303 633 335 633 q 233 611 261 633 q 190 558 206 589 l 113 0 l 26 0 z "},"¯":{"ha":260,"x_min":63,"x_max":326,"o":"m 63 786 l 68 833 l 326 833 l 321 786 l 63 786 z "},"̄":{"ha":0,"x_min":64,"x_max":328,"o":"m 64 786 l 69 833 l 328 833 l 322 786 l 64 786 z "},"µ":{"ha":497,"x_min":0,"x_max":499,"o":"m 0 -179 l 122 688 l 208 688 l 129 129 q 160 72 136 93 q 225 51 183 51 q 277 59 254 51 q 316 92 300 67 q 339 168 332 118 l 413 688 l 499 688 l 426 172 q 399 69 418 110 q 344 10 381 29 q 244 -10 308 -10 q 165 10 201 -10 q 117 75 129 31 l 72 -179 l 0 -179 z "},"−":{"ha":636,"x_min":72,"x_max":526,"o":"m 72 319 l 83 386 l 526 386 l 517 319 l 72 319 z "},"×":{"ha":501,"x_min":49,"x_max":454,"o":"m 368 174 l 244 317 l 89 182 l 49 229 l 203 364 l 81 507 l 135 554 l 257 411 l 414 549 l 454 501 l 300 364 l 421 219 l 368 174 z "},"n":{"ha":515,"x_min":26,"x_max":481,"o":"m 26 0 l 122 688 l 193 688 l 192 613 q 256 678 214 658 q 340 699 297 699 q 425 683 394 699 q 468 643 456 668 q 481 585 481 618 q 476 517 481 553 l 404 0 l 318 0 l 389 506 q 394 552 393 529 q 390 593 396 575 q 364 622 383 611 q 306 633 344 633 q 247 621 269 633 q 210 592 224 608 q 190 560 197 575 l 113 0 l 26 0 z "},"ń":{"ha":515,"x_min":26,"x_max":481,"o":"m 26 0 l 122 688 l 193 688 l 192 613 q 256 678 214 658 q 340 699 297 699 q 425 683 394 699 q 468 643 456 668 q 481 585 481 618 q 476 517 481 553 l 404 0 l 318 0 l 389 506 q 394 552 393 529 q 390 593 396 575 q 364 622 383 611 q 306 633 344 633 q 247 621 269 633 q 210 592 224 608 q 190 560 197 575 l 113 0 l 26 0 m 269 758 l 357 886 l 447 886 l 324 758 l 269 758 z "},"ň":{"ha":515,"x_min":26,"x_max":500,"o":"m 26 0 l 122 688 l 193 688 l 192 613 q 256 678 214 658 q 340 699 297 699 q 425 683 394 699 q 468 643 456 668 q 481 585 481 618 q 476 517 481 553 l 404 0 l 318 0 l 389 506 q 394 552 393 529 q 390 593 396 575 q 364 622 383 611 q 306 633 344 633 q 247 621 269 633 q 210 592 224 608 q 190 560 197 575 l 113 0 l 26 0 m 300 758 l 194 886 l 253 886 l 335 803 l 443 886 l 500 886 l 358 758 l 300 758 z "},"ņ":{"ha":515,"x_min":26,"x_max":481,"o":"m 26 0 l 122 688 l 193 688 l 192 613 q 256 678 214 658 q 340 699 297 699 q 425 683 394 699 q 468 643 456 668 q 481 585 481 618 q 476 517 481 553 l 404 0 l 318 0 l 389 506 q 394 552 393 529 q 390 593 396 575 q 364 622 383 611 q 306 633 344 633 q 247 621 269 633 q 210 592 224 608 q 190 560 197 575 l 113 0 l 26 0 m 131 -217 q 167 -163 154 -186 q 181 -128 181 -140 q 175 -115 181 -119 q 164 -102 169 -110 q 160 -82 158 -94 q 173 -56 160 -68 q 206 -44 186 -44 q 237 -56 225 -44 q 247 -85 249 -67 q 233 -124 246 -100 q 203 -172 221 -147 q 168 -217 186 -197 l 131 -217 z "},"њ":{"ha":801,"x_min":10,"x_max":753,"o":"m 10 0 l 107 688 l 193 688 l 151 394 l 369 394 l 411 688 l 497 688 l 467 471 l 604 471 q 699 451 665 471 q 743 393 733 432 q 744 297 753 354 l 735 228 q 713 126 726 169 q 675 56 699 83 q 616 14 651 28 q 528 0 581 0 l 314 0 l 361 328 l 143 328 l 96 0 l 10 0 m 406 50 l 518 50 q 589 67 564 50 q 626 115 614 85 q 643 183 638 146 l 656 281 q 660 347 663 317 q 639 397 658 378 q 569 415 619 415 l 458 415 l 406 50 z "},"↗":{"ha":821,"x_min":42,"x_max":769,"o":"m 92 106 l 42 156 l 642 753 l 328 751 l 328 810 l 769 832 l 749 390 l 688 390 l 692 706 l 92 106 z "},"↖":{"ha":839,"x_min":65,"x_max":792,"o":"m 743 93 l 146 693 l 147 379 l 86 379 l 65 821 l 508 800 l 508 739 l 194 743 l 792 142 l 743 93 z "},"≠":{"ha":564,"x_min":15,"x_max":553,"o":"m 15 -11 l 169 218 l 58 218 l 68 282 l 211 282 l 364 513 l 100 513 l 110 576 l 407 576 l 503 724 l 553 724 l 456 576 l 532 576 l 524 513 l 411 513 l 258 282 l 492 282 l 482 218 l 215 218 l 63 -11 l 15 -11 z "},"ñ":{"ha":515,"x_min":26,"x_max":481,"o":"m 26 0 l 122 688 l 193 688 l 192 613 q 256 678 214 658 q 340 699 297 699 q 425 683 394 699 q 468 643 456 668 q 481 585 481 618 q 476 517 481 553 l 404 0 l 318 0 l 389 506 q 394 552 393 529 q 390 593 396 575 q 364 622 383 611 q 306 633 344 633 q 247 621 269 633 q 210 592 224 608 q 190 560 197 575 l 113 0 l 26 0 m 385 769 q 354 776 367 769 q 324 794 342 782 q 299 810 313 801 q 269 819 286 819 q 240 808 253 819 q 219 771 226 796 l 186 771 q 219 839 194 813 q 276 865 243 865 q 312 857 296 865 q 342 838 328 849 q 367 823 356 829 q 393 817 378 817 q 424 827 411 817 q 443 861 436 838 l 479 861 q 444 794 471 819 q 385 769 417 769 z "},"#":{"ha":963,"x_min":58,"x_max":904,"o":"m 179 0 l 263 261 l 58 261 l 75 315 l 279 315 l 349 538 l 144 539 l 163 593 l 367 593 l 431 796 l 485 796 l 421 593 l 649 593 l 713 796 l 768 796 l 703 593 l 904 593 l 886 538 l 686 538 l 617 315 l 818 315 l 800 261 l 599 261 l 518 0 l 461 0 l 544 261 l 317 261 l 233 0 l 179 0 m 333 315 l 561 315 l 631 538 l 403 538 l 333 315 z "},"o":{"ha":490,"x_min":29,"x_max":463,"o":"m 196 -10 q 103 4 138 -10 q 51 44 68 18 q 31 107 33 69 q 35 192 29 144 l 79 513 q 108 608 88 567 q 174 674 129 650 q 296 699 218 699 q 390 685 354 699 q 442 645 425 671 q 460 586 458 619 q 457 513 463 553 l 413 192 q 383 83 404 128 q 317 14 361 38 q 196 -10 272 -10 m 204 46 q 276 64 251 46 q 310 112 300 82 q 325 174 321 142 l 372 517 q 376 577 378 549 q 355 624 374 606 q 288 643 336 643 q 216 624 240 643 q 182 577 192 606 q 167 517 172 549 l 119 174 q 117 112 115 142 q 137 64 118 82 q 204 46 156 46 z "},"о":{"ha":490,"x_min":29,"x_max":463,"o":"m 196 -10 q 103 4 138 -10 q 51 44 68 18 q 31 107 33 69 q 35 192 29 144 l 79 513 q 108 608 88 567 q 174 674 129 650 q 296 699 218 699 q 390 685 354 699 q 442 645 425 671 q 460 586 458 619 q 457 513 463 553 l 413 192 q 383 83 404 128 q 317 14 361 38 q 196 -10 272 -10 m 204 46 q 276 64 251 46 q 310 112 300 82 q 325 174 321 142 l 372 517 q 376 577 378 549 q 355 624 374 606 q 288 643 336 643 q 216 624 240 643 q 182 577 192 606 q 167 517 172 549 l 119 174 q 117 112 115 142 q 137 64 118 82 q 204 46 156 46 z "},"ó":{"ha":490,"x_min":29,"x_max":463,"o":"m 196 -10 q 103 4 138 -10 q 51 44 68 18 q 31 107 33 69 q 35 192 29 144 l 79 513 q 108 608 88 567 q 174 674 129 650 q 296 699 218 699 q 390 685 354 699 q 442 645 425 671 q 460 586 458 619 q 457 513 463 553 l 413 192 q 383 83 404 128 q 317 14 361 38 q 196 -10 272 -10 m 204 46 q 276 64 251 46 q 310 112 300 82 q 325 174 321 142 l 372 517 q 376 577 378 549 q 355 624 374 606 q 288 643 336 643 q 216 624 240 643 q 182 577 192 606 q 167 517 172 549 l 119 174 q 117 112 115 142 q 137 64 118 82 q 204 46 156 46 m 250 758 l 338 886 l 428 886 l 304 758 l 250 758 z "},"ǒ":{"ha":490,"x_min":29,"x_max":481,"o":"m 196 -10 q 103 4 138 -10 q 51 44 68 18 q 31 107 33 69 q 35 192 29 144 l 79 513 q 108 608 88 567 q 174 674 129 650 q 296 699 218 699 q 390 685 354 699 q 442 645 425 671 q 460 586 458 619 q 457 513 463 553 l 413 192 q 383 83 404 128 q 317 14 361 38 q 196 -10 272 -10 m 204 46 q 276 64 251 46 q 310 112 300 82 q 325 174 321 142 l 372 517 q 376 577 378 549 q 355 624 374 606 q 288 643 336 643 q 216 624 240 643 q 182 577 192 606 q 167 517 172 549 l 119 174 q 117 112 115 142 q 137 64 118 82 q 204 46 156 46 m 281 758 l 175 886 l 233 886 l 315 803 l 424 886 l 481 886 l 339 758 l 281 758 z "},"ô":{"ha":490,"x_min":29,"x_max":463,"o":"m 196 -10 q 103 4 138 -10 q 51 44 68 18 q 31 107 33 69 q 35 192 29 144 l 79 513 q 108 608 88 567 q 174 674 129 650 q 296 699 218 699 q 390 685 354 699 q 442 645 425 671 q 460 586 458 619 q 457 513 463 553 l 413 192 q 383 83 404 128 q 317 14 361 38 q 196 -10 272 -10 m 204 46 q 276 64 251 46 q 310 112 300 82 q 325 174 321 142 l 372 517 q 376 577 378 549 q 355 624 374 606 q 288 643 336 643 q 216 624 240 643 q 182 577 192 606 q 167 517 172 549 l 119 174 q 117 112 115 142 q 137 64 118 82 q 204 46 156 46 m 151 758 l 293 886 l 351 886 l 457 758 l 400 758 l 315 844 l 210 758 l 151 758 z "},"ố":{"ha":490,"x_min":29,"x_max":633,"o":"m 196 -10 q 103 4 138 -10 q 51 44 68 18 q 31 107 33 69 q 35 192 29 144 l 79 513 q 108 608 88 567 q 174 674 129 650 q 296 699 218 699 q 390 685 354 699 q 442 645 425 671 q 460 586 458 619 q 457 513 463 553 l 413 192 q 383 83 404 128 q 317 14 361 38 q 196 -10 272 -10 m 204 46 q 276 64 251 46 q 310 112 300 82 q 325 174 321 142 l 372 517 q 376 577 378 549 q 355 624 374 606 q 288 643 336 643 q 216 624 240 643 q 182 577 192 606 q 167 517 172 549 l 119 174 q 117 112 115 142 q 137 64 118 82 q 204 46 156 46 m 151 758 l 293 886 l 351 886 l 457 758 l 400 758 l 315 844 l 210 758 l 151 758 m 456 835 l 543 963 l 633 963 l 510 835 l 456 835 z "},"ộ":{"ha":490,"x_min":29,"x_max":463,"o":"m 196 -10 q 103 4 138 -10 q 51 44 68 18 q 31 107 33 69 q 35 192 29 144 l 79 513 q 108 608 88 567 q 174 674 129 650 q 296 699 218 699 q 390 685 354 699 q 442 645 425 671 q 460 586 458 619 q 457 513 463 553 l 413 192 q 383 83 404 128 q 317 14 361 38 q 196 -10 272 -10 m 204 46 q 276 64 251 46 q 310 112 300 82 q 325 174 321 142 l 372 517 q 376 577 378 549 q 355 624 374 606 q 288 643 336 643 q 216 624 240 643 q 182 577 192 606 q 167 517 172 549 l 119 174 q 117 112 115 142 q 137 64 118 82 q 204 46 156 46 m 182 -150 q 149 -137 163 -150 q 136 -104 136 -124 q 149 -74 136 -86 q 182 -61 163 -61 q 214 -74 201 -61 q 226 -104 226 -86 q 214 -137 226 -124 q 182 -150 201 -150 m 151 758 l 293 886 l 351 886 l 457 758 l 400 758 l 315 844 l 210 758 l 151 758 z "},"ồ":{"ha":490,"x_min":29,"x_max":557,"o":"m 196 -10 q 103 4 138 -10 q 51 44 68 18 q 31 107 33 69 q 35 192 29 144 l 79 513 q 108 608 88 567 q 174 674 129 650 q 296 699 218 699 q 390 685 354 699 q 442 645 425 671 q 460 586 458 619 q 457 513 463 553 l 413 192 q 383 83 404 128 q 317 14 361 38 q 196 -10 272 -10 m 204 46 q 276 64 251 46 q 310 112 300 82 q 325 174 321 142 l 372 517 q 376 577 378 549 q 355 624 374 606 q 288 643 336 643 q 216 624 240 643 q 182 577 192 606 q 167 517 172 549 l 119 174 q 117 112 115 142 q 137 64 118 82 q 204 46 156 46 m 151 758 l 293 886 l 351 886 l 457 758 l 400 758 l 315 844 l 210 758 l 151 758 m 503 835 l 406 963 l 496 963 l 557 835 l 503 835 z "},"ổ":{"ha":490,"x_min":29,"x_max":604,"o":"m 196 -10 q 103 4 138 -10 q 51 44 68 18 q 31 107 33 69 q 35 192 29 144 l 79 513 q 108 608 88 567 q 174 674 129 650 q 296 699 218 699 q 390 685 354 699 q 442 645 425 671 q 460 586 458 619 q 457 513 463 553 l 413 192 q 383 83 404 128 q 317 14 361 38 q 196 -10 272 -10 m 204 46 q 276 64 251 46 q 310 112 300 82 q 325 174 321 142 l 372 517 q 376 577 378 549 q 355 624 374 606 q 288 643 336 643 q 216 624 240 643 q 182 577 192 606 q 167 517 172 549 l 119 174 q 117 112 115 142 q 137 64 118 82 q 204 46 156 46 m 151 758 l 293 886 l 351 886 l 457 758 l 400 758 l 315 844 l 210 758 l 151 758 m 479 825 l 483 854 q 501 881 486 874 q 532 895 517 888 q 549 924 547 903 l 549 932 q 544 960 550 947 q 517 974 539 974 q 478 940 488 974 l 435 949 q 467 994 444 978 q 526 1010 489 1010 q 588 988 571 1010 q 601 929 604 967 l 601 925 q 588 887 599 899 q 565 870 578 875 q 541 861 551 865 q 531 844 531 857 l 528 825 l 479 825 z "},"ỗ":{"ha":490,"x_min":29,"x_max":475,"o":"m 196 -10 q 103 4 138 -10 q 51 44 68 18 q 31 107 33 69 q 35 192 29 144 l 79 513 q 108 608 88 567 q 174 674 129 650 q 296 699 218 699 q 390 685 354 699 q 442 645 425 671 q 460 586 458 619 q 457 513 463 553 l 413 192 q 383 83 404 128 q 317 14 361 38 q 196 -10 272 -10 m 204 46 q 276 64 251 46 q 310 112 300 82 q 325 174 321 142 l 372 517 q 376 577 378 549 q 355 624 374 606 q 288 643 336 643 q 216 624 240 643 q 182 577 192 606 q 167 517 172 549 l 119 174 q 117 112 115 142 q 137 64 118 82 q 204 46 156 46 m 151 758 l 293 886 l 351 886 l 457 758 l 400 758 l 315 844 l 210 758 l 151 758 m 381 918 q 350 924 363 918 q 319 943 338 931 q 295 959 308 950 q 265 968 282 968 q 235 956 249 968 q 215 919 222 944 l 182 919 q 215 988 190 961 q 272 1014 239 1014 q 308 1006 292 1014 q 338 986 324 997 q 363 972 351 978 q 389 965 374 965 q 419 976 407 965 q 439 1010 432 986 l 475 1010 q 440 943 467 968 q 381 918 413 918 z "}}}
